<svg width="32" height="32" viewBox="0 0 32 32" fill="none" xmlns="http://www.w3.org/2000/svg">
<mask id="mask0_1_1150" style="mask-type:luminance" maskUnits="userSpaceOnUse" x="0" y="0" width="32" height="32">
<path d="M31.9393 0.484863H0.909027V31.5152H31.9393V0.484863Z" fill="white"/>
</mask>
<g mask="url(#mask0_1_1150)">
<path d="M20.3028 16.0068C20.3034 17.1256 20.1015 18.2355 19.7071 19.2824C18.6597 19.6768 17.5497 19.879 16.4304 19.8792H16.4174C15.2649 19.8777 14.1607 19.667 13.1417 19.2829C12.7471 18.2357 12.545 17.1258 12.5454 16.0068V15.9932C12.5449 14.8746 12.7465 13.7651 13.1406 12.7181C14.1879 12.3229 15.2981 12.1207 16.4175 12.1212H16.4306C17.5499 12.1206 18.66 12.3228 19.7072 12.718C20.1017 13.7648 20.3035 14.8744 20.3029 15.9931L20.3028 16.0068ZM31.7238 13.4142H22.6673L29.0708 7.0102C28.5682 6.30416 28.0076 5.64129 27.3947 5.0285C26.7819 4.41637 26.1192 3.85573 25.4135 3.35335L19.0095 9.75735V0.700863C18.1578 0.557582 17.2956 0.485333 16.4319 0.484863H16.4159C15.5374 0.485348 14.6769 0.560015 13.8383 0.700863V9.75735L7.43436 3.35335C6.7286 3.8556 6.0662 4.41614 5.45411 5.02911L5.45072 5.03153C4.83891 5.64355 4.27905 6.30539 3.77691 7.0102L10.1814 13.4142H1.12503C1.12503 13.4142 0.909027 15.1152 0.909027 15.9947V16.0053C0.909027 16.8849 0.983569 17.7468 1.12503 18.5858H10.1815L3.77702 24.9899C4.7845 26.4037 6.02054 27.6397 7.43436 28.6472L13.8383 22.2426V31.2997C14.6892 31.4422 15.5503 31.5143 16.4129 31.5152H16.4348C17.2975 31.5144 18.1586 31.4423 19.0094 31.2997V22.2426L25.414 28.6472C26.1195 28.1446 26.7821 27.5843 27.3947 26.972L27.3962 26.9706C28.0082 26.3577 28.5683 25.6952 29.0708 24.9899L22.6664 18.5858H31.7238C31.8648 17.7483 31.9383 16.8888 31.9393 16.0113V15.9888C31.9383 15.1112 31.8648 14.2517 31.7238 13.4142Z" fill="#FF4A00"/>
</g>
</svg>
