<svg width="16" height="16" viewBox="0 0 16 16" fill="none" xmlns="http://www.w3.org/2000/svg">
<path d="M11.3333 1.3335H4.66666C2.82571 1.3335 1.33333 2.82588 1.33333 4.66683V11.3335C1.33333 13.1744 2.82571 14.6668 4.66666 14.6668H11.3333C13.1743 14.6668 14.6667 13.1744 14.6667 11.3335V4.66683C14.6667 2.82588 13.1743 1.3335 11.3333 1.3335Z" stroke="#6A7282" stroke-width="1.33333" stroke-linecap="round" stroke-linejoin="round"/>
<path d="M10.6667 7.5802C10.7489 8.13503 10.6542 8.70168 10.3958 9.19954C10.1375 9.69741 9.72876 10.1011 9.22774 10.3533C8.72673 10.6055 8.15896 10.6933 7.60518 10.6042C7.05141 10.515 6.53983 10.2536 6.14322 9.85698C5.7466 9.46036 5.48515 8.94878 5.39604 8.39501C5.30693 7.84124 5.3947 7.27346 5.64688 6.77245C5.89905 6.27144 6.30278 5.86269 6.80065 5.60436C7.29852 5.34603 7.86516 5.25126 8.41999 5.33353C8.98594 5.41746 9.50989 5.68118 9.91446 6.08574C10.319 6.4903 10.5827 7.01425 10.6667 7.5802Z" stroke="#6A7282" stroke-width="1.33333" stroke-linecap="round" stroke-linejoin="round"/>
<path d="M11.6667 4.3335H11.6733" stroke="#6A7282" stroke-width="1.33333" stroke-linecap="round" stroke-linejoin="round"/>
</svg>
