<svg width="112" height="48" viewBox="0 0 112 48" fill="none" xmlns="http://www.w3.org/2000/svg">
<path d="M16.2703 29.0846C19.0784 29.0846 21.3548 26.8082 21.3548 24.0001C21.3548 21.192 19.0784 18.9156 16.2703 18.9156C13.4622 18.9156 11.1859 21.192 11.1859 24.0001C11.1859 26.8082 13.4622 29.0846 16.2703 29.0846Z" fill="#1E2939"/>
<path d="M25.4313 36.0385C25.8639 36.4711 25.8205 37.1872 25.3122 37.5278C22.7261 39.2601 19.6156 40.2703 16.2691 40.2703C12.9226 40.2703 9.81207 39.2601 7.22593 37.5278C6.71765 37.1872 6.67422 36.4711 7.10682 36.0385L10.8225 32.3228C11.1583 31.9871 11.6793 31.9339 12.102 32.1505C13.3518 32.7908 14.7683 33.152 16.2691 33.152C17.7699 33.152 19.1864 32.7908 20.4363 32.1505C20.859 31.9339 21.3798 31.9871 21.7157 32.3228L25.4313 36.0385Z" fill="#1E2939"/>
<path d="M25.3134 10.4723C25.8218 10.8128 25.8652 11.529 25.4326 11.9616L21.717 15.6772C21.3811 16.0131 20.86 16.0661 20.4374 15.8496C19.1875 15.2093 17.7711 14.848 16.2703 14.848C11.2157 14.848 7.11824 18.9456 7.11824 24.0001C7.11824 25.5009 7.47952 26.9174 8.11981 28.1673C8.33632 28.59 8.28331 29.1108 7.94746 29.4467L4.23178 33.1625C3.79918 33.5949 3.08302 33.5515 2.74255 33.0433C1.01031 30.4571 0 27.3465 0 24.0001C0 15.0142 7.28447 7.72974 16.2703 7.72974C19.6168 7.72974 22.7273 8.74005 25.3134 10.4723Z" fill="#1E2939"/>
<path fill-rule="evenodd" clip-rule="evenodd" d="M53.133 11.0346C53.133 10.8942 53.2465 10.7804 53.3869 10.7804H57.2006C57.3406 10.7804 57.4545 10.8942 57.4545 11.0346V36.9656C57.4545 37.1058 57.3406 37.2197 57.2006 37.2197H53.3869C53.2465 37.2197 53.133 37.1058 53.133 36.9656V11.0346ZM47.751 31.7196C47.6499 31.6321 47.4986 31.6386 47.401 31.7305C46.8069 32.2915 46.1107 32.7403 45.3479 33.0532C44.5113 33.3969 43.6115 33.5699 42.7042 33.5618C41.9379 33.5844 41.1751 33.4533 40.4626 33.1766C39.7502 32.8998 39.1031 32.4833 38.5613 31.9525C37.5771 30.9477 37.0107 29.5132 37.0107 27.8032C37.0107 24.3799 39.2882 22.0384 42.7042 22.0384C43.6206 22.0258 44.5283 22.2114 45.363 22.5817C46.1194 22.9176 46.799 23.3977 47.3616 23.9934C47.4577 24.0952 47.6174 24.107 47.7237 24.0153L50.2978 21.7877C50.4034 21.6966 50.4159 21.5378 50.3232 21.4342C48.3866 19.2702 45.3532 18.1529 42.468 18.1529C36.6594 18.1529 32.5407 22.0711 32.5407 27.8357C32.5407 30.6868 33.5643 33.0876 35.2906 34.7828C37.0169 36.4782 39.4762 37.4739 42.3137 37.4739C45.8716 37.4739 48.7355 36.1096 50.4144 34.3592C50.5131 34.2565 50.5022 34.0931 50.3943 34L47.751 31.7196ZM78.4609 29.0721C78.4469 29.1994 78.3387 29.2946 78.2104 29.2946H64.8522C64.6898 29.2946 64.5688 29.4452 64.6111 29.6018C65.2756 32.0655 67.2571 33.5562 69.9618 33.5562C70.8733 33.5754 71.7769 33.3877 72.6029 33.0079C73.3725 32.6541 74.0551 32.1421 74.6052 31.5076C74.6718 31.4309 74.7876 31.4195 74.8656 31.4846L77.5513 33.8228C77.6542 33.9123 77.6686 34.0673 77.5804 34.1712C75.9591 36.0841 73.3316 37.4739 69.7268 37.4739C64.1805 37.4739 59.9968 33.6332 59.9968 27.7981C59.9968 24.9353 60.9825 22.5347 62.625 20.8396C63.4923 19.968 64.5317 19.28 65.6793 18.8183C66.8269 18.3565 68.0585 18.1306 69.2985 18.1546C74.92 18.1546 78.5551 22.108 78.5551 27.5669C78.5479 28.0698 78.5165 28.5722 78.4609 29.0721ZM64.6913 25.5293C64.6441 25.6862 64.7651 25.839 64.9293 25.839H73.8114C73.9756 25.839 74.0967 25.6853 74.0513 25.5275C73.4459 23.4323 71.91 22.034 69.5244 22.034C68.8229 22.0117 68.1247 22.1387 67.4773 22.4061C66.8303 22.6737 66.2495 23.0755 65.775 23.5838C65.2759 24.1498 64.9066 24.8134 64.6913 25.5293ZM91.7719 18.1557C91.9134 18.1541 92.0288 18.2684 92.0288 18.4099V22.6795C92.0288 22.8274 91.9032 22.944 91.7552 22.9331C91.3436 22.9026 90.9538 22.8766 90.6984 22.8766C87.3721 22.8766 85.4193 25.2178 85.4193 28.2909V36.9656C85.4193 37.1058 85.3054 37.2197 85.165 37.2197H81.3517C81.211 37.2197 81.0971 37.1058 81.0971 36.9656V18.6738C81.0971 18.5335 81.211 18.4197 81.3517 18.4197H85.165C85.3054 18.4197 85.4193 18.5335 85.4193 18.6738V21.2412C85.4193 21.2557 85.4306 21.2674 85.4454 21.2674C85.4537 21.2674 85.4617 21.2635 85.4662 21.2569C86.957 19.2662 89.1573 18.1589 91.4817 18.1589L91.7719 18.1557ZM102.102 29.3376C102.117 29.3208 102.139 29.3114 102.162 29.3114C102.19 29.3114 102.217 29.3261 102.232 29.3503L107.053 37.0999C107.1 37.1744 107.181 37.2197 107.27 37.2197H111.604C111.804 37.2197 111.925 37.001 111.82 36.8316L105.205 26.1584C105.146 26.0621 105.157 25.9379 105.233 25.8538L111.606 18.822C111.754 18.6586 111.639 18.397 111.418 18.397H106.896C106.825 18.397 106.757 18.4269 106.708 18.4794L99.3345 26.5174C99.1779 26.6883 98.893 26.5775 98.893 26.3455V11.0346C98.893 10.8942 98.7791 10.7804 98.6387 10.7804H94.8254C94.685 10.7804 94.5711 10.8942 94.5711 11.0346V36.9656C94.5711 37.1058 94.685 37.2197 94.8254 37.2197H98.6387C98.7791 37.2197 98.893 37.1058 98.893 36.9656V32.8849C98.893 32.8208 98.9172 32.7588 98.9611 32.7118L102.102 29.3376Z" fill="#1E2939"/>
</svg>
