<svg width="112" height="48" viewBox="0 0 112 48" fill="none" xmlns="http://www.w3.org/2000/svg">
<path fill-rule="evenodd" clip-rule="evenodd" d="M3.61027 14.6129C3.46272 14.775 3.47249 15.0238 3.62751 15.1789L22.7854 34.3368C22.9404 34.4918 23.1892 34.5016 23.3514 34.354C26.1604 31.7979 27.9237 28.1125 27.9237 24.0152C27.9237 16.2972 21.6671 10.0405 13.949 10.0405C9.85182 10.0405 6.1664 11.8038 3.61027 14.6129ZM1.21582 18.2487C1.14503 18.4048 1.18072 18.5878 1.30191 18.709L19.2552 36.6623C19.3764 36.7835 19.5594 36.8192 19.7155 36.7484C20.1303 36.5603 20.5342 36.3525 20.9261 36.1263C21.159 35.9918 21.1947 35.674 21.0045 35.4837L2.48049 16.9598C2.2903 16.7696 1.97247 16.8052 1.83799 17.0382C1.61173 17.4301 1.40394 17.834 1.21582 18.2487ZM0.126654 23.3895C0.0425932 23.3055 -0.00213277 23.1896 0.00578081 23.071C0.0428435 22.5155 0.112369 21.9689 0.212479 21.433C0.272506 21.1116 0.665135 21.0001 0.896271 21.2313L16.733 37.068C16.9641 37.2991 16.8526 37.6917 16.5313 37.7518C15.9954 37.8519 15.4488 37.9214 14.8932 37.9585C14.7746 37.9664 14.6588 37.9216 14.5747 37.8376L0.126654 23.3895ZM1.09851 27.2893C0.809978 27.0007 0.344347 27.2493 0.450017 27.6435C1.73746 32.4454 5.51888 36.2268 10.3208 37.5142C10.7149 37.6199 10.9635 37.1543 10.675 36.8657L1.09851 27.2893ZM56.3058 17.7308C57.3076 17.7308 58.1195 16.9158 58.1195 15.9105C58.1195 14.9052 57.3076 14.0903 56.3058 14.0903C55.3043 14.0903 54.4924 14.9052 54.4924 15.9105C54.4924 16.9158 55.3043 17.7308 56.3058 17.7308ZM40.7712 33.6056V14.0914H43.9942V30.7505H52.6844V33.6056H40.7712ZM63.7111 25.6427V33.6056H60.5926V19.7754H63.6721V22.1459L63.7111 22.1197C64.024 21.3776 64.5289 20.7576 65.2249 20.2599C65.9206 19.7535 66.8078 19.5003 67.8869 19.5003C68.8436 19.5003 69.7133 19.7143 70.4963 20.1421C71.2794 20.5612 71.9056 21.1767 72.3754 21.9887C72.8451 22.8007 73.0798 23.7961 73.0798 24.9748V33.6056H69.9613V25.407C69.9613 24.3593 69.6828 23.5647 69.1264 23.0234C68.5784 22.4733 67.8431 22.1983 66.9211 22.1983C66.3293 22.1983 65.7901 22.3205 65.3031 22.565C64.8158 22.8095 64.4289 23.1849 64.1419 23.6913C63.8546 24.1977 63.7111 24.8482 63.7111 25.6427ZM91.9487 33.3699C92.6623 33.6755 93.48 33.8283 94.402 33.8283C95.1587 33.8283 95.8067 33.7322 96.3459 33.5401C96.8855 33.3393 97.3293 33.073 97.677 32.7412C98.0337 32.4095 98.3165 32.0471 98.5252 31.6542H98.5775V33.6056H101.566V24.0842C101.566 23.4119 101.435 22.7964 101.174 22.2376C100.913 21.6788 100.535 21.1942 100.039 20.7838C99.5518 20.3735 98.9603 20.0591 98.2642 19.8409C97.5685 19.6138 96.7852 19.5003 95.9155 19.5003C94.7237 19.5003 93.693 19.7055 92.823 20.1159C91.9617 20.5175 91.2878 21.0589 90.8005 21.7399C90.3132 22.4209 90.048 23.1893 90.0045 24.0449H93.0187C93.0535 23.6433 93.1927 23.2853 93.4362 22.971C93.68 22.6567 94.0105 22.4122 94.428 22.2376C94.8458 22.0542 95.3282 21.9625 95.8765 21.9625C96.4245 21.9625 96.8897 22.0542 97.2728 22.2376C97.664 22.4209 97.9643 22.6698 98.173 22.9841C98.3818 23.2984 98.4863 23.6651 98.4863 24.0842V24.189C98.4863 24.5033 98.3772 24.7347 98.16 24.8831C97.951 25.0315 97.5945 25.1407 97.09 25.2106C96.594 25.2804 95.9155 25.3634 95.0542 25.4594C94.3498 25.538 93.6713 25.6559 93.0187 25.813C92.3665 25.9702 91.7835 26.2015 91.2702 26.5071C90.7657 26.8127 90.3655 27.2187 90.0697 27.7251C89.774 28.2316 89.6263 28.882 89.6263 29.6766C89.6263 30.5934 89.835 31.3617 90.2525 31.9816C90.67 32.5928 91.2355 33.0556 91.9487 33.3699ZM96.9988 31.0517C96.494 31.3224 95.872 31.4578 95.1328 31.4578C94.3845 31.4578 93.7885 31.3006 93.345 30.9863C92.9012 30.6632 92.6795 30.2223 92.6795 29.6635C92.6795 29.2269 92.8012 28.8733 93.0447 28.6026C93.2973 28.332 93.6278 28.118 94.0365 27.9609C94.4455 27.8037 94.889 27.6946 95.3675 27.6335C95.7155 27.5811 96.0548 27.5287 96.3856 27.4763C96.7157 27.4152 97.0248 27.3585 97.3117 27.3061C97.5991 27.2449 97.8425 27.1838 98.0425 27.1227C98.2513 27.0616 98.4035 26.9961 98.4989 26.9262V28.4717C98.4989 29.013 98.373 29.5107 98.1208 29.9647C97.8769 30.41 97.5033 30.7723 96.9988 31.0517ZM104.287 33.6056V19.7754H107.288V22.0542H107.327C107.579 21.2684 107.975 20.6703 108.514 20.2599C109.062 19.8409 109.78 19.6313 110.667 19.6313C110.885 19.6313 111.081 19.64 111.254 19.6575C111.437 19.6662 111.589 19.675 111.711 19.6837V22.4995C111.598 22.482 111.398 22.4602 111.111 22.434C110.824 22.4078 110.52 22.3947 110.198 22.3947C109.684 22.3947 109.215 22.5126 108.788 22.7483C108.362 22.9841 108.023 23.3465 107.771 23.8354C107.527 24.3156 107.405 24.9224 107.405 25.6559V33.6056H104.287ZM54.7401 33.6056V19.7754H57.8585V33.6056H54.7401ZM78.2669 32.9901C79.2674 33.61 80.4549 33.9199 81.8294 33.9199C82.8907 33.9199 83.8562 33.7278 84.7262 33.3437C85.6047 32.9508 86.3354 32.4138 86.9182 31.7328C87.5012 31.043 87.8797 30.2485 88.0537 29.3491H85.1177C84.9869 29.7595 84.7739 30.1219 84.4782 30.4362C84.1912 30.7418 83.8302 30.9819 83.3952 31.1565C82.9602 31.3311 82.4557 31.4184 81.8814 31.4184C81.1075 31.4184 80.4416 31.2438 79.8852 30.8946C79.3372 30.5453 78.9197 30.0607 78.6324 29.4408C78.3721 28.8703 78.2295 28.2241 78.2055 27.5025H88.2362V26.6643C88.2362 25.5991 88.0797 24.6299 87.7664 23.7568C87.4535 22.8749 87.0097 22.1153 86.4354 21.478C85.8615 20.8318 85.17 20.3342 84.3606 19.9849C83.5604 19.6357 82.669 19.4611 81.6856 19.4611C80.4072 19.4611 79.2762 19.771 78.2932 20.3909C77.3102 21.0108 76.5405 21.8665 75.9834 22.9579C75.4269 24.0493 75.1484 25.2978 75.1484 26.7036C75.1484 28.1006 75.4182 29.3448 75.9574 30.4362C76.4966 31.5188 77.2667 32.3701 78.2669 32.9901ZM84.8304 23.8354C84.5434 23.2417 84.1347 22.7833 83.6039 22.4602C83.0731 22.1372 82.4472 21.9756 81.7249 21.9756C81.0114 21.9756 80.3897 22.1372 79.8589 22.4602C79.3372 22.7833 78.9282 23.2417 78.6324 23.8354C78.4214 24.2654 78.288 24.7543 78.2321 25.3022H85.2307C85.1748 24.7543 85.0414 24.2654 84.8304 23.8354Z" fill="#1E2939"/>
</svg>
