<svg width="32" height="32" viewBox="0 0 32 32" fill="none" xmlns="http://www.w3.org/2000/svg">
<mask id="mask0_1_1075" style="mask-type:luminance" maskUnits="userSpaceOnUse" x="0" y="0" width="32" height="32">
<path d="M32 0H0V32H32V0Z" fill="white"/>
</mask>
<g mask="url(#mask0_1_1075)">
<path d="M16 32C7.16 32 0 24.84 0 16C0 7.16 7.16 0 16 0C24.84 0 32 7.16 32 16C32 24.84 24.84 32 16 32Z" fill="#FFE01B"/>
<path d="M11.72 19.2801C11.74 19.3001 11.74 19.3401 11.72 19.3801C11.64 19.5201 11.48 19.6001 11.32 19.5801C11.02 19.5401 10.8 19.3001 10.82 19.0001C10.82 18.8001 10.86 18.6201 10.92 18.4201C11.02 18.1801 10.92 17.9201 10.72 17.7801C10.6 17.7001 10.44 17.6801 10.3 17.7001C10.16 17.7201 10.04 17.8201 9.96001 17.9401C9.90001 18.0401 9.86001 18.1401 9.84001 18.2401C9.84001 18.2601 9.82001 18.2801 9.82001 18.2801C9.78001 18.4001 9.70001 18.4401 9.64001 18.4401C9.62001 18.4401 9.58001 18.4201 9.56001 18.3601C9.50001 18.0201 9.62001 17.6801 9.84001 17.4201C10.04 17.2001 10.32 17.1001 10.62 17.1401C10.92 17.1801 11.2 17.3801 11.32 17.6601C11.46 18.0001 11.42 18.3801 11.24 18.7001C11.22 18.7201 11.22 18.7601 11.2 18.7801C11.14 18.9001 11.12 19.0601 11.2 19.1801C11.26 19.2601 11.34 19.3001 11.44 19.3001C11.48 19.3001 11.52 19.3001 11.56 19.2801C11.64 19.2401 11.7 19.2401 11.72 19.2801ZM24.94 19.6001C24.92 20.2201 24.78 20.8201 24.56 21.4001C23.44 24.1001 20.76 25.6001 17.56 25.5001C14.58 25.4201 12.04 23.8401 10.94 21.2601C10.24 21.2401 9.56001 20.9601 9.06001 20.5001C8.52001 20.0401 8.18001 19.4001 8.10001 18.7001C8.04001 18.2201 8.10001 17.7401 8.28001 17.2801L7.66001 16.7601C4.78001 14.3601 13.72 4.40008 16.56 6.90008C16.58 6.92008 17.54 7.86008 17.54 7.86008C17.54 7.86008 18.06 7.64008 18.08 7.64008C20.58 6.60008 22.62 7.10008 22.62 8.76008C22.62 9.62008 22.08 10.6201 21.2 11.5401C21.56 11.9001 21.8 12.3401 21.92 12.8201C22.02 13.1601 22.06 13.5001 22.08 13.8601C22.1 14.2201 22.12 15.0401 22.12 15.0401C22.14 15.0401 22.4 15.1201 22.48 15.1401C23 15.2601 23.46 15.4801 23.86 15.8201C24.08 16.0201 24.2 16.3001 24.26 16.5801C24.32 16.9601 24.22 17.3401 24 17.6401C24.06 17.7801 24.1 17.9001 24.16 18.0401C24.24 18.2801 24.28 18.4801 24.3 18.5001C24.52 18.5401 24.94 18.8601 24.94 19.6001ZM12.34 18.1201C12.14 16.8601 11.3 16.4201 10.72 16.3801C10.58 16.3801 10.44 16.3801 10.28 16.4201C9.26001 16.6201 8.66001 17.5001 8.78001 18.6401C8.96001 19.7001 9.82001 20.5001 10.88 20.5601C10.98 20.5601 11.08 20.5601 11.18 20.5401C12.24 20.3801 12.5 19.2401 12.34 18.1201ZM14.1 10.1201C14.98 9.40008 15.9 8.76008 16.88 8.20008C16.88 8.20008 16.1 7.30008 15.86 7.22008C14.42 6.82008 11.3 8.98008 9.30001 11.8401C8.50001 13.0001 7.34001 15.0401 7.90001 16.0801C8.10001 16.3201 8.32001 16.5201 8.56001 16.7201C8.92001 16.2001 9.48001 15.8401 10.12 15.7201C10.9 13.5401 12.28 11.6001 14.1 10.1201ZM17.22 20.1001C17.3 20.4401 17.56 20.7201 17.9 20.8001C18.08 20.8601 18.24 20.9201 18.44 20.9401C20.72 21.3401 22.86 20.0201 23.34 19.7001C23.38 19.6801 23.4 19.7001 23.38 19.7401C23.36 19.7601 23.34 19.7801 23.34 19.8001C22.76 20.5601 21.18 21.4401 19.12 21.4401C18.22 21.4401 17.32 21.1201 17 20.6401C16.48 19.8801 16.98 18.7801 17.82 18.9001C17.82 18.9001 18.12 18.9401 18.2 18.9401C19.52 19.0601 20.86 18.8601 22.08 18.3201C23.24 17.7801 23.68 17.1801 23.62 16.7001C23.6 16.5601 23.52 16.4201 23.42 16.3001C23.1 16.0401 22.72 15.8601 22.32 15.7801C22.14 15.7201 22.02 15.7001 21.88 15.6601C21.64 15.5801 21.52 15.5201 21.5 15.0601C21.48 14.8601 21.46 14.1801 21.44 13.8801C21.42 13.3801 21.36 12.7001 20.94 12.4201C20.84 12.3401 20.7 12.3001 20.58 12.3001C20.5 12.3001 20.44 12.3001 20.36 12.3201C20.14 12.3601 19.96 12.4801 19.8 12.6401C19.4 13.0001 18.88 13.1801 18.34 13.1401C18.04 13.1201 17.74 13.0801 17.38 13.0601C17.32 13.0601 17.24 13.0601 17.18 13.0401C16.22 13.0601 15.44 13.7801 15.32 14.7401C15.12 16.1601 16.14 16.8801 16.44 17.3201C16.48 17.3801 16.52 17.4401 16.52 17.5201C16.52 17.6001 16.48 17.6801 16.42 17.7201C15.6 18.6401 15.3 19.9201 15.62 21.1201C15.66 21.2601 15.7 21.4001 15.76 21.5401C16.5 23.2801 18.82 24.1001 21.08 23.3601C21.38 23.2601 21.66 23.1401 21.94 23.0001C22.44 22.7601 22.88 22.4201 23.26 22.0201C23.84 21.4401 24.22 20.6801 24.36 19.8601C24.42 19.4001 24.32 19.2401 24.2 19.1601C24.1 19.1001 24 19.0801 23.88 19.1001C23.82 18.7401 23.72 18.4001 23.58 18.0801C22.94 18.5601 22.2 18.9401 21.42 19.1601C20.48 19.4201 19.52 19.5201 18.54 19.4801C17.92 19.4201 17.5 19.2401 17.34 19.7601C18.28 20.0801 19.28 20.1801 20.28 20.0601C20.3 20.0601 20.34 20.0801 20.34 20.1001C20.34 20.1201 20.32 20.1401 20.3 20.1601C20.22 20.1401 19.06 20.6801 17.22 20.1001ZM13.84 11.8801C14.6 11.3401 15.48 10.9601 16.38 10.7601C17.42 10.5201 18.48 10.5201 19.52 10.7601C19.56 10.7601 19.58 10.7001 19.54 10.6801C19 10.4001 18.42 10.2401 17.8 10.2201C17.78 10.2201 17.76 10.2001 17.76 10.1801V10.1601C17.86 10.0401 17.96 9.92008 18.08 9.84008C18.1 9.82008 18.1 9.80008 18.08 9.80008L18.06 9.78008C17.32 9.86008 16.62 10.1001 15.98 10.5201C15.96 10.5201 15.94 10.5201 15.94 10.5201V10.5001C15.98 10.3201 16.06 10.1401 16.16 9.96008C16.16 9.94008 16.16 9.92008 16.14 9.92008H16.12C15.22 10.4201 14.42 11.0801 13.76 11.8601C13.74 11.8801 13.74 11.9001 13.76 11.9001C13.8 11.9001 13.82 11.9001 13.84 11.8801ZM19.84 16.7001C19.96 16.7801 20.14 16.7601 20.24 16.6401C20.3 16.5201 20.22 16.3801 20.06 16.3001C19.94 16.2201 19.76 16.2401 19.66 16.3601C19.6 16.4601 19.68 16.6201 19.84 16.7001ZM20.34 14.8801C20.38 15.0801 20.46 15.2801 20.58 15.4401C20.7 15.4201 20.84 15.4201 20.96 15.4401C21.04 15.2201 21.04 14.9801 20.98 14.7601C20.88 14.3401 20.76 14.1001 20.52 14.1401C20.26 14.1801 20.24 14.4801 20.34 14.8801ZM20.88 15.8401C20.72 15.8001 20.54 15.8801 20.48 16.0601C20.44 16.2201 20.52 16.4001 20.7 16.4601C20.88 16.5201 21.04 16.4201 21.1 16.2401C21.1 16.2201 21.12 16.1801 21.12 16.1601C21.12 16.0001 21.02 15.8601 20.88 15.8401Z" fill="black"/>
<path d="M16.66 15.8001C16.62 15.8001 16.6 15.7801 16.6 15.7601C16.58 15.6801 16.7 15.5801 16.8 15.4801C17.14 15.2201 17.6 15.1801 17.98 15.3401C18.16 15.4201 18.32 15.5401 18.42 15.7001C18.46 15.7601 18.46 15.8201 18.44 15.8401C18.4 15.8801 18.3 15.8401 18.12 15.7601C17.92 15.6601 17.68 15.6001 17.46 15.6201C17.2 15.6601 16.92 15.7201 16.66 15.8001ZM18.38 16.1601C18.22 16.0001 18 15.9201 17.8 15.9601C17.64 15.9801 17.5 16.0401 17.38 16.1401C17.32 16.1801 17.28 16.2401 17.28 16.3201C17.28 16.3401 17.28 16.3601 17.3 16.3601C17.32 16.3601 17.32 16.3801 17.34 16.3801C17.4 16.3801 17.46 16.3601 17.5 16.3401C17.74 16.2601 17.98 16.2201 18.22 16.2601C18.34 16.2801 18.38 16.2801 18.42 16.2401C18.4 16.2001 18.4 16.1801 18.38 16.1601Z" fill="black"/>
</g>
</svg>
