<svg width="112" height="48" viewBox="0 0 112 48" fill="none" xmlns="http://www.w3.org/2000/svg">
<path d="M102.259 20.9338H105.094V22.3126C105.417 21.8336 105.851 21.4581 106.395 21.1863C106.939 20.9144 107.541 20.7784 108.201 20.7784C108.939 20.7784 109.586 20.9338 110.143 21.2445C110.7 21.5423 111.133 21.9695 111.444 22.5262C111.755 23.0699 111.91 23.7043 111.91 24.4293V31.0125H109.055V25.1672C109.055 24.5976 108.893 24.1445 108.57 23.8079C108.259 23.4713 107.838 23.303 107.308 23.303C106.829 23.303 106.427 23.4324 106.104 23.6913C105.78 23.9373 105.527 24.3063 105.346 24.7983C105.178 25.2902 105.094 25.8857 105.094 26.5848V31.0125H102.259V20.9338Z" fill="#1E2939"/>
<path d="M97.4984 20.934H100.334V31.0127H97.4984V20.934ZM97.4207 16.8948H100.45V19.6717H97.4207V16.8948Z" fill="#1E2939"/>
<path d="M91.2186 31.1678C90.623 31.1678 90.0793 31.0577 89.5873 30.8376C89.1084 30.6175 88.7459 30.3327 88.4999 29.9832V31.0124H85.6647V16.8557H88.4999V21.9242C88.7977 21.5746 89.1861 21.2963 89.665 21.0891C90.1441 20.882 90.6748 20.7784 91.2575 20.7784C92.2155 20.7784 93.0505 20.992 93.7627 21.4193C94.4876 21.8465 95.0442 22.455 95.4326 23.2447C95.8341 24.0215 96.0346 24.9277 96.0346 25.9634C96.0346 27.012 95.8341 27.9312 95.4326 28.7209C95.0442 29.4977 94.4876 30.0997 93.7627 30.5269C93.0377 30.9542 92.1896 31.1678 91.2186 31.1678ZM90.7525 28.7403C91.2316 28.7403 91.6523 28.6238 92.0148 28.3908C92.3773 28.1578 92.6557 27.8341 92.8498 27.4198C93.0441 26.9926 93.1412 26.5071 93.1412 25.9634C93.1412 25.1348 92.921 24.4681 92.4809 23.9632C92.0407 23.4583 91.4646 23.2058 90.7525 23.2058C90.2736 23.2058 89.8529 23.3224 89.4904 23.5554C89.1279 23.7884 88.8431 24.1121 88.6359 24.5264C88.4416 24.9406 88.3445 25.4196 88.3445 25.9634C88.3445 26.5201 88.4416 27.0055 88.6359 27.4198C88.8431 27.8341 89.1279 28.1578 89.4904 28.3908C89.8529 28.6238 90.2736 28.7403 90.7525 28.7403Z" fill="#1E2939"/>
<path d="M79.6547 31.1678C79.0591 31.1678 78.5154 31.0577 78.0234 30.8376C77.5445 30.6175 77.182 30.3327 76.936 29.9832V31.0124H74.1008V16.8557H76.936V21.9242C77.2338 21.5746 77.6222 21.2963 78.1011 21.0891C78.5802 20.882 79.1109 20.7784 79.6936 20.7784C80.6516 20.7784 81.4866 20.992 82.1985 21.4193C82.9235 21.8465 83.4803 22.455 83.8687 23.2447C84.27 24.0215 84.4707 24.9277 84.4707 25.9634C84.4707 27.012 84.27 27.9312 83.8687 28.7209C83.4803 29.4977 82.9235 30.0997 82.1985 30.5269C81.4736 30.9542 80.6257 31.1678 79.6547 31.1678ZM79.1886 28.7403C79.6677 28.7403 80.0884 28.6238 80.4509 28.3908C80.8134 28.1578 81.0918 27.8341 81.2859 27.4198C81.4802 26.9926 81.5771 26.5071 81.5771 25.9634C81.5771 25.1348 81.3571 24.4681 80.917 23.9632C80.4768 23.4583 79.9007 23.2058 79.1886 23.2058C78.7097 23.2058 78.2888 23.3224 77.9263 23.5554C77.5638 23.7884 77.279 24.1121 77.0718 24.5264C76.8777 24.9406 76.7806 25.4196 76.7806 25.9634C76.7806 26.5201 76.8777 27.0055 77.0718 27.4198C77.279 27.8341 77.5638 28.1578 77.9263 28.3908C78.2888 28.6238 78.7097 28.7403 79.1886 28.7403Z" fill="#1E2939"/>
<path d="M67.6925 31.1678C66.6827 31.1678 65.7765 30.9412 64.9738 30.4881C64.1842 30.035 63.5692 29.4136 63.129 28.6239C62.6889 27.8341 62.4689 26.9473 62.4689 25.9634C62.4689 24.9795 62.6889 24.0927 63.129 23.303C63.5822 22.5132 64.2037 21.8983 64.9933 21.4581C65.7831 21.005 66.6827 20.7784 67.6925 20.7784C68.6895 20.7784 69.5827 21.005 70.3725 21.4581C71.1752 21.9112 71.803 22.5327 72.2562 23.3224C72.7092 24.0992 72.9359 24.9795 72.9359 25.9634C72.9359 26.9473 72.7092 27.8341 72.2562 28.6239C71.803 29.4136 71.1752 30.035 70.3725 30.4881C69.5827 30.9412 68.6895 31.1678 67.6925 31.1678ZM67.6925 28.7404C68.1586 28.7404 68.5664 28.6239 68.9161 28.3908C69.2786 28.1578 69.5568 27.8341 69.7511 27.4199C69.9452 26.9926 70.0423 26.5072 70.0423 25.9634C70.0423 25.4326 69.9452 24.9601 69.7511 24.5458C69.5568 24.1186 69.2786 23.7885 68.9161 23.5554C68.5536 23.3224 68.1457 23.2059 67.6925 23.2059C67.2265 23.2059 66.8122 23.3224 66.4497 23.5554C66.1002 23.7885 65.8283 24.1186 65.6342 24.5458C65.4399 24.9601 65.3429 25.4326 65.3429 25.9634C65.3429 26.5072 65.4399 26.9926 65.6342 27.4199C65.8283 27.8341 66.1002 28.1578 66.4497 28.3908C66.7993 28.6239 67.2136 28.7404 67.6925 28.7404Z" fill="#1E2939"/>
<path d="M44.7723 17.0111H48.8894L52.0934 25.5751C52.4559 26.559 52.7407 27.4652 52.9479 28.2938C53.1681 27.4652 53.4529 26.559 53.8023 25.5751L56.9871 17.0111H60.9876V31.0125H58.0358V24.2739C58.0358 23.2253 58.0551 22.2673 58.0941 21.3999C57.8221 22.2673 57.518 23.1735 57.1814 24.1186L54.5986 31.0125H51.1808L48.5785 24.1186C48.216 23.1347 47.9183 22.2284 47.6853 21.3999C47.7242 22.2673 47.7435 23.2253 47.7435 24.2739V31.0125H44.7723V17.0111Z" fill="#1E2939"/>
<path d="M36.6818 23.4247H27.4757V32.6309H36.6818V23.4247Z" fill="#1E2939"/>
<path d="M0 32.6307V24.5255L9.15638 15.3691H17.2616V23.4744L8.10523 32.6307H0Z" fill="#1E2939"/>
<path d="M13.8091 32.6307V24.5255L22.9654 15.3691H31.0708V23.4744L21.9143 32.6307H13.8091Z" fill="#1E2939"/>
</svg>
