<svg width="32" height="32" viewBox="0 0 32 32" fill="none" xmlns="http://www.w3.org/2000/svg">
<path d="M31.8909 15.3265C31.9265 16.203 31.8263 17.0763 31.5938 17.9193C31.3646 18.7623 31.0028 19.5584 30.5248 20.2804C30.0499 21.003 29.4653 21.6405 28.7937 22.168L28.7776 22.1814L22.3215 27.2127L19.1468 29.7148L17.2122 31.2329C17.0991 31.3236 16.9732 31.3907 16.8408 31.4377C16.7084 31.4848 16.5663 31.5083 16.4241 31.5083C16.2853 31.5083 16.1432 31.4848 16.0108 31.4377C15.8783 31.3907 15.7524 31.3236 15.6394 31.2329L13.7048 29.7148L10.53 27.2127L4.11272 22.2117L4.07397 22.1848L4.06105 22.1713C3.38605 21.644 2.80149 21.0059 2.3235 20.2838C1.84551 19.5617 1.48379 18.7623 1.25125 17.9193C1.01872 17.0763 0.918603 16.1997 0.954129 15.3231C0.992888 14.4465 1.16406 13.5834 1.46441 12.7638L1.5064 12.6463L5.72755 1.21019C5.74909 1.15421 5.77492 1.10047 5.80507 1.04897C5.83305 0.997474 5.86643 0.949333 5.90518 0.904551C5.94179 0.857531 5.98162 0.813869 6.02468 0.773566C6.06774 0.735501 6.11296 0.699676 6.16033 0.666089C6.26045 0.602276 6.3638 0.555255 6.47684 0.528386C6.58664 0.498159 6.70291 0.484724 6.81595 0.491441C6.93221 0.498159 7.04525 0.521669 7.15183 0.565331C7.25841 0.605635 7.36175 0.666089 7.45219 0.739979C7.49525 0.778044 7.53724 0.818347 7.57814 0.86089C7.6169 0.905671 7.65135 0.953811 7.68149 1.00531C7.71379 1.05457 7.74178 1.10719 7.76547 1.16317C7.78914 1.2169 7.80852 1.27288 7.8236 1.3311L10.6689 10.3893H22.1859L25.0312 1.3311C25.0462 1.27288 25.0667 1.2169 25.0926 1.16317C25.1162 1.10943 25.1442 1.05681 25.1765 1.00531C25.2067 0.95605 25.2411 0.90903 25.2799 0.864248C25.3186 0.819466 25.3606 0.778044 25.4058 0.739979C25.4962 0.666089 25.5963 0.608993 25.703 0.565331C25.8127 0.525027 25.9258 0.501517 26.0388 0.4948C26.1551 0.488083 26.2681 0.498159 26.3812 0.528386C26.491 0.558614 26.5975 0.605635 26.6944 0.669448C26.7439 0.700796 26.7903 0.73662 26.8334 0.776924C26.8764 0.814988 26.9162 0.857531 26.9528 0.904551C26.9894 0.951572 27.0228 1.00083 27.0529 1.05233C27.0809 1.10383 27.1056 1.15757 27.1272 1.21354L31.3419 12.653L31.3839 12.7706C31.6843 13.5867 31.8554 14.4499 31.8909 15.3265Z" fill="#E24329"/>
<path d="M31.8942 15.3299C31.9297 16.2031 31.8296 17.0797 31.5971 17.9228C31.3646 18.7659 31.0029 19.5652 30.5248 20.2873C30.0468 21.0093 29.4623 21.6475 28.7905 22.1748L28.7744 22.1882L22.3183 27.2195C22.3183 27.2195 19.5763 25.0666 16.4241 22.5845L25.6771 15.3031C26.0938 14.9772 26.5297 14.6784 26.9787 14.403C27.4276 14.1242 27.8927 13.8757 28.3674 13.654C28.8454 13.4323 29.3331 13.2341 29.8272 13.0696C30.3246 12.9017 30.8284 12.7639 31.342 12.6531L31.384 12.7707C31.6843 13.5902 31.8554 14.4533 31.8942 15.3299Z" fill="#FC6D26"/>
<path d="M16.4241 22.5845C19.5763 25.0598 22.3215 27.2194 22.3215 27.2194L19.1468 29.7215L17.2122 31.2397C17.0991 31.3304 16.9732 31.3976 16.8408 31.4446C16.7084 31.4916 16.5663 31.5151 16.4241 31.5151C16.2853 31.5151 16.1432 31.4916 16.0108 31.4446C15.8784 31.3976 15.7524 31.3304 15.6394 31.2397L13.7048 29.7215L10.53 27.2194C10.53 27.2194 13.272 25.0598 16.4241 22.5845Z" fill="#FC6D26"/>
<path d="M16.4241 22.5779C13.2687 25.06 10.53 27.2129 10.53 27.2129L4.11272 22.2119L4.07397 22.185L4.06105 22.1715C3.38605 21.6442 2.80149 21.0061 2.3235 20.284C1.84551 19.5619 1.48379 18.7626 1.25125 17.9195C1.01872 17.0765 0.918603 16.1999 0.954129 15.3233C0.992888 14.4467 1.16406 13.5836 1.46441 12.764L1.5064 12.6465C2.01991 12.7573 2.52374 12.895 3.02111 13.063C3.51524 13.2309 4.00292 13.4257 4.48091 13.6507C4.95566 13.8724 5.42074 14.1243 5.86966 14.3997C6.31858 14.6751 6.75135 14.9773 7.17121 15.3032L16.4241 22.5779Z" fill="#FC6D26"/>
</svg>
