<svg width="32" height="32" viewBox="0 0 32 32" fill="none" xmlns="http://www.w3.org/2000/svg">
<path d="M16 6.66657C16.0016 6.13328 15.8965 5.60506 15.6909 5.11297C15.4854 4.62089 15.1835 4.17487 14.803 3.80117C14.4226 3.42746 13.9712 3.1336 13.4755 2.93688C12.9799 2.74016 12.4498 2.64454 11.9167 2.65565C11.3835 2.66677 10.8579 2.78439 10.3708 3.00159C9.88379 3.2188 9.44509 3.53121 9.08053 3.92044C8.71598 4.30968 8.43294 4.76788 8.24807 5.26811C8.06319 5.76833 7.98021 6.30047 8.004 6.83324C7.22027 7.03475 6.49267 7.41197 5.87631 7.93632C5.25994 8.46067 4.77098 9.1184 4.44646 9.8597C4.12193 10.601 3.97034 11.4064 4.00318 12.215C4.03602 13.0235 4.25242 13.814 4.636 14.5266C3.96157 15.0745 3.43123 15.7789 3.09112 16.5785C2.751 17.3781 2.61141 18.2487 2.68448 19.1146C2.75756 19.9804 3.04109 20.8153 3.5104 21.5466C3.97972 22.2779 4.62062 22.8834 5.37733 23.3106C5.28389 24.0336 5.33965 24.768 5.54118 25.4686C5.74271 26.1692 6.08573 26.821 6.54904 27.3838C7.01236 27.9467 7.58614 28.4085 8.23496 28.7409C8.88377 29.0733 9.59383 29.2691 10.3213 29.3164C11.0488 29.3636 11.7782 29.2611 12.4645 29.0154C13.1508 28.7696 13.7795 28.3858 14.3117 27.8876C14.8439 27.3894 15.2682 26.7873 15.5586 26.1187C15.849 25.45 15.9992 24.7289 16 23.9999V6.66657Z" stroke="#155DFC" stroke-width="2" stroke-linecap="round" stroke-linejoin="round"/>
<path d="M12 17.3333C13.1194 16.9395 14.0969 16.2227 14.8089 15.2733C15.5209 14.324 15.9354 13.1849 16 12" stroke="#155DFC" stroke-width="2" stroke-linecap="round" stroke-linejoin="round"/>
<path d="M8.004 6.83325C8.03036 7.47823 8.21244 8.10725 8.53466 8.66659" stroke="#155DFC" stroke-width="2" stroke-linecap="round" stroke-linejoin="round"/>
<path d="M4.636 14.528C4.87992 14.3293 5.14094 14.1527 5.416 14" stroke="#155DFC" stroke-width="2" stroke-linecap="round" stroke-linejoin="round"/>
<path d="M8 24C7.08111 24.0004 6.17769 23.7634 5.37733 23.312" stroke="#155DFC" stroke-width="2" stroke-linecap="round" stroke-linejoin="round"/>
<path d="M16 17.3333H21.3333" stroke="#155DFC" stroke-width="2" stroke-linecap="round" stroke-linejoin="round"/>
<path d="M16 24H24C24.7072 24 25.3855 24.281 25.8856 24.781C26.3857 25.2811 26.6667 25.9594 26.6667 26.6667V28" stroke="#155DFC" stroke-width="2" stroke-linecap="round" stroke-linejoin="round"/>
<path d="M16 10.6667H26.6667" stroke="#155DFC" stroke-width="2" stroke-linecap="round" stroke-linejoin="round"/>
<path d="M21.3333 10.6667V6.66667C21.3333 5.95942 21.6143 5.28115 22.1144 4.78105C22.6145 4.28095 23.2928 4 24 4" stroke="#155DFC" stroke-width="2" stroke-linecap="round" stroke-linejoin="round"/>
<path d="M21.3333 18.0001C21.7015 18.0001 22 17.7016 22 17.3334C22 16.9652 21.7015 16.6667 21.3333 16.6667C20.9651 16.6667 20.6667 16.9652 20.6667 17.3334C20.6667 17.7016 20.9651 18.0001 21.3333 18.0001Z" stroke="#155DFC" stroke-width="2" stroke-linecap="round" stroke-linejoin="round"/>
<path d="M24 4.66659C24.3682 4.66659 24.6667 4.36811 24.6667 3.99992C24.6667 3.63173 24.3682 3.33325 24 3.33325C23.6318 3.33325 23.3333 3.63173 23.3333 3.99992C23.3333 4.36811 23.6318 4.66659 24 4.66659Z" stroke="#155DFC" stroke-width="2" stroke-linecap="round" stroke-linejoin="round"/>
<path d="M26.6667 28.6666C27.0349 28.6666 27.3333 28.3681 27.3333 27.9999C27.3333 27.6317 27.0349 27.3333 26.6667 27.3333C26.2985 27.3333 26 27.6317 26 27.9999C26 28.3681 26.2985 28.6666 26.6667 28.6666Z" stroke="#155DFC" stroke-width="2" stroke-linecap="round" stroke-linejoin="round"/>
<path d="M26.6667 11.3333C27.0349 11.3333 27.3333 11.0349 27.3333 10.6667C27.3333 10.2985 27.0349 10 26.6667 10C26.2985 10 26 10.2985 26 10.6667C26 11.0349 26.2985 11.3333 26.6667 11.3333Z" stroke="#155DFC" stroke-width="2" stroke-linecap="round" stroke-linejoin="round"/>
</svg>
