<svg width="112" height="48" viewBox="0 0 112 48" fill="none" xmlns="http://www.w3.org/2000/svg">
<path d="M14.5319 11.1915H11.0808C4.96291 11.199 0.00534222 16.147 0 22.2521C0.0074791 28.3561 4.96398 33.3019 11.0808 33.3094H14.5447C20.6626 33.3041 25.6213 28.3572 25.6288 22.2521C25.6224 16.1406 20.6562 11.1905 14.5319 11.1915ZM1.37188 22.2521C1.37188 16.9045 5.7151 12.5709 11.0733 12.5709C11.6151 12.5709 12.1568 12.6147 12.691 12.7044C17.3665 13.4759 20.7898 17.5178 20.7727 22.2467C20.7674 25.2822 18.5717 27.8721 15.5726 28.3796C17.5353 26.95 18.6946 24.671 18.6924 22.2467C18.6988 18.7775 16.3472 15.7463 12.9795 14.8841C12.3565 14.7227 11.7166 14.6426 11.0733 14.6426C6.87224 14.6554 3.47352 18.0552 3.46923 22.2467C3.45857 26.0451 5.4074 29.5805 8.62662 31.6063C4.3646 30.4898 1.38898 26.6498 1.37936 22.2521H1.37188ZM12.801 16.2784C15.4689 17.0445 17.3056 19.4816 17.3035 22.2521C17.3045 25.0215 15.4679 27.4565 12.801 28.2225C10.1342 27.4565 8.2986 25.0215 8.2986 22.2521C8.29646 19.4816 10.1331 17.0445 12.801 16.2784ZM14.5319 31.9279H14.4924C13.9656 31.9247 13.4389 31.8809 12.9185 31.7943C8.367 31.0411 4.98537 27.1787 4.84859 22.5769V22.2521C4.8518 19.2156 7.04852 16.6246 10.0477 16.1181C8.08491 17.5477 6.92458 19.8267 6.92458 22.2521C6.92032 25.7202 9.27196 28.7503 12.6386 29.6126C13.2605 29.7739 13.9015 29.8551 14.5447 29.853C18.7501 29.8487 22.1585 26.4489 22.1649 22.2521C22.1766 18.4537 20.2278 14.9172 17.0064 12.8925C21.2684 14.0112 24.2398 17.8543 24.2409 22.2521C24.2398 24.8195 23.2162 27.2823 21.3945 29.0965C19.5739 30.9118 17.1047 31.93 14.5319 31.9279Z" fill="#1E2939"/>
<path d="M47.8139 31.3808H32.032V29.604C33.9777 29.277 34.3602 28.5943 34.3602 27.9372V16.8093C34.3602 15.5528 33.9777 15.0325 32.032 14.8968V13.12H41.9514V14.8968C40.0057 15.0325 39.6221 15.5528 39.6221 16.8093V28.5836C39.6221 29.2386 39.8133 29.7044 41.4579 29.7044H43.2388C44.2507 29.7044 45.4571 29.2118 46.3063 26.5322H48.0864L47.8139 31.3808ZM49.2383 24.6827C49.2383 20.2551 52.4446 16.9739 56.9907 16.9739C61.787 16.9739 64.5534 20.2006 64.5534 24.1356C64.5534 28.5398 61.2944 31.7654 56.8284 31.7654C51.9519 31.7654 49.2383 28.621 49.2383 24.6827ZM59.4035 25.6956C59.4035 21.3492 57.8956 18.7507 56.417 18.7507C55.0194 18.7507 54.4457 20.5008 54.4457 23.0159C54.4457 27.4457 55.9788 29.9886 57.4289 29.9886C58.803 29.9886 59.4035 28.2652 59.4035 25.6956ZM66.2522 24.6827C66.2522 20.2551 69.4596 16.9739 74.0058 16.9739C78.8021 16.9739 81.5681 20.2006 81.5681 24.1356C81.5681 28.5398 78.3094 31.7654 73.8413 31.7654C68.9661 31.7654 66.2522 28.621 66.2522 24.6827ZM76.4182 25.6956C76.4182 21.3492 74.9107 18.7507 73.4321 18.7507C72.0344 18.7507 71.4575 20.5008 71.4575 23.0159C71.4575 27.4457 72.9939 29.9886 74.4439 29.9886C75.8156 29.9886 76.4182 28.2652 76.4182 25.6956ZM98.4808 23.9188C98.4808 28.7022 95.5777 31.7686 91.3851 31.7686C90.5401 31.7836 89.7001 31.6254 88.9181 31.3028V33.3253C88.9181 34.3382 89.3295 34.7485 91.1939 35.021V36.8085H82.2339V35.0317C83.658 34.7047 83.8236 34.3478 83.8236 33.336V21.2989C83.8236 20.5874 83.577 20.1771 82.6718 19.7689L82.2339 19.5777V18.1545L87.8217 16.9792H88.9181V18.7304C89.622 17.616 90.8606 16.9514 92.1799 16.9792C96.535 16.9739 98.4808 20.3234 98.4808 23.9188ZM93.2206 24.9028C93.2206 22.0586 92.4342 19.599 90.5356 19.599C89.7129 19.599 89.5761 19.5435 88.9181 20.036V25.53C88.9181 28.7855 89.4427 29.7429 90.8636 29.7429C92.1798 29.7429 93.2206 28.1284 93.2206 24.9028ZM111.723 18.5862L109.202 22.0319C107.996 19.6247 106.842 18.615 105.477 18.615C104.653 18.615 103.586 19.1065 103.586 19.9548C103.586 22.8332 112.16 20.9645 111.998 27.31C111.914 29.604 109.695 31.7579 105.859 31.7579C102.516 31.7579 99.7232 30.089 99.0416 29.4864L102.002 26.3986C103.646 28.9682 104.988 30.1168 106.303 30.1168C106.986 30.1168 108.193 29.8166 108.222 28.4767C108.222 25.3868 99.7553 27.8752 99.781 21.674C99.781 18.7486 102.22 16.9632 106.111 16.9632C109.173 16.9739 111.148 18.0391 111.723 18.5862Z" fill="#1E2939"/>
</svg>
