<svg width="32" height="32" viewBox="0 0 32 32" fill="none" xmlns="http://www.w3.org/2000/svg">
<path d="M26.6298 6.57826C26.6085 6.42311 26.4725 6.33724 26.3603 6.32779C26.2482 6.31843 23.8754 6.14256 23.8754 6.14256C23.8754 6.14256 22.2275 4.50656 22.0466 4.32548C21.8656 4.14451 21.5122 4.19956 21.3749 4.23993C21.3548 4.24589 21.0149 4.35077 20.4528 4.52473C19.9024 2.94071 18.9308 1.48504 17.2217 1.48504C17.1745 1.48504 17.1259 1.48696 17.0773 1.48972C16.5913 0.8469 15.9892 0.567627 15.4691 0.567627C11.4878 0.567627 9.5857 5.5447 8.98933 8.07387C7.44227 8.55325 6.34325 8.89405 6.20286 8.93816C5.33933 9.20903 5.31202 9.23624 5.19864 10.0499C5.1133 10.666 2.85382 28.1395 2.85382 28.1395L20.4601 31.4383L29.9998 29.3745C29.9998 29.3745 26.6509 6.73341 26.6298 6.57826ZM19.4797 4.82569L17.9899 5.28678C17.9904 5.18179 17.991 5.0785 17.991 4.96554C17.991 3.98106 17.8544 3.18841 17.6351 2.56005C18.5157 2.67057 19.1023 3.67257 19.4797 4.82569ZM16.5427 2.75526C16.7875 3.36875 16.9467 4.24919 16.9467 5.43726C16.9467 5.49805 16.9461 5.55362 16.9457 5.60984C15.9767 5.90994 14.9239 6.23576 13.8688 6.56264C14.4613 4.27617 15.5718 3.17183 16.5427 2.75526ZM15.3598 1.63551C15.5316 1.63551 15.7047 1.69386 15.8704 1.80789C14.5944 2.40829 13.2268 3.9205 12.6492 6.94032L10.2171 7.69355C10.8937 5.39018 12.5001 1.63551 15.3598 1.63551Z" fill="#95BF46"/>
<path d="M26.3602 6.32783C26.2481 6.31848 23.8754 6.14261 23.8754 6.14261C23.8754 6.14261 22.2275 4.50661 22.0466 4.32553C21.979 4.25816 21.8876 4.22362 21.7922 4.20874L20.461 31.4381L29.9998 29.3746C29.9998 29.3746 26.6509 6.73345 26.6298 6.5783C26.6085 6.42315 26.4726 6.33729 26.3602 6.32783Z" fill="#5E8E3E"/>
<path d="M17.2217 11.5989L16.0455 15.0979C16.0455 15.0979 15.0149 14.5479 13.7516 14.5479C11.8995 14.5479 11.8064 15.7101 11.8064 16.003C11.8064 17.6011 15.972 18.2133 15.972 21.9566C15.972 24.9015 14.1042 26.7979 11.5856 26.7979C8.56332 26.7979 7.01776 24.9169 7.01776 24.9169L7.82699 22.2433C7.82699 22.2433 9.41571 23.6072 10.7563 23.6072C11.6322 23.6072 11.9886 22.9175 11.9886 22.4136C11.9886 20.329 8.57097 20.236 8.57097 16.8108C8.57097 13.9278 10.6402 11.1379 14.8172 11.1379C16.4267 11.1379 17.2217 11.5989 17.2217 11.5989Z" fill="white"/>
</svg>
