<svg width="112" height="48" viewBox="0 0 112 48" fill="none" xmlns="http://www.w3.org/2000/svg">
<path d="M18.2941 30.7421H18.6056V36.4444H17.6727C11.6149 36.4444 8.1099 32.989 8.1099 27.3477V24.4468L10.0783 23.9518C10.6548 23.8058 11.1787 23.5008 11.5905 23.0714C12.0023 22.642 12.2854 22.1056 12.4077 21.523C12.5299 20.9406 12.4863 20.3354 12.2817 19.7764C12.0772 19.2176 11.72 18.7273 11.2509 18.3616C10.7817 17.9959 10.2193 17.7693 9.62795 17.7078C9.03643 17.6463 8.43971 17.7522 7.90535 18.0135C7.37113 18.2749 6.92091 18.681 6.60589 19.1859C6.29084 19.6908 6.12382 20.274 6.12371 20.8692V33.2976H4.23671e-06V20.6539C-0.00036857 20.2734 0.0238635 19.8933 0.0722041 19.5159C0.643841 15.0287 4.55831 11.5555 9.30274 11.5555C13.6042 11.5555 17.2248 14.4115 18.2941 18.2913C18.8499 20.3233 18.6696 22.4868 17.7851 24.3986C17.0356 26.012 15.8342 27.3726 14.3267 28.3153C14.8324 30.3677 15.9083 30.747 18.2941 30.747" fill="#1E2939"/>
<path d="M33.4599 19.7844V23.2687H32.8898C31.6922 23.2687 30.7575 23.5982 30.0866 24.2572C29.4155 24.9162 29.0809 25.8113 29.083 26.9427V33.2253H25.7113V19.9997H29.083V21.7098C30.0956 20.424 31.3658 19.7811 32.893 19.7811L33.4599 19.7844Z" fill="#1E2939"/>
<path d="M47.9438 27.8332H37.7113C37.922 28.6323 38.4004 29.3347 39.0666 29.8229C39.7747 30.3261 40.6276 30.5839 41.4958 30.5574C42.2266 30.5656 42.9498 30.4074 43.6105 30.0945C44.2 29.8264 44.7198 29.4254 45.1293 28.9229L47.3771 30.8997C46.6704 31.7404 45.7805 32.4078 44.776 32.8508C43.7095 33.321 42.5551 33.5573 41.3899 33.5435C40.0804 33.5628 38.787 33.2492 37.6311 32.6322C36.5392 32.0529 35.6281 31.1824 34.9996 30.117C34.3822 29.0448 34.0546 27.8301 34.0491 26.5926C34.0436 25.3552 34.36 24.1376 34.9674 23.0598C35.5685 22.0183 36.444 21.1621 37.498 20.5848C38.5919 19.9803 39.8239 19.6702 41.0736 19.6848C43.056 19.6848 44.7103 20.3453 46.0363 21.6664C47.3627 22.9875 48.0269 24.644 48.0289 26.6359C48.0274 27.0364 47.9988 27.4364 47.9438 27.8332ZM43.1912 23.3797C42.5802 22.8998 41.8261 22.6389 41.0496 22.6389C40.2728 22.6389 39.5186 22.8998 38.9077 23.3797C38.291 23.8871 37.8592 24.5843 37.6794 25.363H44.4229C44.2435 24.5839 43.8108 23.8862 43.1929 23.3797H43.1912Z" fill="#1E2939"/>
<path d="M69.6366 21.0268C70.5389 21.9214 70.9901 23.1188 70.9901 24.6188V33.2334H67.6182V25.6202C67.6182 24.808 67.3838 24.1598 66.915 23.6755C66.4462 23.1911 65.8196 22.9479 65.035 22.9458C64.2085 22.9458 63.5379 23.1954 63.0231 23.6948C62.5082 24.1941 62.2509 24.8529 62.2509 25.6716V33.2254H58.8791V25.6202C58.8791 24.8176 58.6409 24.1716 58.1645 23.6818C57.6882 23.1922 57.0515 22.9469 56.2539 22.9458C55.8869 22.9312 55.5208 22.9907 55.1773 23.1204C54.8335 23.2501 54.5195 23.4476 54.2535 23.7012C53.9956 23.9585 53.7942 24.2664 53.6617 24.6055C53.5291 24.9446 53.468 25.3076 53.4825 25.6716V33.2254H50.1173V19.9981H53.4892V21.3643C54.4836 20.2403 55.7868 19.6789 57.3988 19.68C58.2513 19.6629 59.0953 19.8566 59.8552 20.2441C60.5573 20.608 61.146 21.1578 61.5572 21.8336C62.6489 20.3979 64.1474 19.68 66.0529 19.68C67.5482 19.6832 68.7426 20.1321 69.6366 21.0268Z" fill="#1E2939"/>
<path d="M87.1334 26.615C87.1334 28.5823 86.4542 30.2291 85.0957 31.5555C83.7375 32.882 82.0494 33.5436 80.0317 33.5404C78.0151 33.5404 76.3256 32.8777 74.9627 31.5523C73.6002 30.227 72.9178 28.58 72.9158 26.6119C72.9158 24.6445 73.5982 22.9973 74.9627 21.6697C76.3276 20.3421 78.0171 19.6794 80.0317 19.6816C82.0483 19.6816 83.7364 20.3442 85.0957 21.6697C86.455 22.9951 87.1343 24.6436 87.1334 26.615ZM82.6378 29.2299C83.2959 28.5184 83.662 27.5841 83.662 26.6142C83.662 25.6443 83.2959 24.71 82.6378 23.9985C82.2974 23.6574 81.8934 23.3866 81.4486 23.2019C81.0038 23.0173 80.5268 22.9222 80.0453 22.9222C79.564 22.9222 79.0871 23.0173 78.6422 23.2019C78.1974 23.3866 77.7934 23.6574 77.4531 23.9985C76.7871 24.7037 76.4158 25.6374 76.4158 26.6078C76.4158 27.5783 76.7871 28.5119 77.4531 29.217C78.1476 29.8901 79.0763 30.2663 80.043 30.2663C81.0096 30.2663 81.9383 29.8901 82.6329 29.217L82.6378 29.2299Z" fill="#1E2939"/>
<path d="M93.2914 23.0791V28.579C93.2914 29.7104 93.8989 30.2761 95.1135 30.2761C95.7166 30.2539 96.3079 30.1026 96.8476 29.8326V32.9762C96.0859 33.3703 95.2371 33.566 94.3799 33.5451C92.9027 33.5451 91.7905 33.1508 91.0433 32.3622C90.2963 31.5736 89.9216 30.4947 89.9195 29.1254V23.0823H87.8179V19.9997H89.9195V17.7963L93.2914 16.6423V19.9997H96.8476V23.0791H93.2914Z" fill="#1E2939"/>
<path d="M111.771 27.8332H101.53C101.741 28.6322 102.219 29.3346 102.885 29.8229C103.594 30.3263 104.447 30.5841 105.315 30.5573C106.045 30.5659 106.768 30.4075 107.428 30.0945C108.018 29.8267 108.539 29.4257 108.949 28.9228L111.195 30.8996C110.49 31.7403 109.6 32.4078 108.595 32.8508C107.528 33.322 106.374 33.5594 105.209 33.5467C103.899 33.5661 102.606 33.2526 101.45 32.6354C100.358 32.0556 99.4467 31.1852 98.8169 30.1202C98.2002 29.0477 97.8732 27.8331 97.868 26.5956C97.8625 25.3583 98.1791 24.1408 98.7866 23.063C99.3874 22.021 100.263 21.1643 101.317 20.5864C102.411 19.9819 103.643 19.6718 104.892 19.6863C106.875 19.6863 108.529 20.3474 109.853 21.6696C111.179 22.9918 111.842 24.6493 111.842 26.6422C111.844 27.0404 111.821 27.4382 111.771 27.8332ZM107.022 23.3797C106.412 22.8998 105.658 22.6389 104.881 22.6389C104.105 22.6389 103.35 22.8998 102.739 23.3797C102.123 23.8871 101.691 24.5843 101.511 25.3629H108.254C108.074 24.5817 107.638 23.883 107.016 23.3764L107.022 23.3797Z" fill="#1E2939"/>
</svg>
