<svg width="32" height="32" viewBox="0 0 32 32" fill="none" xmlns="http://www.w3.org/2000/svg">
<path d="M5.33333 18.6666C5.08102 18.6674 4.83364 18.5967 4.61994 18.4625C4.40623 18.3284 4.23498 18.1364 4.12607 17.9088C4.01715 17.6812 3.97506 17.4273 4.00467 17.1768C4.03427 16.9262 4.13437 16.6892 4.29333 16.4932L17.4933 2.89323C17.5923 2.77893 17.7273 2.7017 17.876 2.6742C18.0247 2.6467 18.1783 2.67058 18.3116 2.7419C18.445 2.81322 18.5501 2.92775 18.6098 3.0667C18.6694 3.20565 18.6801 3.36076 18.64 3.50656L16.08 11.5332C16.0045 11.7353 15.9792 11.9526 16.0061 12.1666C16.0331 12.3806 16.1115 12.5848 16.2348 12.7618C16.358 12.9388 16.5224 13.0832 16.7137 13.1828C16.905 13.2823 17.1177 13.3339 17.3333 13.3332H26.6667C26.919 13.3324 27.1664 13.4031 27.3801 13.5373C27.5938 13.6714 27.765 13.8634 27.8739 14.091C27.9828 14.3186 28.0249 14.5724 27.9953 14.823C27.9657 15.0736 27.8656 15.3106 27.7067 15.5066L14.5067 29.1066C14.4077 29.2208 14.2727 29.2981 14.124 29.3256C13.9753 29.3531 13.8217 29.3292 13.6884 29.2579C13.555 29.1866 13.4499 29.072 13.3902 28.9331C13.3306 28.7941 13.3199 28.639 13.36 28.4932L15.92 20.4666C15.9955 20.2645 16.0208 20.0472 15.9939 19.8332C15.9669 19.6192 15.8885 19.415 15.7652 19.238C15.642 19.061 15.4776 18.9165 15.2863 18.817C15.095 18.7175 14.8823 18.6659 14.6667 18.6666H5.33333Z" stroke="#155DFC" stroke-width="2" stroke-linecap="round" stroke-linejoin="round"/>
</svg>
