<svg width="32" height="32" viewBox="0 0 32 32" fill="none" xmlns="http://www.w3.org/2000/svg">
<path d="M20.7147 15.0573C20.4647 15.3073 20.3243 15.6464 20.3243 15.9999C20.3243 16.3535 20.4647 16.6926 20.7147 16.9426L23.8827 20.1119C24.1327 20.3619 24.4718 20.5023 24.8253 20.5023C25.1789 20.5023 25.518 20.3619 25.768 20.1119L28.9373 16.9426C29.1873 16.6926 29.3277 16.3535 29.3277 15.9999C29.3277 15.6464 29.1873 15.3073 28.9373 15.0573L25.768 11.8879C25.518 11.638 25.1789 11.4976 24.8253 11.4976C24.4718 11.4976 24.1327 11.638 23.8827 11.8879L20.7147 15.0573Z" stroke="#155DFC" stroke-width="2" stroke-linecap="round" stroke-linejoin="round"/>
<path d="M3.06265 15.0573C2.81269 15.3073 2.67227 15.6464 2.67227 15.9999C2.67227 16.3535 2.81269 16.6926 3.06265 16.9426L6.23199 20.1119C6.48202 20.3619 6.8211 20.5023 7.17465 20.5023C7.52821 20.5023 7.86728 20.3619 8.11732 20.1119L11.2867 16.9426C11.5366 16.6926 11.677 16.3535 11.677 15.9999C11.677 15.6464 11.5366 15.3073 11.2867 15.0573L8.11732 11.8879C7.86728 11.638 7.52821 11.4976 7.17465 11.4976C6.8211 11.4976 6.48202 11.638 6.23199 11.8879L3.06265 15.0573Z" stroke="#155DFC" stroke-width="2" stroke-linecap="round" stroke-linejoin="round"/>
<path d="M11.888 23.8826C11.764 24.0064 11.6657 24.1535 11.5986 24.3153C11.5315 24.4772 11.4969 24.6507 11.4969 24.8259C11.4969 25.0012 11.5315 25.1747 11.5986 25.3365C11.6657 25.4984 11.764 25.6454 11.888 25.7693L15.0573 28.9373C15.3074 29.1872 15.6464 29.3276 16 29.3276C16.3535 29.3276 16.6926 29.1872 16.9427 28.9373L20.112 25.7693C20.236 25.6454 20.3343 25.4984 20.4014 25.3365C20.4685 25.1747 20.503 25.0012 20.503 24.8259C20.503 24.6507 20.4685 24.4772 20.4014 24.3153C20.3343 24.1535 20.236 24.0064 20.112 23.8826L16.9427 20.7146C16.6926 20.4646 16.3535 20.3242 16 20.3242C15.6464 20.3242 15.3074 20.4646 15.0573 20.7146L11.888 23.8826Z" stroke="#155DFC" stroke-width="2" stroke-linecap="round" stroke-linejoin="round"/>
<path d="M11.888 6.23208C11.638 6.48212 11.4976 6.82119 11.4976 7.17475C11.4976 7.5283 11.638 7.86737 11.888 8.11741L15.0573 11.2854C15.3074 11.5354 15.6464 11.6758 16 11.6758C16.3536 11.6758 16.6926 11.5354 16.9427 11.2854L20.112 8.11741C20.362 7.86737 20.5024 7.5283 20.5024 7.17475C20.5024 6.82119 20.362 6.48212 20.112 6.23208L16.9427 3.06275C16.6926 2.81278 16.3536 2.67236 16 2.67236C15.6464 2.67236 15.3074 2.81278 15.0573 3.06275L11.888 6.23208Z" stroke="#155DFC" stroke-width="2" stroke-linecap="round" stroke-linejoin="round"/>
</svg>
