<svg width="112" height="48" viewBox="0 0 112 48" fill="none" xmlns="http://www.w3.org/2000/svg">
<path d="M47.2626 30.9585L43.1647 14.5193H46.8234L49.5747 25.904H49.6237L53.585 14.5193H56.7267L60.6879 25.904H60.7366L63.5077 14.5193H67.147L63.0491 30.9585H59.3219L55.1753 19.9663H55.1263L50.9603 30.9585H47.2626Z" fill="#1E2939"/>
<path d="M68.2593 14.5193H71.7035V19.9663H71.7522C72.0547 19.4069 72.6596 18.9554 73.362 18.6512C74.0157 18.3666 74.9621 18.1899 75.8014 18.1899C76.7283 18.1899 77.9967 18.4254 78.9039 18.8965C79.8211 19.3971 80.5137 20.0644 80.9723 20.9085C81.4701 21.782 81.7139 22.7634 81.7139 23.8626V30.9585H78.2697V24.324C78.2697 23.3523 77.9867 22.6064 77.4112 22.0764C76.8354 21.5464 76.0549 21.2814 75.0598 21.2814C74.0647 21.2814 73.2741 21.5661 72.6402 22.1254C72.0154 22.6849 71.7132 23.421 71.7132 24.324V30.9585H68.269V14.5193H68.2593Z" fill="#1E2939"/>
<path d="M82.9238 24.7557C82.9238 23.7742 83.1092 22.8713 83.4798 22.0567C83.8505 21.2421 84.3581 20.5551 85.002 19.9859C85.6459 19.4166 86.3872 18.975 87.2265 18.6609C88.0655 18.3468 88.9535 18.1898 89.8804 18.1898C90.8074 18.1898 91.744 18.3468 92.5928 18.6707C93.4415 18.9946 94.1734 19.4362 94.8079 20.0055C95.4323 20.5747 95.9296 21.2617 96.3002 22.0665C96.6612 22.8713 96.8468 23.7644 96.8468 24.7459C96.8468 25.7274 96.6612 26.6499 96.2905 27.4547C95.9201 28.2595 95.4123 28.9465 94.7783 29.5157C94.1442 30.085 93.4026 30.5266 92.5538 30.8407C91.7048 31.1547 90.8171 31.3118 89.8902 31.3118C88.9632 31.3118 88.046 31.1547 87.1973 30.8308C86.3483 30.507 85.6167 30.0653 84.9825 29.4863C84.3581 28.9072 83.8505 28.2201 83.4798 27.4154C83.1092 26.6008 82.9238 25.7175 82.9238 24.7557ZM93.4026 24.7557C93.4026 23.6957 93.0806 22.8418 92.4367 22.2039C91.7927 21.5659 90.9437 21.2421 89.8902 21.2421C89.3728 21.2421 88.9048 21.3304 88.4657 21.4973C88.0266 21.674 87.6556 21.9095 87.3437 22.2137C87.0314 22.518 86.7971 22.8909 86.6215 23.3228C86.446 23.7644 86.3678 24.2356 86.3678 24.7557C86.3678 25.2759 86.4557 25.747 86.6215 26.1788C86.7971 26.6106 87.0412 26.9836 87.3534 27.2878C87.6754 27.6018 88.046 27.8374 88.4754 28.0141C88.9048 28.1908 89.3728 28.2692 89.8902 28.2692C90.4072 28.2692 90.8755 28.1809 91.3147 28.0141C91.7538 27.8374 92.1244 27.6018 92.4367 27.2976C92.7489 26.9934 92.9927 26.6204 93.1588 26.1886C93.3246 25.747 93.4026 25.266 93.4026 24.7557Z" fill="#1E2939"/>
<path d="M98.1051 18.1801H101.413V19.9663H101.462C101.676 19.4952 102.584 18.7101 103.306 18.5039C104.018 18.2978 104.74 18.1899 105.472 18.1899C106.399 18.1899 107.258 18.3665 108.038 18.7101C108.818 19.0536 109.482 19.5247 110.057 20.1135C110.624 20.7122 111.063 21.3992 111.385 22.1942C111.707 22.9891 111.862 23.843 111.862 24.7459C111.862 25.6489 111.707 26.5518 111.385 27.3468C111.063 28.1418 110.624 28.8385 110.057 29.4176C109.492 30.0065 108.818 30.4678 108.028 30.8014C107.247 31.1351 106.389 31.302 105.482 31.302C105.189 31.302 104.858 31.2726 104.496 31.2235C104.125 31.1646 103.774 31.086 103.423 30.9781C103.072 30.8702 102.74 30.7327 102.418 30.5659C102.096 30.399 101.832 30.2125 101.618 29.9869H101.569V36.2191H98.1249L98.1051 18.1801ZM108.399 24.7558C108.399 23.6958 108.077 22.8419 107.442 22.2138C106.808 21.5856 105.959 21.2618 104.906 21.2618C104.536 21.2618 104.145 21.3207 103.755 21.4482C103.355 21.5759 102.994 21.7525 102.672 21.988C102.35 22.2237 102.077 22.5083 101.871 22.8321C101.666 23.156 101.56 23.5388 101.56 23.9608V25.5311C101.56 26.0807 101.716 26.5518 102.037 26.964C102.35 27.3663 102.759 27.6804 103.237 27.8964C103.735 28.1418 104.301 28.2693 104.935 28.2693C105.979 28.2693 106.818 27.9455 107.453 27.2977C108.077 26.65 108.399 25.7961 108.399 24.7558Z" fill="#1E2939"/>
<path d="M5.96582 11.7023C3.50935 11.7023 1.82294 12.7806 0.536207 14.006C0.536207 14.006 0.0195631 14.4961 0.029311 14.5157L5.4102 19.927L10.7911 14.5157C9.76752 13.1041 7.84719 11.7023 5.96582 11.7023Z" fill="#1E2939"/>
<path d="M19.252 11.7023C16.7955 11.7023 15.1091 12.7904 13.8224 14.006C13.8224 14.006 13.3545 14.4863 13.3253 14.5157L6.67712 21.2014L12.0483 26.6029L24.0675 14.5157C23.044 13.1041 21.1236 11.7023 19.252 11.7023Z" fill="#1E2939"/>
<path d="M32.5682 11.7023C30.1116 11.7023 28.4253 12.7904 27.1385 14.006C27.1385 14.006 26.6511 14.4863 26.6316 14.5158L13.3257 27.8871L14.7294 29.2987C16.9032 31.4848 20.471 31.4848 22.6545 29.2987L37.3641 14.5158C36.3504 13.1041 34.4496 11.7023 32.5682 11.7023Z" fill="#1E2939"/>
</svg>
