<svg width="112" height="48" viewBox="0 0 112 48" fill="none" xmlns="http://www.w3.org/2000/svg">
<path d="M46.3195 28.9747C45.4739 30.0555 44.3982 30.9346 43.1706 31.5484C41.9433 32.1621 40.5946 32.4951 39.2226 32.5232C34.4066 32.5232 30.6048 29.1014 30.6048 24.6658C30.5998 23.59 30.8232 22.5254 31.2601 21.5423C31.6969 20.5593 32.3375 19.6801 33.1394 18.9629C33.9045 18.2135 34.8194 17.6341 35.8242 17.2629C36.8288 16.8916 37.9003 16.7367 38.969 16.8085C41.7571 16.8085 44.4187 18.0758 46.0659 20.3569L42.8979 22.6381C42.4898 21.9561 41.9153 21.389 41.2282 20.99C40.5408 20.5909 39.7634 20.3731 38.969 20.3569C37.7927 20.3569 36.6646 20.8243 35.8327 21.6561C35.0009 22.4879 34.5334 23.6161 34.5334 24.7925C34.6602 27.3271 36.6878 29.2281 39.0958 29.2281C40.7434 29.2281 42.2642 28.4677 43.1511 27.0737L46.3195 28.9747Z" fill="#1E2939"/>
<path d="M48.0939 10.4719H52.0224V32.143H48.0939V10.4719Z" fill="#1E2939"/>
<path d="M62.5414 29.1014C65.0758 29.1014 67.2303 27.0737 67.357 24.5391C67.2303 22.0045 65.0758 19.9767 62.5414 19.9767C60.0066 19.9767 57.8521 22.0045 57.7254 24.5391C57.8521 27.0737 59.8798 29.1014 62.5414 29.1014ZM62.5414 16.6817C64.6958 16.555 66.8502 17.3154 68.4975 18.8362C70.1451 20.357 71.0323 22.3847 71.1591 24.5391C71.1179 25.619 70.8611 26.6798 70.404 27.6592C69.9469 28.6385 69.2988 29.5167 68.4975 30.242C67.7 30.9823 66.7618 31.5546 65.7384 31.9247C64.715 32.2948 63.6277 32.4552 62.5414 32.3964C57.7254 32.3964 53.9233 28.9747 53.9233 24.5391C53.9233 20.1035 57.7254 16.6817 62.5414 16.6817Z" fill="#1E2939"/>
<path d="M70.3986 16.9352H75.0875L78.8895 25.046L82.9448 16.9352H87.2539L78.8895 33.0301L70.3986 16.9352Z" fill="#1E2939"/>
<path d="M98.5329 22.3847C98.2447 21.6523 97.7366 21.0273 97.0785 20.5961C96.42 20.1648 95.6442 19.9484 94.8577 19.9768C93.2101 19.9768 91.6892 20.8639 90.9288 22.3847H98.5329ZM101.067 30.3688C99.4295 31.7207 97.3613 32.4401 95.238 32.3965C90.422 32.3965 86.62 28.9747 86.62 24.5391C86.62 22.3847 87.5072 20.357 89.028 18.8362C89.7931 18.0868 90.708 17.5074 91.7125 17.1362C92.7174 16.7649 93.7889 16.61 94.8577 16.6817C97.0121 16.555 99.0397 17.4421 100.561 18.9629C102.081 20.4837 102.842 22.5114 102.715 24.6658V25.6797H90.5488C90.8146 26.4869 91.2837 27.212 91.9117 27.7849C92.5393 28.3578 93.3041 28.7592 94.1322 28.9503C94.9602 29.1414 95.8235 29.1157 96.639 28.8758C97.4541 28.6359 98.1937 28.1898 98.7865 27.5807L101.067 30.3688ZM104.616 23.652C104.616 19.9768 107.404 17.0619 111.84 17.0619V20.6104C110.953 20.6104 109.939 20.9906 109.305 21.6243C108.671 22.2579 108.418 23.2718 108.545 24.1589V32.143H104.616V23.652Z" fill="#1E2939"/>
<path d="M12.609 17.5689C12.5492 16.3781 12.1547 15.2284 11.4707 14.2518C10.7867 13.2752 9.84113 12.5113 8.7425 12.0481C7.64389 11.5848 6.43687 11.4409 5.26015 11.6329C4.08339 11.8248 2.9847 12.3449 2.0903 13.1333C0.316053 14.9076 -0.190872 17.5689 0.696249 19.8501C1.58337 22.1313 3.86455 23.652 6.39918 23.652H12.609V17.5689ZM14.3833 17.5689C14.443 16.3781 14.8376 15.2284 15.5216 14.2518C16.2055 13.2752 17.1511 12.5113 18.2498 12.0481C19.3484 11.5848 20.5554 11.4409 21.7321 11.6329C22.9089 11.8248 24.0076 12.3449 24.902 13.1333C26.6762 14.9076 27.1831 17.5689 26.296 19.8501C25.4089 22.1313 23.1277 23.652 20.5931 23.652H14.3833V17.5689ZM14.3833 31.5094C14.443 32.7002 14.8376 33.8499 15.5216 34.8265C16.2055 35.8031 17.1511 36.567 18.2498 37.0302C19.3484 37.4935 20.5554 37.6374 21.7321 37.4455C22.9089 37.2535 24.0076 36.7334 24.902 35.945C26.6762 34.1707 27.1831 31.5094 26.296 29.2282C25.4089 26.9471 23.1277 25.4263 20.5931 25.4263H14.3833V31.5094ZM6.39918 35.945C8.80705 35.945 10.8348 34.044 10.8348 31.5094V27.0738H6.39918C3.99127 27.0738 1.96356 28.9748 1.96356 31.5094C1.96356 34.044 3.99127 35.945 6.39918 35.945ZM12.609 31.5094C12.5492 32.7002 12.1547 33.8499 11.4707 34.8265C10.7867 35.8031 9.84113 36.567 8.7425 37.0302C7.64389 37.4935 6.43687 37.6374 5.26015 37.4455C4.08339 37.2535 2.9847 36.7334 2.0903 35.945C0.316053 34.1707 -0.190872 31.5094 0.696249 29.2282C1.58337 26.9471 3.86455 25.4263 6.39918 25.4263H12.609V31.5094Z" fill="#1E2939"/>
</svg>
