<svg width="112" height="48" viewBox="0 0 112 48" fill="none" xmlns="http://www.w3.org/2000/svg">
<path d="M55.8591 17.5259C51.4867 17.5259 48.3342 20.3775 48.3342 24.6549C48.3342 28.9322 51.8828 31.7838 56.2552 31.7838C58.897 31.7838 61.2257 30.7382 62.6675 28.9758L59.6376 27.2253C58.8374 28.1005 57.6216 28.6114 56.2552 28.6114C54.3583 28.6114 52.7464 27.6213 52.1484 26.0371H63.2455C63.3328 25.5935 63.3843 25.1341 63.3843 24.6509C63.3843 20.3775 60.2315 17.5259 55.8591 17.5259ZM52.1127 23.2687C52.6076 21.6885 53.9622 20.6943 55.8553 20.6943C57.7525 20.6943 59.1068 21.6885 59.5979 23.2687H52.1127ZM98.5061 17.5259C94.1336 17.5259 90.9811 20.3775 90.9811 24.6549C90.9811 28.9322 94.5298 31.7838 98.9022 31.7838C101.544 31.7838 103.873 30.7382 105.314 28.9758L102.285 27.2253C101.485 28.1005 100.269 28.6114 98.9022 28.6114C97.0053 28.6114 95.3933 27.6213 94.7953 26.0371H105.892C105.98 25.5935 106.031 25.1341 106.031 24.6509C106.031 20.3775 102.878 17.5259 98.5061 17.5259ZM94.7635 23.2687C95.2587 21.6885 96.613 20.6943 98.5061 20.6943C100.403 20.6943 101.758 21.6885 102.249 23.2687H94.7635ZM79.3057 24.6549C79.3057 27.0312 80.8581 28.6154 83.2661 28.6154C84.8978 28.6154 86.1215 27.8748 86.7514 26.6668L89.7931 28.4213C88.5336 30.5204 86.1731 31.7838 83.2661 31.7838C78.8899 31.7838 75.7412 28.9322 75.7412 24.6549C75.7412 20.3775 78.8937 17.5259 83.2661 17.5259C86.1731 17.5259 88.5295 18.7893 89.7931 20.8884L86.7514 22.6429C86.1215 21.435 84.8978 20.6943 83.2661 20.6943C80.8619 20.6943 79.3057 22.2785 79.3057 24.6549ZM111.972 13.1694V31.3878H108.407V13.1694H111.972ZM14.6342 11.1891L29.2683 36.5364H0L14.6342 11.1891ZM51.2214 13.1694L40.2469 32.1799L29.2723 13.1694H33.3872L40.2469 25.0509L47.1066 13.1694H51.2214ZM74.5531 17.922V21.7597C74.157 21.6449 73.737 21.5657 73.2854 21.5657C70.9844 21.5657 69.3251 23.1499 69.3251 25.5262V31.3878H65.7605V17.922H69.3251V21.5657C69.3251 19.5537 71.6658 17.922 74.5531 17.922Z" fill="#1E2939"/>
</svg>
