<svg width="19" height="19" viewBox="0 0 19 19" fill="none" xmlns="http://www.w3.org/2000/svg">
<g clip-path="url(#clip0_0_84)">
<path d="M8.87229 5.64545C8.85714 5.45452 8.68961 5.31029 8.50087 5.34282C8.13133 5.40651 7.77283 5.52519 7.43756 5.69543C6.99911 5.91805 6.60899 6.22449 6.28947 6.59725C5.96996 6.97 5.7273 7.40177 5.57537 7.8679C5.42343 8.33403 5.36519 8.8254 5.40396 9.31394C5.44274 9.80248 5.57777 10.2786 5.80135 10.7152C6.02494 11.1518 6.33269 11.5403 6.70704 11.8584C7.0814 12.1766 7.51502 12.4182 7.98315 12.5695C8.3411 12.6851 8.71388 12.7463 9.08887 12.7514C9.2804 12.754 9.42311 12.5854 9.40795 12.3944L9.14012 9.01993L8.87229 5.64545Z" fill="#4173FB"/>
<path d="M12.4209 9.90921C12.6058 9.95932 12.7163 10.1505 12.6488 10.3297C12.5173 10.679 12.3338 11.0073 12.1038 11.3033C11.8026 11.6909 11.4277 12.0157 11.0005 12.259C10.5733 12.5024 10.1022 12.6596 9.61395 12.7216C9.12574 12.7837 8.63004 12.7493 8.15515 12.6206C7.68026 12.4919 7.23547 12.2713 6.8462 11.9715C6.45692 11.6716 6.13078 11.2983 5.88638 10.8729C5.64198 10.4476 5.48412 9.97842 5.42181 9.4923C5.37422 9.12101 5.38308 8.74537 5.44751 8.37793C5.48058 8.18935 5.67312 8.08035 5.85802 8.13047L9.13946 9.01984L12.4209 9.90921Z" fill="#194BD3"/>
<path d="M12.0166 7.21388C12.1787 7.11207 12.3949 7.16014 12.4819 7.33076C12.6515 7.66341 12.7703 8.02009 12.8339 8.38905C12.9171 8.87206 12.9039 9.36666 12.7951 9.84462C12.6864 10.3226 12.4841 10.7745 12.2 11.1746C11.9158 11.5748 11.5552 11.9152 11.1389 12.1766C10.7226 12.438 10.2587 12.6152 9.77357 12.698C9.28848 12.7809 8.79176 12.7678 8.31176 12.6595C7.83176 12.5512 7.37788 12.3498 6.97604 12.0668C6.66908 11.8507 6.39708 11.5902 6.16874 11.2944C6.05161 11.1427 6.10122 10.9278 6.26339 10.826L9.13998 9.01993L12.0166 7.21388Z" fill="#3B82F6"/>
<path d="M9.25361 0.116381C14.2547 0.116616 18.3086 4.15347 18.3087 9.13318C18.3087 14.113 14.2547 18.1497 9.25361 18.15C8.12025 18.15 7.03638 17.9405 6.03651 17.5616C5.93939 17.5248 5.8997 17.4097 5.95145 17.3196L7.54473 14.5476C7.54609 14.5452 7.54743 14.5428 7.54874 14.5405C7.59506 14.4565 7.6862 14.3994 7.7791 14.423C8.2501 14.5424 8.74398 14.6075 9.25361 14.6075C12.4685 14.6073 15.0746 12.0844 15.0746 8.97211C15.0745 5.8599 12.4685 3.33695 9.25361 3.33674C6.03858 3.33674 3.43177 5.85977 3.43163 8.97211C3.43163 10.512 4.07078 11.9064 5.10497 12.9234C5.17012 12.9875 5.1713 13.0914 5.12578 13.1707L3.5633 15.8889C3.51042 15.9809 3.38733 16.0031 3.30718 15.9336C1.40187 14.2806 0.197528 11.847 0.197528 9.13318C0.197619 4.15332 4.25237 0.116381 9.25361 0.116381Z" fill="#194BD3"/>
<path d="M18.2109 9.45059C18.2649 9.45328 18.3108 9.41125 18.312 9.3573C18.3569 7.42579 17.7629 5.48956 16.6542 3.91102C15.5266 2.30572 13.9058 1.11243 12.0363 0.511153C10.1668 -0.0901284 8.14994 -0.0667872 6.28999 0.577656C4.46027 1.21163 2.88004 2.41285 1.77937 4.00459C1.74918 4.04826 1.76053 4.10792 1.80431 4.13784L4.32196 5.8582C4.36623 5.88846 4.42674 5.87681 4.45765 5.83291C5.1589 4.8371 6.21085 4.09671 7.36183 3.69791C8.54351 3.28847 9.82488 3.27364 11.0126 3.65566C12.2004 4.03767 13.2301 4.7958 13.9465 5.81569C14.6447 6.80972 15.0948 7.98542 15.0773 9.19966C15.0766 9.25229 15.1173 9.29657 15.1699 9.2992L18.2109 9.45059Z" fill="#3B82F6"/>
</g>
<defs>
<clipPath id="clip0_0_84">
<rect width="18.8925" height="18.8925" fill="white" transform="scale(1.00569)"/>
</clipPath>
</defs>
</svg>
