<svg width="92" height="14" viewBox="0 0 92 14" fill="none" xmlns="http://www.w3.org/2000/svg">
<path d="M5.39244 13.3918C4.44013 13.3918 3.58008 13.2252 2.81228 12.8919C2.05044 12.5526 1.42251 12.0705 0.9285 11.4455C0.440442 10.8146 0.130942 10.0647 0 9.19572L2.53552 8.82075C2.71408 9.55878 3.08309 10.1272 3.64258 10.526C4.20206 10.9247 4.83891 11.1241 5.55314 11.1241C5.95192 11.1241 6.3388 11.0616 6.71377 10.9367C7.08874 10.8117 7.39526 10.6272 7.63334 10.3831C7.87737 10.1391 7.99938 9.83852 7.99938 9.48141C7.99938 9.35047 7.97855 9.22548 7.93689 9.10644C7.90118 8.98145 7.83868 8.86538 7.7494 8.75825C7.66012 8.65112 7.53216 8.54993 7.3655 8.4547C7.2048 8.35947 6.99946 8.27317 6.74948 8.19579L3.41045 7.21373C3.16047 7.1423 2.86883 7.04112 2.53552 6.91018C2.20816 6.77924 1.88973 6.59175 1.58023 6.34772C1.27074 6.10369 1.01183 5.78229 0.803509 5.38351C0.601144 4.97878 0.499961 4.46989 0.499961 3.85684C0.499961 2.99382 0.717206 2.27661 1.1517 1.70523C1.58619 1.13384 2.1665 0.708278 2.89263 0.428538C3.61877 0.148798 4.42228 0.0119033 5.30316 0.0178555C6.19 0.0297592 6.9816 0.181533 7.67798 0.473177C8.37435 0.764822 8.95764 1.19038 9.42784 1.74986C9.89804 2.30339 10.2373 2.98191 10.4456 3.78542L7.82082 4.23182C7.72559 3.81518 7.55001 3.46402 7.29408 3.17832C7.03815 2.89263 6.73162 2.67539 6.37451 2.52659C6.02334 2.37779 5.65432 2.29744 5.26745 2.28554C4.88653 2.27363 4.52644 2.3272 4.18718 2.44624C3.85387 2.55933 3.58008 2.72598 3.36581 2.9462C3.15749 3.16642 3.05334 3.42831 3.05334 3.73185C3.05334 4.01159 3.13964 4.24074 3.31224 4.4193C3.48485 4.59191 3.70209 4.73178 3.96398 4.83891C4.22586 4.94605 4.4937 5.03532 4.76749 5.10675L6.99946 5.71384C7.33277 5.80312 7.70179 5.92216 8.10652 6.07096C8.51125 6.2138 8.89812 6.41617 9.26714 6.67805C9.64211 6.93399 9.94864 7.27325 10.1867 7.69583C10.4307 8.11842 10.5528 8.65409 10.5528 9.30285C10.5528 9.99327 10.4069 10.5974 10.1153 11.1152C9.8296 11.6271 9.44272 12.0526 8.95466 12.3919C8.46661 12.7252 7.91308 12.9752 7.29408 13.1418C6.68103 13.3085 6.04715 13.3918 5.39244 13.3918Z" fill="black"/>
<path d="M16.854 13.3918C15.8839 13.3918 15.0327 13.1746 14.3007 12.7401C13.5686 12.3056 12.9972 11.7074 12.5865 10.9456C12.1818 10.1778 11.9794 9.2969 11.9794 8.30293C11.9794 7.29705 12.1877 6.41319 12.6044 5.65135C13.021 4.88355 13.5953 4.28538 14.3274 3.85684C15.0595 3.42831 15.9017 3.21404 16.854 3.21404C17.8242 3.21404 18.6753 3.43128 19.4074 3.86577C20.1454 4.30026 20.7198 4.90141 21.1305 5.6692C21.5412 6.43105 21.7465 7.30896 21.7465 8.30293C21.7465 9.30285 21.5382 10.1867 21.1216 10.9545C20.7109 11.7164 20.1365 12.3145 19.3985 12.749C18.6664 13.1776 17.8182 13.3918 16.854 13.3918ZM16.854 11.1241C17.6337 11.1241 18.214 10.8623 18.595 10.3385C18.9818 9.80876 19.1753 9.13025 19.1753 8.30293C19.1753 7.44585 18.9789 6.76138 18.586 6.24952C18.1992 5.73765 17.6218 5.48172 16.854 5.48172C16.3243 5.48172 15.8898 5.60076 15.5506 5.83883C15.2113 6.07691 14.9583 6.40724 14.7917 6.82983C14.631 7.25242 14.5506 7.74345 14.5506 8.30293C14.5506 9.16596 14.7441 9.8534 15.1309 10.3653C15.5238 10.8712 16.0981 11.1241 16.854 11.1241Z" fill="black"/>
<path d="M27.9595 13.3918C26.9595 13.3918 26.1025 13.1686 25.3882 12.7222C24.674 12.2758 24.1264 11.6687 23.7455 10.9009C23.3646 10.1331 23.1741 9.26714 23.1741 8.30293C23.1741 7.32681 23.3705 6.45486 23.7634 5.68706C24.1621 4.91926 24.7216 4.31514 25.4418 3.8747C26.162 3.43426 27.0131 3.21404 27.9952 3.21404C29.132 3.21404 30.0843 3.50271 30.8521 4.08004C31.6259 4.65143 32.1199 5.4341 32.3341 6.42807L29.9057 7.07088C29.7629 6.57092 29.5129 6.18107 29.1558 5.90133C28.8046 5.62159 28.4059 5.48172 27.9595 5.48172C27.4476 5.48172 27.028 5.60671 26.7006 5.85669C26.3733 6.10072 26.1322 6.437 25.9775 6.86554C25.8227 7.28813 25.7454 7.76726 25.7454 8.30293C25.7454 9.14215 25.9299 9.82364 26.2989 10.3474C26.6739 10.8652 27.2274 11.1241 27.9595 11.1241C28.507 11.1241 28.9237 10.9991 29.2094 10.7492C29.4951 10.4992 29.7093 10.1421 29.8522 9.67782L32.3341 10.1956C32.0603 11.2194 31.5425 12.008 30.7807 12.5615C30.0188 13.1151 29.0784 13.3918 27.9595 13.3918Z" fill="black"/>
<path d="M34.0368 2.14269V0H36.4652V2.14269H34.0368ZM34.0368 13.124V3.48187H36.4652V13.124H34.0368Z" fill="black"/>
<path d="M41.8201 13.3918C41.1297 13.3918 40.5435 13.2609 40.0614 12.999C39.5852 12.7312 39.2221 12.377 38.9721 11.9366C38.7281 11.4902 38.6061 10.9991 38.6061 10.4635C38.6061 10.0171 38.6746 9.60938 38.8114 9.24036C38.9483 8.87134 39.1686 8.54696 39.4721 8.26722C39.7816 7.98153 40.1953 7.74345 40.7131 7.55299C41.0702 7.42204 41.4958 7.30598 41.9898 7.2048C42.4838 7.10362 43.0433 7.00839 43.6682 6.91911C44.2932 6.82388 44.9806 6.71972 45.7306 6.60663L44.8556 7.08874C44.8556 6.51735 44.7187 6.09774 44.4449 5.82991C44.1712 5.56207 43.7129 5.42815 43.07 5.42815C42.7129 5.42815 42.3409 5.51445 41.9541 5.68706C41.5672 5.85967 41.2964 6.16619 41.1416 6.60663L38.9454 5.91026C39.1894 5.1127 39.6477 4.46394 40.3203 3.96398C40.9928 3.46402 41.9094 3.21404 43.07 3.21404C43.9212 3.21404 44.6771 3.34498 45.3377 3.60686C45.9984 3.86875 46.4984 4.32109 46.8376 4.9639C47.0281 5.32102 47.1412 5.67813 47.1769 6.03525C47.2126 6.39236 47.2304 6.79114 47.2304 7.23158V13.124H45.1056V11.142L45.4092 11.5527C44.939 12.2014 44.4301 12.6716 43.8825 12.9633C43.3409 13.249 42.6534 13.3918 41.8201 13.3918ZM42.338 11.4813C42.7844 11.4813 43.1593 11.4039 43.4629 11.2491C43.7724 11.0884 44.0164 10.9069 44.195 10.7045C44.3795 10.5022 44.5045 10.3325 44.5699 10.1956C44.6949 9.93375 44.7663 9.63021 44.7842 9.285C44.808 8.93383 44.8199 8.64219 44.8199 8.41006L45.5341 8.58862C44.814 8.70766 44.2307 8.80884 43.7843 8.89217C43.3379 8.96954 42.9778 9.04097 42.704 9.10644C42.4302 9.17191 42.1892 9.24333 41.9808 9.32071C41.7428 9.41594 41.5493 9.5201 41.4005 9.63318C41.2577 9.74032 41.1506 9.85936 41.0791 9.9903C41.0137 10.1212 40.9809 10.2671 40.9809 10.4278C40.9809 10.648 41.0345 10.8384 41.1416 10.9991C41.2547 11.1539 41.4124 11.2729 41.6148 11.3563C41.8172 11.4396 42.0582 11.4813 42.338 11.4813Z" fill="black"/>
<path d="M49.7304 13.124V0H52.1588V13.124H49.7304Z" fill="black"/>
<path d="M59.085 13.3918C58.0851 13.3918 57.228 13.1686 56.5138 12.7222C55.7995 12.2758 55.252 11.6687 54.871 10.9009C54.4901 10.1331 54.2996 9.26714 54.2996 8.30293C54.2996 7.32681 54.4961 6.45486 54.8889 5.68706C55.2877 4.91926 55.8471 4.31514 56.5673 3.8747C57.2875 3.43426 58.1386 3.21404 59.1207 3.21404C60.2575 3.21404 61.2098 3.50271 61.9776 4.08004C62.7514 4.65143 63.2454 5.4341 63.4597 6.42807L61.0313 7.07088C60.8884 6.57092 60.6384 6.18107 60.2813 5.90133C59.9302 5.62159 59.5314 5.48172 59.085 5.48172C58.5731 5.48172 58.1535 5.60671 57.8262 5.85669C57.4988 6.10072 57.2578 6.437 57.103 6.86554C56.9483 7.28813 56.8709 7.76726 56.8709 8.30293C56.8709 9.14215 57.0554 9.82364 57.4244 10.3474C57.7994 10.8652 58.3529 11.1241 59.085 11.1241C59.6326 11.1241 60.0492 10.9991 60.3349 10.7492C60.6206 10.4992 60.8349 10.1421 60.9777 9.67782L63.4597 10.1956C63.1859 11.2194 62.668 12.008 61.9062 12.5615C61.1444 13.1151 60.204 13.3918 59.085 13.3918Z" fill="black"/>
<path d="M65.2454 13.124V3.48187H67.3881V5.83883L67.1559 5.53529C67.2809 5.20198 67.4476 4.89843 67.6559 4.62464C67.8642 4.35085 68.1201 4.12468 68.4237 3.94612C68.6558 3.80328 68.9088 3.69317 69.1826 3.61579C69.4564 3.53246 69.7391 3.48187 70.0307 3.46402C70.3224 3.44021 70.614 3.44616 70.9056 3.48187V5.74955C70.6378 5.66623 70.3253 5.63944 69.9682 5.6692C69.6171 5.69301 69.2986 5.77336 69.0129 5.91026C68.7272 6.0412 68.4862 6.21678 68.2898 6.437C68.0934 6.65127 67.9446 6.9072 67.8434 7.2048C67.7422 7.49644 67.6916 7.82678 67.6916 8.19579V13.124H65.2454Z" fill="black"/>
<path d="M75.0905 13.3918C74.4 13.3918 73.8138 13.2609 73.3317 12.999C72.8555 12.7312 72.4924 12.377 72.2425 11.9366C71.9984 11.4902 71.8764 10.9991 71.8764 10.4635C71.8764 10.0171 71.9449 9.60938 72.0818 9.24036C72.2186 8.87134 72.4389 8.54696 72.7424 8.26722C73.0519 7.98153 73.4656 7.74345 73.9834 7.55299C74.3405 7.42204 74.7661 7.30598 75.2601 7.2048C75.7541 7.10362 76.3136 7.00839 76.9385 6.91911C77.5635 6.82388 78.2509 6.71972 79.0009 6.60663L78.1259 7.08874C78.1259 6.51735 77.989 6.09774 77.7152 5.82991C77.4415 5.56207 76.9832 5.42815 76.3404 5.42815C75.9832 5.42815 75.6112 5.51445 75.2244 5.68706C74.8375 5.85967 74.5667 6.16619 74.4119 6.60663L72.2157 5.91026C72.4597 5.1127 72.918 4.46394 73.5906 3.96398C74.2631 3.46402 75.1797 3.21404 76.3404 3.21404C77.1915 3.21404 77.9474 3.34498 78.608 3.60686C79.2687 3.86875 79.7687 4.32109 80.1079 4.9639C80.2984 5.32102 80.4115 5.67813 80.4472 6.03525C80.4829 6.39236 80.5007 6.79114 80.5007 7.23158V13.124H78.3759V11.142L78.6795 11.5527C78.2093 12.2014 77.7004 12.6716 77.1528 12.9633C76.6112 13.249 75.9237 13.3918 75.0905 13.3918ZM75.6083 11.4813C76.0547 11.4813 76.4296 11.4039 76.7332 11.2491C77.0427 11.0884 77.2867 10.9069 77.4653 10.7045C77.6498 10.5022 77.7748 10.3325 77.8402 10.1956C77.9652 9.93375 78.0367 9.63021 78.0545 9.285C78.0783 8.93383 78.0902 8.64219 78.0902 8.41006L78.8045 8.58862C78.0843 8.70766 77.501 8.80884 77.0546 8.89217C76.6082 8.96954 76.2481 9.04097 75.9743 9.10644C75.7005 9.17191 75.4595 9.24333 75.2511 9.32071C75.0131 9.41594 74.8196 9.5201 74.6708 9.63318C74.528 9.74032 74.4209 9.85936 74.3494 9.9903C74.284 10.1212 74.2512 10.2671 74.2512 10.4278C74.2512 10.648 74.3048 10.8384 74.4119 10.9991C74.525 11.1539 74.6827 11.2729 74.8851 11.3563C75.0875 11.4396 75.3285 11.4813 75.6083 11.4813Z" fill="black"/>
<path d="M87.5539 13.3918C86.5957 13.3918 85.7951 13.1686 85.1523 12.7222C84.5095 12.2758 84.0244 11.6687 83.6971 10.9009C83.3757 10.1331 83.215 9.26714 83.215 8.30293C83.215 7.33872 83.3757 6.47271 83.6971 5.70492C84.0185 4.93712 84.4916 4.33002 85.1166 3.88363C85.7416 3.43723 86.5123 3.21404 87.4289 3.21404C88.3515 3.21404 89.155 3.43426 89.8395 3.8747C90.5239 4.31514 91.0536 4.91926 91.4286 5.68706C91.8095 6.44891 92 7.32086 92 8.30293C92 9.26714 91.8125 10.1331 91.4375 10.9009C91.0685 11.6687 90.5507 12.2758 89.8841 12.7222C89.2175 13.1686 88.4408 13.3918 87.5539 13.3918ZM82.8043 13.124V0.267836H85.2505V6.51735H84.947V13.124H82.8043ZM87.1611 11.2313C87.6849 11.2313 88.1134 11.1003 88.4467 10.8384C88.78 10.5766 89.027 10.2254 89.1877 9.78496C89.3484 9.33856 89.4288 8.84455 89.4288 8.30293C89.4288 7.76726 89.3454 7.2792 89.1788 6.83876C89.0121 6.39236 88.7532 6.03822 88.4021 5.77634C88.0568 5.5085 87.6134 5.37458 87.0718 5.37458C86.5659 5.37458 86.1552 5.4966 85.8398 5.74063C85.5303 5.98466 85.3041 6.32689 85.1612 6.76733C85.0184 7.20778 84.947 7.71964 84.947 8.30293C84.947 8.88622 85.0184 9.39808 85.1612 9.83852C85.3041 10.279 85.5362 10.6212 85.8576 10.8652C86.185 11.1093 86.6195 11.2313 87.1611 11.2313Z" fill="black"/>
</svg>
