<?xml version="1.0" encoding="UTF-8" standalone="no"?>
<!DOCTYPE svg PUBLIC "-//W3C//DTD SVG 1.1//EN" "http://www.w3.org/Graphics/SVG/1.1/DTD/svg11.dtd">
<svg width="100%" height="100%" viewBox="0 0 1081 412" version="1.1" xmlns="http://www.w3.org/2000/svg" xmlns:xlink="http://www.w3.org/1999/xlink" xml:space="preserve" xmlns:serif="http://www.serif.com/" style="fill-rule:evenodd;clip-rule:evenodd;stroke-linejoin:round;stroke-miterlimit:2;">
    <g transform="matrix(1,0,0,1,1115,-334)">
        <g transform="matrix(1.59355,0,0,1.59355,-1267.32,82.44)">
            <path d="M250.65,273.8C244.91,290.27 246.18,309.17 254.42,324.58C260.53,335.93 269.84,345.7 281.35,351.63C296.44,359.7 314.86,361.6 331.13,356.09C343.04,352.48 353.15,344.74 361.73,335.94C364.62,344.99 366.26,354.49 365.86,364.01C366.32,377.51 360.01,391.07 349.39,399.41C337.71,408.79 322.85,413.14 308.24,415.21C295.31,416.51 282.02,417.11 269.35,413.67C245.33,407.3 224.06,393.54 204.84,378.17C196.9,371.83 189.35,365.01 182.05,357.94C180.43,356.36 179.05,354.56 177.75,352.72C183.21,352.73 188.61,353.66 194.03,354.22C196.85,354.67 199.26,352.79 201.67,351.65C213.05,345.3 226.63,341.69 239.58,344.6C245.22,346.01 251.04,348.67 254.33,353.67C256.16,357.34 255.91,361.66 255.45,365.63C254.46,371.52 248.77,375.69 242.94,375.78C239.93,375.78 236.3,376.43 233.95,374.08C232.02,372.57 230.81,370 231.51,367.57C232.43,365.19 233.9,363.09 234.95,360.78C230.23,363.1 227,369.05 228.81,374.21C230.16,377.36 233.26,379.64 236.55,380.43C241.71,381.08 247.44,381 251.83,377.83C255.96,375.34 257.95,370.62 259,366.12C260.12,360.33 259.95,353.73 256.08,348.94C251.02,342.64 242.84,340.17 235.17,338.85C233.01,338.87 232.44,336.56 232.12,334.86C228.95,315.41 229.87,294.61 238.68,276.68C242.21,269.91 246.34,263.33 251.77,257.91L251.1,258.55C250.63,247.04 251.07,235.52 250.92,224C251.01,215.71 250.69,207.42 251.12,199.14C257.99,198.73 264.88,198.86 271.74,199.18C272.09,213.54 271.33,227.92 272.24,242.27C273.15,241.77 274.09,241.31 275.05,240.89C273.8,242.17 272.47,243.37 271.08,244.49C271.63,246.29 272.11,248.11 272.58,249.93C282.8,242.4 295.11,237.16 307.96,237.15C324.5,236.54 341.22,243.34 352.38,255.62C364.29,267.68 369.79,285.3 368.03,302.04C365.9,326.57 346.25,348.19 322.23,353.17C308.81,355.91 294.35,354.37 282.23,347.78C266.98,339.8 255.45,324.86 252.16,307.9C250.22,296.65 251.08,285.15 250.65,273.8ZM304.33,258.29C286.17,260.64 271.22,277.59 271.83,296C271.27,315.12 287.92,332.73 306.99,333.45C318.29,334.44 329.75,329.71 337.38,321.38C344.37,314.19 348,303.96 347.45,293.98C346.94,283.64 342.09,273.52 334.04,266.94C325.99,259.96 314.85,256.82 304.33,258.29ZM96.15,158C101.55,171.76 109.8,184.34 119.93,195.08C127.38,202.95 136.4,209.36 146.41,213.54C158.01,218.34 170.59,220.03 182.99,221.24C196.1,222.5 210.06,223.97 221.12,231.8C229.25,237.45 233.51,247.27 234.11,256.95C235.16,265.51 232.28,274.25 226.92,280.91C221.46,287.09 213.35,291.16 204.99,290.66C197.76,290.43 189.33,289.52 184.58,283.35C178.91,277.79 178.01,268.85 180.72,261.66C182.1,257.88 184.77,254.52 184.85,250.35C183.15,250.25 181.02,248.92 179.65,250.53C174.49,256.22 171.59,264.26 172.94,271.93C174.27,278.62 177.25,285.11 181.65,290.33C194.09,299.83 212.01,298.29 224.9,290.46C222.6,306.36 224.33,322.4 224.76,338.36C217.54,337.97 210.56,340.2 204.01,343.03C201.28,344.15 198.01,345.86 195.25,343.8C179.64,333.74 167.16,319.55 156.58,304.42C144.32,287.18 134.85,268.16 126.15,248.93C113.82,219.46 103.44,189.12 96.15,158ZM733.62,208.56C752.14,196.74 765.92,178.31 773.88,157.98C769.03,179.08 762.51,199.76 755.25,220.15C750.23,233.26 745.36,246.46 739.14,259.06C729.75,279.12 718.86,298.62 704.95,315.93C696.21,326.5 686.38,336.45 674.72,343.8C671.97,345.98 668.66,344.1 665.91,343C659.49,340.15 652.63,338.12 645.55,338.14C645.18,322.17 648.42,305.86 644.43,290.13C656.97,297.6 673.92,300.19 686.53,291.49C697.93,281.98 701.67,262.53 690.83,251.19C689.46,249.21 687.16,249.85 685.19,250.21C685.3,255.02 688.97,258.62 690,263.19C691.48,269.64 690.93,277.22 686.35,282.37C683.66,285.14 680.76,288.09 676.86,289C668.84,291.08 659.82,291.75 652.22,287.88C642.72,283.44 636.88,273.23 635.82,263.04C635.34,254.19 637.39,244.91 642.67,237.67C651.15,227.08 665.28,223.87 678.09,222.22C697.01,220.08 716.99,218.87 733.62,208.56ZM281.8,197.23C285.51,197.35 289.47,196.57 293.01,197.95C296.94,201.44 295.59,207.35 293.86,211.63C296.25,215.13 296.3,219.59 295.48,223.61C292.65,228.35 286.34,226.52 281.8,226.77C281.56,216.93 281.48,207.07 281.8,197.23ZM286.71,213.75C286.47,216.82 286.48,219.9 286.7,222.97C288.06,222.84 289.42,222.72 290.79,222.6C291.28,220.04 292.21,216.97 290.41,214.7C289.19,214.3 287.96,213.99 286.71,213.75ZM286.75,201.16C286.45,204.17 286.41,207.21 286.72,210.23C287.92,209.58 289.78,209.72 290.5,208.41C291.22,206.07 290.57,203.63 289.98,201.34C289.17,201.29 287.56,201.2 286.75,201.16ZM302.24,197.26C304.35,197.23 306.46,197.22 308.57,197.23C309.85,207.11 312.3,216.85 312.91,226.79C311.49,226.75 310.08,226.71 308.67,226.67C308.38,224.82 308.07,222.99 307.74,221.15C306.22,221.18 304.69,221.2 303.17,221.22C302.62,223.03 302.12,224.85 301.61,226.66C300.42,226.7 299.23,226.74 298.05,226.79C298.58,216.85 300.83,207.09 302.24,197.26ZM303.26,216.75C304.49,216.79 305.73,216.82 306.98,216.85C306.74,212.8 306.25,208.76 305.39,204.79C304.17,208.67 303.62,212.71 303.26,216.75ZM314.72,201.62C315.59,196.91 321.6,196.25 325.24,197.86C328.39,199.8 327.8,203.78 327.93,206.94C326.71,206.88 325.51,206.82 324.3,206.77C323.76,204.98 323.2,203.2 322.59,201.44L320.03,201.16C318.24,205.91 318.95,211.07 318.78,216.04C318.63,218.42 319.2,220.74 320.11,222.93C321.31,222.6 322.51,222.28 323.71,221.95C323.74,220.03 323.89,218.1 323.66,216.2C322.84,214.24 321.65,212.46 320.97,210.44C323.31,210.29 325.67,210.21 328.02,210.13C328.21,214.54 328.84,219.17 327.38,223.44C325.11,228.99 314.85,227.93 314.55,221.62C314.36,214.97 314.07,208.24 314.72,201.62ZM331.8,197.25C333.2,197.24 334.6,197.21 336,197.19C337.02,205.75 334.82,214.63 337.21,222.98C338.51,222.51 340.79,222.85 340.59,220.83C341.25,212.98 340.19,205.08 341.07,197.25C342.45,197.23 343.83,197.21 345.21,197.2C345.71,203.46 345.36,209.74 345.47,216.01C345.39,218.97 345.73,222.32 343.74,224.79C342.1,227.27 338.78,227.06 336.2,226.73C333.17,226.19 331.44,222.95 331.58,220.06C331.51,212.46 331.33,204.84 331.8,197.25ZM349.83,198.84C351.72,196.61 355.01,196.96 357.58,197.45C360.97,198.63 361.85,202.33 361.72,205.53C360.38,205.5 359.06,205.47 357.73,205.45C357.1,204.05 356.47,202.66 355.83,201.27C355.19,201.31 353.9,201.39 353.26,201.42C353.01,203.11 351.97,205.06 353.33,206.55C355.92,210.49 361.18,212.96 361.58,218.12C362.13,221.34 361.13,225.51 357.65,226.56C355.05,226.9 351.57,227.65 349.78,225.18C348.03,223.3 348.32,220.57 348.06,218.22C349.21,218.23 350.37,218.25 351.52,218.26C352.26,220.75 353.4,223.5 356.52,222.65C356.61,220.94 357.18,219.12 356.52,217.47C354.43,213.71 350.11,211.59 348.58,207.48C347.9,204.64 347.69,201.13 349.83,198.84ZM371.24,200.24C372.68,196.51 377.38,196.9 380.59,197.51C384.27,199.07 384.3,203.57 384.19,206.97C382.94,206.89 381.7,206.8 380.46,206.72C379.87,204.97 379.66,203 378.45,201.53C377.49,201.43 376.53,201.36 375.58,201.34C375.32,208.49 373.58,216.06 376.11,222.96C377.31,222.62 378.52,222.28 379.73,221.93C380.47,217.75 378.62,214.07 377.48,210.21C379.62,210.2 381.76,210.22 383.9,210.23C383.91,215.45 385.85,222.28 381.21,226.11C378.96,227.34 376.03,227.05 373.65,226.3C369.57,224.07 370.48,218.88 370.38,215.02C370.68,210.11 369.69,204.98 371.24,200.24ZM386.87,197.27C391.13,197.11 395.39,197.08 399.64,197.28C399.61,198.4 399.59,199.52 399.58,200.65C396.95,200.77 394.32,200.95 391.7,201.17C391.45,204.04 391.43,206.92 391.67,209.79C393.66,210 395.65,210.21 397.65,210.43C397.65,211.49 397.65,212.54 397.67,213.6C395.58,213.87 393.49,214.13 391.4,214.4C391.4,217.17 391.39,219.94 391.39,222.72C394.04,222.95 396.7,223.15 399.37,223.3C399.36,224.46 399.36,225.62 399.35,226.78C395.16,226.89 390.96,226.89 386.78,226.76C386.52,216.94 386.42,207.09 386.87,197.27ZM401.76,197.15C403.96,197.2 406.17,197.26 408.38,197.35C409.31,203.67 409.77,210.08 411.42,216.27C412.68,210 413.18,203.61 414.31,197.31C416.46,197.27 418.61,197.22 420.77,197.17C420.73,207.01 420.83,216.86 420.72,226.71C419.37,226.74 418.03,226.78 416.7,226.84C416.3,219.87 416.46,212.89 416.61,205.92C414.94,212.8 414.52,219.9 412.92,226.79C411.69,226.76 410.45,226.74 409.22,226.72C407.94,220.49 407.47,214.15 406.48,207.88C405.25,214.11 405.88,220.48 405.72,226.78C404.46,226.77 403.21,226.76 401.96,226.76C401.36,216.9 401.73,207.01 401.76,197.15ZM424.82,197.22C426.3,197.2 427.79,197.17 429.28,197.15C429.56,207.02 429.5,216.92 429.26,226.8C427.76,226.79 426.26,226.78 424.76,226.79C424.52,216.94 424.53,207.07 424.82,197.22ZM432.83,197.24C434.32,197.21 435.81,197.17 437.3,197.13C437.66,205.65 437.32,214.19 437.4,222.71C439.88,222.94 442.36,223.17 444.84,223.36C444.84,224.48 444.84,225.59 444.86,226.71C440.83,226.83 436.8,226.81 432.78,226.76C432.6,216.92 432.51,207.07 432.83,197.24ZM451.35,197.16C453.36,197.21 455.38,197.27 457.4,197.37C459.04,207.16 461.22,216.91 461.87,226.82C460.45,226.78 459.05,226.75 457.64,226.71C457.33,224.82 456.99,222.93 456.63,221.04C454.97,221.07 453.32,221.14 451.67,221.24C451.33,223.06 450.96,224.88 450.58,226.69C449.31,226.73 448.05,226.78 446.79,226.82C447.88,216.88 449.67,207.02 451.35,197.16ZM452.57,216.94C453.43,216.93 455.15,216.92 456.01,216.91C455.75,212.23 454.84,207.62 454.42,202.96C453.43,207.56 452.43,212.2 452.57,216.94ZM464.84,197.15C466.75,197.19 468.66,197.24 470.59,197.3C472.02,202.59 472.97,208.01 474.64,213.24C474.97,207.88 475.25,202.53 475.26,197.17C476.51,197.2 477.77,197.22 479.03,197.25C479.7,207.08 479.44,216.97 479.13,226.81C477.53,226.76 475.94,226.72 474.36,226.69C472.77,220.4 471.3,214.07 469.4,207.86C469.22,214.18 468.66,220.48 468.74,226.81C467.43,226.79 466.12,226.78 464.82,226.78C464.46,216.91 464.6,207.02 464.84,197.15ZM482.25,200.25C484.02,196.73 488.86,196.63 492.07,197.91C495.66,199.46 494.64,203.76 494.8,206.88C493.58,206.86 492.37,206.85 491.16,206.83C490.77,205.06 490.43,203.27 490.08,201.49C488.77,201.57 487.47,201.67 486.18,201.78C485.79,208.54 485.82,215.32 486.22,222.08C487.47,222.34 488.72,222.6 489.98,222.87C490.62,220.42 490.75,217.88 490.63,215.36C489.34,213.89 488.41,212.16 488.21,210.2C490.45,210.16 492.69,210.15 494.93,210.18C495.37,214.84 495.66,219.73 494.15,224.23C491.11,228.32 482.99,227.76 481.68,222.4C480.96,217.97 481.59,213.46 481.37,209C481.47,206.09 480.92,202.95 482.25,200.25ZM505.28,202.17C505.72,195.69 517.3,195.21 518.23,201.67C518.51,202.96 518.62,204.27 518.79,205.59C517.41,205.57 516.04,205.56 514.68,205.56C514.14,204.09 513.6,202.63 513.07,201.17C511.08,201.4 508.94,202.67 509.66,205C511.56,210.37 518.9,212.71 518.7,219.01C519.11,222.05 517.72,225.58 514.58,226.5C512,226.99 508.85,227.21 506.81,225.23C504.52,223.61 505.4,220.52 505.12,218.14C506.28,218.2 507.44,218.25 508.61,218.31C509.38,219.87 510.16,221.44 510.98,223C511.95,222.59 512.93,222.18 513.91,221.78C514.95,216.42 510.02,213.47 507.02,209.97C505.04,207.89 504.99,204.85 505.28,202.17ZM520.85,197.26C525.01,196.84 529.2,196.71 533.37,197.15C533.32,198.3 533.27,199.46 533.22,200.62C530.61,200.76 528.01,200.99 525.42,201.27C525.45,204.04 525.44,206.81 525.4,209.58C526.92,209.77 528.45,209.94 529.97,210.22C532.03,210.09 531.31,212.52 531.39,213.75C529.38,213.96 527.38,214.17 525.38,214.39C525.41,217.13 525.42,219.88 525.42,222.62C527.59,222.81 529.77,222.97 531.94,223.31C533.98,223.16 533.28,225.6 533.42,226.82C529.27,226.88 525.12,226.86 520.97,226.71C520.31,216.91 520.64,207.07 520.85,197.26ZM535.77,197.16C537.85,197.2 539.94,197.24 542.03,197.27C543.65,203.52 543.59,210.06 545.39,216.27C546.69,209.96 547.27,203.54 548.36,197.2C550.46,197.17 552.58,197.16 554.7,197.15C554.7,207.02 554.89,216.88 554.74,226.74C553.42,226.75 552.1,226.76 550.78,226.78C550.2,219.84 550.6,212.88 550.42,205.92C549,212.84 548.5,219.91 547,226.8C545.74,226.77 544.48,226.74 543.23,226.71C541.69,221.12 542.19,215.1 540.04,209.69C539.41,215.37 539.93,221.09 539.71,226.79C538.41,226.77 537.12,226.77 535.84,226.77C535.48,216.91 535.64,207.03 535.77,197.16ZM558.96,197.21C563.08,197.12 567.2,197.13 571.32,197.21C571.32,198.36 571.33,199.52 571.33,200.69C568.69,200.84 566.05,201.07 563.42,201.3C563.44,204.03 563.43,206.77 563.41,209.51C565.61,209.9 567.8,210.32 569.98,210.83C569.77,214.6 565.82,213.56 563.54,215.11C563.29,217.67 563.51,220.24 563.68,222.81C566.38,222.98 569.08,223.18 571.79,223.33C571.56,224.45 571.33,225.58 571.11,226.72C567.05,226.83 562.99,226.83 558.93,226.74C558.61,216.91 558.39,207.04 558.96,197.21ZM573.42,201.32C574.78,195.66 584.29,195.49 586.07,200.94C586.55,202.45 586.58,204.06 586.77,205.64C585.42,205.57 584.09,205.52 582.76,205.46C582.1,203.96 581.42,202.48 580.72,201.01C579.34,201.65 577.13,201.92 577.63,204.01C578.18,209.75 585.57,211.62 586.56,217.23C587,220.53 586.57,224.46 583.54,226.45C580.66,226.91 576.97,227.63 574.72,225.26C572.73,223.43 573.33,220.49 573.02,218.08C574.24,218.14 575.46,218.21 576.68,218.28C577.26,219.81 577.84,221.35 578.44,222.87C579.62,222.57 580.8,222.25 582,221.93C583.32,216.48 577.87,213.64 575.03,209.99C572.8,207.7 572.82,204.25 573.42,201.32ZM588.87,197.13C593.5,196.65 598.15,197.02 602.78,197.34C602.75,198.38 602.72,199.43 602.71,200.47C601.19,200.7 599.68,200.94 598.18,201.19C598.09,209.77 597.94,218.35 597.78,226.93C596.32,226.87 594.88,226.81 593.45,226.76C593.25,218.58 593.73,210.38 593.25,202.22C592.14,200.76 590,200.77 588.43,200.02C588.54,199.3 588.76,197.85 588.87,197.13ZM606.23,197.18C608.31,197.19 610.4,197.21 612.5,197.25C614.02,207.08 616.24,216.84 616.9,226.78C615.62,226.79 614.36,226.8 613.1,226.81C612.56,224.94 612.05,223.07 611.54,221.2C610.08,221.14 608.64,221.1 607.2,221.05C606.63,222.94 606.11,224.85 605.6,226.76C604.42,226.81 603.25,226.86 602.08,226.91C602.49,216.9 604.75,207.07 606.23,197.18ZM607.27,216.78C608.47,216.8 609.69,216.82 610.91,216.84C610.74,212.77 610.31,208.72 609.41,204.75C608.18,208.65 607.68,212.73 607.27,216.78ZM594.92,241C609.98,247.89 622.41,260.18 630.36,274.64C640.63,294.14 641.27,317.16 637.37,338.45C629.58,339.91 621.21,341.62 615.32,347.34C609.29,353.33 609.4,363.06 612.5,370.47C614.52,376.51 620.73,380.66 627.02,380.68C630.14,380.73 633.56,381.06 636.34,379.29C638.91,377.66 641.77,375.24 641.62,371.9C642.12,366.96 638.6,362.8 634.87,360.08C636.28,364.01 640.73,368.38 637.59,372.58C635.14,376.52 630.02,375.89 626.06,375.69C620.66,375.44 615.52,371.42 614.68,365.96C613.85,360.88 614.03,354.85 617.95,351.01C621.74,347.37 626.88,345.47 631.96,344.44C644.44,341.81 657.4,345.59 668.33,351.65C670.72,352.83 673.12,354.61 675.94,354.23C681.66,353.82 687.33,352.81 693.05,352.44C689.64,356.89 685.18,360.32 681.14,364.16C668.14,376.75 653.62,387.75 638.21,397.21C619.25,408.62 597.56,417.53 575.03,416.14C557.31,415.55 538.98,412.06 524.06,401.97C513.73,394.89 506.22,383.58 504.55,371.07C503.17,359.24 504.61,347.12 508.48,335.86C512.66,339.22 515.9,343.63 520.43,346.59C531.68,355.2 545.94,359.28 560,359.29C575.95,358.73 591.64,352.23 603.16,341.17C611.09,333.83 616.63,324.22 620.01,314.02C626.3,294.15 622.43,271.1 609.1,254.92C605.18,249.49 599.83,245.45 594.92,241ZM424.43,237.75C440.26,235.4 457.23,239.08 469.91,249.06C478.81,255.8 485.74,265.17 489.44,275.73C494.55,288.84 494.06,303.84 489.04,316.91C483.85,330.79 472.93,342.22 459.73,348.77C444.18,356.06 425.37,356.51 409.74,349.2C398.59,343.71 388.65,335.21 382.8,324.12C375.72,311.45 374.01,296.17 377.11,282.08C380.08,269.36 387.63,257.94 397.72,249.73C405.51,243.71 414.74,239.51 424.43,237.75ZM427.4,258.54C414.15,260.77 402.76,270.74 398.44,283.4C396.43,289.02 396.21,295.13 396.8,301.03C398.12,311.78 404.76,321.4 413.62,327.43C423.24,333.84 435.82,335.17 446.74,331.63C457.47,327.71 466.38,318.95 470.13,308.12C474.99,294.69 471.07,278.98 461.02,268.98C452.41,260.28 439.43,256.17 427.4,258.54ZM547.43,238.33C563.12,235.03 580.19,238.45 593.32,247.7C603.05,255.03 611.89,264.95 614.48,277.15C607.32,277.56 600.15,277.39 592.99,277.3C589.18,272.4 585.44,267.2 579.98,264.01C572.95,259.33 564.34,257.2 555.94,258.09C540.8,259.52 526.89,270.64 523.08,285.53C549.72,285.6 576.36,285.54 603,285.56C607.83,285.61 612.74,285.07 617.5,286.24C619.51,299.78 617.09,314.1 609.88,325.83C601.08,341.29 584.54,351.77 566.99,354.03C555.88,355.35 544.36,353.64 534.25,348.79C519.99,342.27 508.49,329.4 503.95,314.39C511.49,314.12 519.03,314.21 526.58,314.39C531.46,323.16 540.03,329.56 549.59,332.39C559.92,334.94 571.46,333.45 580.29,327.29C587.81,322.49 593.23,314.84 595.9,306.38C569.93,306.3 543.97,306.36 518,306.34C512.48,306.28 506.91,306.77 501.45,305.71C499.74,292.86 501.31,279.26 507.87,267.9C515.69,252.73 530.76,241.74 547.43,238.33ZM376.06,345.32C382.83,345.39 389.61,345.35 396.38,345.41C397.15,354.67 400.68,363.98 407.6,370.39C416.93,379.89 431.43,383.7 444.25,380.21C452.91,378.22 459.93,372.06 465.3,365.23C469.72,359.53 471.49,352.4 472.41,345.38C479.21,345.38 486.01,345.37 492.82,345.36C492.94,358.29 487.62,370.75 479.95,380.95C474.83,387.26 468.14,392.22 461.04,396.08C444.79,404.21 424.77,404.56 408.42,396.54C397.22,390.68 387.37,381.69 381.82,370.2C378.13,362.49 375.37,353.96 376.06,345.32Z" style="fill:rgb(84,84,84);"/>
        </g>
    </g>
</svg>
