<?xml version="1.0" encoding="UTF-8" standalone="no"?>
<!DOCTYPE svg PUBLIC "-//W3C//DTD SVG 1.1//EN" "http://www.w3.org/Graphics/SVG/1.1/DTD/svg11.dtd">
<svg width="100%" height="100%" viewBox="0 0 1081 1044" version="1.1" xmlns="http://www.w3.org/2000/svg" xmlns:xlink="http://www.w3.org/1999/xlink" xml:space="preserve" xmlns:serif="http://www.serif.com/" style="fill-rule:evenodd;clip-rule:evenodd;stroke-linejoin:round;stroke-miterlimit:2;">
    <g transform="matrix(1,0,0,1,2272,-18)">
        <g transform="matrix(4.63978,0,0,4.63978,-2648.13,-369.923)">
            <path d="M118.18,83.66C158.77,83.64 199.37,83.73 239.96,83.76C256.67,83.26 272.73,92.54 281.93,106.26C295.8,126.19 294.08,155.18 278.59,173.73C283.02,183.66 288.84,193.23 290.55,204.13C293.11,218.51 289.56,233.91 280.77,245.6C271.96,257.61 257.79,265.57 242.9,266.54C232.24,267.12 221.56,266.7 210.89,266.71C215.72,255.49 219.55,243.86 224.52,232.69C229.72,232.51 234.94,232.67 240.13,232.19C247,231.43 253.51,226.81 255.58,220.07C257.5,213.93 257.45,206.72 253.86,201.17C250.45,195.88 244.29,192.5 238,192.51C224.59,192.41 211.18,192.41 197.77,192.46C187.33,217.29 176.71,242.03 166.19,266.82C151.88,266.74 137.57,267.05 123.27,266.67C138.95,230.35 154.4,193.94 169.91,157.55C192.61,157.54 215.3,157.62 238,157.51C243.82,157.55 249.64,154.79 253.05,150.03C258.6,142.05 258.45,129.72 251.01,122.95C247.29,119.4 242.08,117.82 237.01,117.87C192.55,117.56 148.1,117.48 103.65,117.42C108.46,106.16 113.37,94.93 118.18,83.66ZM81.11,284.38C87.05,284.6 93.07,283.93 98.97,284.74C103.51,286.31 104.56,292.17 101.75,295.77C105.53,299.19 104.06,306.32 98.92,307.44C93.02,307.87 87.08,307.41 81.16,307.65C81.17,299.9 81.25,292.14 81.11,284.38ZM86.46,304.19C89.94,303.93 93.57,304.69 96.95,303.64C99.6,302.65 98.92,298.18 96.17,297.81C92.92,297.57 89.66,297.76 86.41,297.74C86.41,299.89 86.42,302.04 86.46,304.19ZM86.43,287.78C86.41,289.94 86.41,292.11 86.41,294.28C89.44,294.28 92.47,294.25 95.5,294.39C98.6,293.2 98.63,288.92 95.55,287.71C92.51,287.86 89.47,287.83 86.43,287.78ZM126.48,290.02C126.14,287.01 128.92,284.01 132,284.41C136.05,284.4 140.11,284.29 144.17,284.45C146.84,284.61 149.01,287.29 148.7,289.95C148.69,294.29 148.8,298.65 148.65,303C148.7,305.37 145.69,306.19 145.51,308.57C144.9,308.24 144.29,307.91 143.69,307.58C139.75,307.56 135.81,307.63 131.87,307.59C128.87,307.84 126.17,304.92 126.48,301.98C126.45,297.99 126.47,294 126.48,290.02ZM133.92,288.01C132.55,288.23 131.63,289.65 131.78,291.01C131.73,294.74 131.59,298.48 131.87,302.21C132.98,304.53 135.8,304.24 137.95,304.2C139.8,304.11 142.41,304.34 143.29,302.26C143.52,298.07 143.5,293.87 143.3,289.68C141.38,286.56 136.93,288.01 133.92,288.01ZM151.64,291.01C151.6,287.62 154.5,284.59 157.87,284.43C163.17,284.27 168.48,284.47 173.79,284.35C173.84,285.2 173.95,286.9 174.01,287.75C168.54,288.28 162.84,286.86 157.56,288.71C156.59,293.49 156.46,298.52 157.62,303.27C162.87,304.96 168.47,303.84 173.89,304.16C173.87,305.3 173.85,306.45 173.84,307.6C168.59,307.56 163.35,307.68 158.11,307.57C154.66,307.51 151.63,304.49 151.65,301.03C151.57,297.69 151.56,294.35 151.64,291.01ZM192.49,284.41C194.7,284.37 196.91,284.37 199.11,284.42C195.6,288.25 192.12,292.12 188.63,295.98C192.12,299.86 195.62,303.73 199.15,307.58C196.93,307.6 194.71,307.61 192.49,307.58C189.17,303.67 185.67,299.93 182.4,295.98C185.69,292.05 189.15,288.29 192.49,284.41ZM201.2,284.37C202.99,284.37 204.79,284.37 206.59,284.39C210.38,289.67 214.04,295.07 218.16,300.1C218.22,294.85 218.18,289.6 218.17,284.36L223.45,284.36C223.42,292.11 223.41,299.87 223.47,307.62C221.71,307.59 219.95,307.64 218.21,307.49C214.03,302.49 210.55,296.95 206.53,291.83C206.41,297.08 206.51,302.35 206.47,307.61C204.71,307.6 202.94,307.59 201.18,307.59C201.25,299.85 201.19,292.11 201.2,284.37ZM226.58,290.01C227.5,286.88 230.55,284.3 233.89,284.42C238.78,284.26 243.68,284.43 248.57,284.38C248.59,285.52 248.62,286.66 248.64,287.8C244.09,287.98 239.48,287.47 234.97,288.05C232.1,288.64 231.4,291.77 231.46,294.28C237.18,294.24 242.89,294.25 248.61,294.25L248.58,297.7C242.86,297.71 237.15,297.68 231.44,297.7C231.51,299.74 231.94,301.74 233.29,303.35C234.26,302.98 235.22,302.6 236.22,302.3L233.27,304.08C238.37,304.19 243.48,304.18 248.58,304.12C248.59,304.99 248.6,306.74 248.6,307.61C243.74,307.54 238.87,307.7 234.01,307.56C230.04,307.72 226.32,304.06 226.36,300.09C226.32,296.74 226.11,293.34 226.58,290.01ZM250.54,284.4C252.36,284.35 254.19,284.32 256.01,284.29C257.83,289.62 259.67,294.95 261.85,300.15C263.63,294.81 265.65,289.56 267.57,284.27C269.4,284.33 271.23,284.38 273.06,284.46C274.96,289.5 276.2,294.86 278.87,299.56C280.85,294.52 282.6,289.39 284.48,284.32C286.27,284.33 288.07,284.33 289.87,284.34C286.98,292.07 284.21,299.84 281.43,307.61C279.58,307.59 277.74,307.58 275.91,307.56C274.1,302.13 272.03,296.78 270.07,291.4C268.54,296.94 266.24,302.21 264.37,307.64C262.57,307.6 260.77,307.58 258.97,307.56C256.23,299.82 253.51,292.06 250.54,284.4ZM292.97,295.09C289.89,291.44 292.27,285.1 297.02,284.51C302.19,284.19 307.39,284.47 312.57,284.37L312.57,287.84C307.64,288.09 302.53,287.08 297.74,288.59C297.48,289.17 296.96,290.33 296.69,290.91C296.98,291.57 297.54,292.88 297.82,293.54C302.53,295.4 309.01,292.07 312.5,296.67C315.66,300.46 313.06,307.16 308.07,307.53C302.89,307.72 297.7,307.52 292.51,307.61C292.51,306.74 292.52,305 292.53,304.13C297.08,304.01 301.7,304.53 306.21,303.86C308.67,303.49 308.66,300.9 308.37,298.95C307.83,298.62 306.74,297.96 306.2,297.64C301.81,297.18 296.17,299.12 292.97,295.09ZM106.72,284.4L112.24,284.34C112.33,289.6 112.12,294.86 112.33,300.11C112.36,301.4 113.31,302.38 113.84,303.48C117.28,304.44 120.87,304.15 124.4,304.16C124.39,305.31 124.39,306.46 124.39,307.61C120.91,307.55 117.42,307.72 113.95,307.52C110.1,307.34 106.95,303.78 106.83,299.99C106.68,294.8 106.87,289.6 106.72,284.4ZM176.73,284.4C178.57,284.38 180.41,284.37 182.25,284.36C182.23,292.11 182.22,299.87 182.24,307.62C180.4,307.61 178.57,307.6 176.73,307.59C176.76,299.86 176.75,292.13 176.73,284.4Z" style="fill:rgb(84,84,84);"/>
        </g>
    </g>
</svg>
