<?xml version="1.0" encoding="UTF-8" standalone="no"?>
<!DOCTYPE svg PUBLIC "-//W3C//DTD SVG 1.1//EN" "http://www.w3.org/Graphics/SVG/1.1/DTD/svg11.dtd">
<svg width="100%" height="100%" viewBox="0 0 1818 369" version="1.1" xmlns="http://www.w3.org/2000/svg" xmlns:xlink="http://www.w3.org/1999/xlink" xml:space="preserve" xmlns:serif="http://www.serif.com/" style="fill-rule:evenodd;clip-rule:evenodd;stroke-linejoin:round;stroke-miterlimit:2;">
    <g transform="matrix(1,0,0,1,-162,-213)">
        <g id="Artboard2" transform="matrix(1,0,0,1,-0.856764,-0.875332)">
            <rect x="162.857" y="213.875" width="1817.67" height="368.117" style="fill:none;"/>
            <g transform="matrix(0.680323,0,0,0.680323,200.864,258.538)">
                <path d="M106.31,33.92C135.27,16.62 169.43,9.01 202.99,9.54C219.04,9.82 234.98,12.4 250.43,16.71C243.98,17.16 237.46,17.43 231.21,19.22C212.95,24.18 196.8,34.66 181.97,46.11C167.62,56.98 154.73,69.91 138.98,78.86C131.83,83.04 123.97,86.09 115.78,87.41C122.91,69.61 119.26,48.13 106.31,33.92ZM595.88,10C620.24,10 644.61,9.99 668.98,10.01C678.77,10 688.72,11.31 697.79,15.19C710.25,20.27 720.07,31.12 723.97,43.99C728.47,59.03 727.37,75.53 722.06,90.22C718.56,99.94 711.45,107.95 702.72,113.34C714.67,117.02 724.48,126.27 729.37,137.71C735.93,152.7 735.97,170 731.38,185.55C728.12,196.22 722.43,206.58 713.42,213.44C701.63,222.29 686.4,224.62 672.02,224.83C646.64,224.91 621.26,224.84 595.88,224.87C595.87,153.24 595.88,81.62 595.88,10ZM633.6,123.6L633.6,206.4C643.71,206.33 653.82,206.56 663.93,206.27C673.21,205.98 683.13,202.56 688.48,194.54C694.77,185.01 695.41,173.09 695.3,162.01C695.13,152.38 694.14,141.92 687.92,134.11C681.79,126.51 671.55,123.22 662.04,123.58C652.56,123.63 643.08,123.58 633.6,123.6ZM633.57,29.47C633.68,55.25 633.51,81.04 633.65,106.83C642.78,106.74 651.91,106.87 661.05,106.77C669.03,106.69 677.23,103.71 682.5,97.54C690.17,88.67 691.99,76.35 691.67,65C691.36,55.51 690.9,45.08 684.77,37.3C680.13,31.37 672.27,29.3 665.04,29.4C654.55,29.43 644.05,29.32 633.57,29.47ZM773.98,10C799.33,10.06 824.68,9.88 850.02,10.09C864.6,10.5 880.37,12.49 891.99,22.1C902.42,30.84 905.96,44.93 906.69,57.97C907.19,70.95 906.63,84.04 904.38,96.85C902.63,107.02 899.03,117.24 892.05,125.04C886.09,131.76 877.83,136.06 869.22,138.27C850.44,143.07 830.87,141.19 811.71,141.6C811.7,159.4 811.7,177.2 811.71,195C812.11,203.53 811.24,213.39 804.13,219.19C795.74,226.2 784.16,224.73 774.01,224.87C773.96,153.25 773.99,81.63 773.98,10ZM811.66,29.51C811.74,60.49 811.72,91.47 811.67,122.45C820.13,122.6 828.59,122.57 837.05,122.47C845.06,122.31 853.8,120.51 859.36,114.25C866.23,106.58 867.67,95.83 868.49,85.96C869.17,74.5 869.13,62.92 867.26,51.57C866.02,45.21 864.05,38.39 858.9,34.07C853.92,30 847.15,29.42 840.97,29.39C831.2,29.47 821.42,29.26 811.66,29.51ZM947.13,9.95C955.57,10.14 964.5,9 972.4,12.66C977.89,15.06 981.98,20.13 983.48,25.91C984.89,31.17 984.48,36.67 984.55,42.06C984.51,85.68 984.62,129.3 984.49,172.92C984.45,187.38 979.83,202.83 968.08,212.09C953.8,223.41 934.62,225.23 917.03,224.89C901.38,224.88 885.34,220.84 872.8,211.18C864.97,205.31 859.1,197.19 855.07,188.34C860.79,185.88 867.27,183.85 873.47,185.71C880.57,187.82 884.89,194.39 891.23,197.83C900.16,202.88 910.78,204.12 920.88,203.38C928.4,202.61 936.61,200.68 941.76,194.7C946.52,188.95 947.07,181.08 947.13,173.93C947.14,119.27 947.13,64.61 947.13,9.95ZM1036.35,29.41C1047.75,16.61 1065.13,10.65 1081.94,10.1C1097.72,9.26 1114.59,12.44 1126.97,22.85C1132.48,27.43 1136.47,33.62 1138.89,40.33C1133.61,42.47 1127.63,43.6 1122.1,41.73C1115.63,39.94 1110.98,34.61 1104.66,32.5C1096.12,29.49 1086.64,29.74 1077.95,32.01C1069.17,34.29 1061.36,40.89 1058.81,49.75C1056.04,59.4 1056.81,70.75 1063.14,78.89C1069.48,86.7 1077.82,92.6 1086.47,97.59C1098.21,104.61 1111.14,109.55 1122.2,117.7C1134.2,126.2 1145.14,138.02 1148.19,152.83C1150.82,166.03 1149.53,180.25 1143.24,192.27C1137.52,203.42 1127.63,212.09 1116.31,217.25C1101.89,224.01 1085.6,225.82 1069.86,224.56C1053.72,223.16 1037.59,216.51 1026.66,204.28C1022.37,199.65 1019.25,194.12 1016.5,188.49C1022.26,185.91 1028.9,183.9 1035.16,185.89C1041.76,187.94 1045.93,193.87 1051.67,197.35C1059.77,202.37 1069.58,203.91 1078.98,203.43C1089.71,202.75 1100.72,198.04 1107.05,189.06C1115.96,176.57 1114.19,157.64 1102.63,147.38C1092.66,138.61 1080.53,132.82 1069.44,125.65C1056.86,117.98 1044.34,109.5 1035.31,97.66C1029.69,90.22 1025.63,81.45 1024.66,72.11C1022.73,57.13 1026.02,40.85 1036.35,29.41ZM58.51,26.68C70.32,24.05 83.24,26.81 92.83,34.23C101.6,40.85 107.58,51.06 108.96,61.97C110.64,73.96 106.75,86.59 98.58,95.54C89.82,105.44 76.12,110.6 63,109.09C51.44,107.92 40.56,101.57 33.75,92.16C26.57,82.47 24.02,69.58 26.84,57.86C30.3,42.54 43.16,29.94 58.51,26.68ZM23.56,156.14C22.1,139.21 27.37,122.32 35.72,107.74C50.3,119.97 71.73,122.75 89.07,115.01C88.22,121.9 86.07,128.63 82.51,134.6C73.5,150.1 58.49,161.02 49.39,176.47C45.17,183.29 42.45,190.98 41.26,198.91C31.87,186.48 24.8,171.83 23.56,156.14ZM356.53,239.4C362.72,231.04 367.15,221.31 368.64,210.97C378.46,224 385.75,239.5 386.47,256.01C387.39,272.2 381.98,287.97 374.42,302.06C368,297.43 360.99,293.45 353.18,291.81C342.44,289.29 330.99,290.49 320.89,294.84C321.61,287.69 324.01,280.75 327.76,274.63C335.56,261.5 347.64,251.72 356.53,239.4ZM775.37,285.4C779.75,285.4 784.13,285.4 788.51,285.41C788.5,315.8 788.51,346.2 788.51,376.6C784.35,376.59 780.19,376.59 776.04,376.63C776,374.41 775.96,372.19 775.97,369.98C772.72,372.81 769.21,375.59 764.98,376.72C756.41,378.96 746.18,376.8 740.68,369.47C734.36,361.16 733.24,350.17 733.59,340.06C734.25,330.18 736.99,319.48 744.82,312.81C753.48,305.79 768.23,305.92 775.38,315.07C775.34,305.18 775.37,295.29 775.37,285.4ZM757.52,318.65C751.7,320.64 749.29,327.04 748.36,332.6C747.32,340.02 747.25,347.7 749.05,355.01C750.14,359.46 752.58,364.09 757.04,365.9C763.41,368.34 770.9,365.95 775.37,360.97C775.35,351.96 775.38,342.96 775.36,333.96C775.3,330.04 775.08,325.77 772.56,322.55C769.15,318.05 762.65,317.17 757.52,318.65ZM1286.75,285.51C1291.02,285.32 1295.29,285.41 1299.58,285.41C1299.57,315.8 1299.58,346.2 1299.57,376.6C1295.29,376.59 1291.02,376.68 1286.75,376.48C1286.83,346.16 1286.83,315.84 1286.75,285.51ZM2256.72,298.75C2261.09,290.23 2270.64,285.62 2279.93,285.08C2287.53,284.72 2295.52,285.05 2302.54,288.35C2303.5,292.67 2304.53,296.96 2305.56,301.27C2296.91,297.16 2286.59,295.51 2277.34,298.46C2270.5,300.62 2267.51,310.18 2272.32,315.63C2276.92,320.64 2283.76,322.47 2289.66,325.47C2298.13,329.15 2306.97,335 2309.44,344.46C2311.26,353.02 2309.56,362.92 2303.21,369.29C2297.39,375.08 2289,377.2 2281.05,377.77C2273.34,378.13 2265.36,377.65 2258.16,374.68C2256.37,374.37 2256.36,372.39 2255.93,371.05C2255.08,367.78 2254.28,364.51 2253.4,361.27C2262.55,364.33 2272.35,366.78 2282.04,365.04C2286.92,364.37 2291.69,361.29 2293.52,356.59C2295.05,352.09 2294.47,346.51 2290.84,343.17C2285.11,337.69 2277.58,334.84 2270.65,331.28C2264.88,328.48 2258.89,324.82 2256.3,318.66C2253.74,312.37 2253.6,304.87 2256.72,298.75ZM2537.72,285.51C2541.98,285.32 2546.25,285.4 2550.53,285.41C2550.52,315.8 2550.53,346.2 2550.53,376.59C2546.24,376.58 2541.96,376.71 2537.7,376.45C2537.82,346.14 2537.78,315.82 2537.72,285.51ZM595.88,285.8C606.59,285.83 617.3,285.72 628.02,285.86C635.7,286.05 644.13,287.55 649.72,293.28C656.35,300.22 656.5,311.29 652.71,319.67C650.53,324.66 645.31,326.95 640.8,329.34C647.85,330.51 654.99,334.6 657.32,341.74C659.74,349.96 658.51,359.47 653.56,366.55C648.68,373.42 639.89,375.78 631.89,376.3C619.93,376.9 607.96,376.43 596,376.64C595.71,346.36 595.95,316.08 595.88,285.8ZM610.74,335.67L610.74,363.53C617.48,363.41 624.23,363.83 630.96,363.25C635.76,362.91 640.82,360.1 642.14,355.19C643.4,350.4 643.34,344.81 640.33,340.65C638,337.38 633.84,336.22 630.03,335.93C623.61,335.46 617.17,335.73 610.74,335.67ZM610.75,298.06C610.73,306.66 610.74,315.26 610.74,323.87C616.21,323.78 621.69,324.07 627.15,323.7C631.5,323.33 636.15,321.34 638.23,317.27C641.18,311.14 639.67,302.03 632.77,299.31C625.67,297.07 618.07,298.45 610.75,298.06ZM960.07,285.81C970.03,285.82 980,285.73 989.96,285.85C998.84,286 1008.52,288.54 1014.18,295.87C1020.27,303.84 1020.99,314.58 1019.68,324.19C1018.58,332.5 1013.63,340.3 1006.07,344.13C996.55,349.14 985.48,347.36 975.17,347.77C975.12,357.39 975.34,367.02 975.05,376.65C970.07,376.57 965.1,376.58 960.13,376.63C960,346.36 960.11,316.08 960.07,285.81ZM975.18,298.07C975.18,310.51 975.2,322.94 975.17,335.37C981.42,335.13 987.84,336.15 993.98,334.57C1000.61,332.62 1004.6,325.74 1004.58,319.07C1005.06,311.93 1003.58,303.07 996.44,299.64C989.74,296.84 982.23,298.52 975.18,298.07ZM1800.01,285.8C1805.04,285.8 1810.07,285.79 1815.11,285.81C1815.12,302.54 1815.11,319.27 1815.12,336C1815.04,344.73 1815.49,353.65 1813.14,362.16C1811.15,369.49 1805.59,376.05 1798.17,378.2C1790.12,380.53 1781.17,380.11 1773.6,376.41C1772.51,372.04 1771.41,367.67 1770.27,363.32C1776.78,366.71 1784.88,369.01 1791.92,365.85C1796.56,363.75 1798.75,358.7 1799.39,353.91C1800.34,346.64 1799.89,339.29 1800.01,331.99C1800.01,316.59 1800,301.2 1800.01,285.8ZM1998.29,286.49C2002.6,284.3 2009.59,286.55 2009.62,292.05C2009.9,299.37 1998.6,301.55 1995.19,295.68C1993.17,292.43 1994.8,287.89 1998.29,286.49ZM2446.33,286.47C2450.61,284.34 2457.52,286.53 2457.61,291.97C2457.99,299.28 2446.76,301.55 2443.25,295.79C2441.13,292.53 2442.77,287.88 2446.33,286.47ZM334.23,301.33C345.61,299.07 357.92,301.73 367.21,308.73C376.53,315.57 382.78,326.42 383.93,337.94C385.27,349.86 381.11,362.25 372.86,370.95C364.34,380.17 351.49,385.11 339,384.03C327.09,383.15 315.77,376.8 308.72,367.18C300.87,356.76 298.49,342.54 302.37,330.1C306.67,315.64 319.4,304.14 334.23,301.33ZM676.87,311.98C684.09,307.68 692.95,307.04 701.12,308.17C707.49,309.05 713.93,312.14 717.27,317.86C720.29,322.64 720.22,328.51 720.27,333.96C720.29,348.13 720.2,362.3 720.32,376.47C716.87,376.55 713.33,376.98 709.96,376.12C707.04,374.6 708.28,370.65 707.81,367.99C701.31,377.94 686.45,380.37 676.54,374.37C665.56,366.78 665.98,348.37 676.71,340.72C685.45,334.52 696.81,333.91 707.12,335.09C707.28,329.76 707.67,322.85 702.23,319.86C693.24,315.76 682.1,317.76 674.34,323.66C675.29,319.79 675.62,315.76 676.87,311.98ZM687.23,346.17C679.82,350.03 679.84,362.93 687.72,366.23C694.34,369.02 703.4,366.32 706.54,359.64C707.69,354.58 706.91,349.3 707.08,344.16C700.49,343.32 693.27,342.91 687.23,346.17ZM810.5,312.26C815.82,308.5 822.7,307.71 829.07,307.68C836.86,307.76 845.59,309.93 850.28,316.69C854.03,321.63 854.05,328.11 854.07,334.02C853.99,348.23 854.2,362.43 853.96,376.64C850.62,376.51 847.2,376.91 843.92,376.17C840.75,374.83 842.06,370.67 841.79,367.99C834.98,377.88 820.02,380.53 810.02,374.16C801.75,368.14 800.07,355.67 805,347.01C807.39,342.49 811.71,339.33 816.38,337.48C824.13,334.37 832.72,334.12 840.92,335.1C841.16,329.58 841.37,322.21 835.39,319.54C826.45,315.97 815.61,317.81 808.1,323.77C808.99,319.95 809.48,316.05 810.5,312.26ZM821.12,346.11C813.81,349.84 813.56,362.35 821.04,366.01C827.73,369.18 837.19,366.43 840.37,359.55C841.46,354.51 840.71,349.28 840.89,344.16C834.32,343.32 827.15,342.92 821.12,346.11ZM882.2,317.96C888.11,307.16 903.7,304.95 913.48,311.55C920,316.54 921.23,325.33 920.96,333.01C920.91,347.55 921.04,362.1 920.89,376.64C916.62,376.58 912.36,376.58 908.1,376.63C908,362.09 908.1,347.55 908.05,333.02C907.92,328.72 907.82,323.67 904.4,320.56C898.58,316.15 888.68,317.26 884.82,323.79C882.19,328.02 882.24,333.2 882.24,338.01C882.29,350.84 882.19,363.67 882.29,376.5C877.91,376.67 873.52,376.58 869.13,376.61C869.07,354.22 869.17,331.83 869.08,309.44C873.47,309.38 877.86,309.39 882.25,309.41C882.25,312.26 882.26,315.11 882.2,317.96ZM1040.4,313.39C1047.29,307.87 1056.85,306.92 1065.24,308.74C1072.5,310.43 1078.31,316.18 1080.87,323.07C1083.96,330.46 1084.16,338.58 1084.29,346.46C1070.43,346.79 1056.56,346.49 1042.7,346.61C1042.43,354.22 1046.53,362.3 1054.08,364.78C1063.51,367.78 1074.59,366.8 1082.75,360.91C1082.07,364.85 1081.5,368.82 1080.79,372.76C1072.12,377.63 1061.66,378.48 1052.02,376.63C1044.57,375.15 1037.56,370.72 1033.84,363.99C1028.74,355.02 1028.14,344.18 1029.71,334.17C1031.02,326.41 1034.09,318.44 1040.4,313.39ZM1046.41,323.41C1043.59,327.53 1043.07,332.62 1042.66,337.47C1052.15,337.8 1061.65,337.47 1071.14,337.64C1071.12,331.23 1069.72,323.81 1064.13,319.87C1058.56,316.37 1049.96,317.55 1046.41,323.41ZM1110.37,317.98C1116.17,307.39 1131.15,305.1 1141.01,311.08C1147.09,315.26 1149.23,323.04 1149.12,330.09C1149.09,345.6 1149.29,361.13 1149.01,376.64C1144.75,376.58 1140.5,376.59 1136.26,376.61C1136.2,361.75 1136.3,346.88 1136.21,332.02C1136.09,327.61 1135.58,322.18 1131.38,319.68C1125.55,316.55 1117.01,317.55 1113.24,323.41C1110.78,327.08 1110.44,331.66 1110.44,335.97C1110.46,349.5 1110.42,363.03 1110.47,376.56C1106.07,376.62 1101.69,376.6 1097.3,376.6C1097.35,354.18 1097.18,331.76 1097.39,309.34C1101.74,309.43 1106.09,309.4 1110.45,309.4C1110.45,312.26 1110.44,315.12 1110.37,317.98ZM1236.02,309.42C1245.61,306.45 1257.69,307.38 1264.59,315.46C1271.79,324.01 1272.61,335.86 1272.51,346.56C1258.66,346.66 1244.81,346.54 1230.97,346.62C1231.04,352.01 1232.55,357.66 1236.69,361.37C1242.1,366.3 1249.95,366.75 1256.89,366.18C1262,365.78 1266.85,363.82 1271.03,360.89C1270.34,364.41 1270,367.99 1269.29,371.5C1269.15,373.08 1267.42,373.49 1266.29,374.16C1257.95,377.91 1248.36,378.32 1239.51,376.45C1231.56,374.74 1224.4,369.42 1221.03,361.95C1216.16,351.4 1216.28,339.05 1219.43,328.02C1221.76,319.75 1227.57,312.04 1236.02,309.42ZM1234.57,323.6C1231.89,327.75 1231.19,332.78 1231.08,337.63C1240.58,337.53 1250.09,337.69 1259.6,337.54C1259.2,332.14 1258.48,326.35 1254.88,322.05C1249.78,315.95 1238.61,316.66 1234.57,323.6ZM1325.58,313.63C1332.04,308.22 1341.06,307.09 1349.16,308.41C1355.63,309.48 1361.42,313.67 1364.59,319.41C1369.2,327.66 1369.75,337.36 1369.7,346.6C1355.91,346.55 1342.12,346.69 1328.34,346.53C1327.92,352.61 1330.33,359.03 1335.41,362.62C1340.76,366.38 1347.64,366.67 1353.95,366.19C1359.08,365.81 1363.99,363.88 1368.17,360.89C1367.55,364.75 1366.93,368.6 1366.42,372.48C1358.93,377.21 1349.65,378.1 1341.02,377.2C1333.19,376.39 1325.35,372.81 1320.75,366.24C1314.86,357.85 1313.69,347.06 1314.77,337.1C1315.75,328.46 1318.68,319.37 1325.58,313.63ZM1331.71,323.66C1329.05,327.8 1328.43,332.79 1328.2,337.59C1337.7,337.6 1347.21,337.61 1356.72,337.59C1356.43,332.14 1355.66,326.28 1351.97,321.98C1346.85,315.91 1335.7,316.72 1331.71,323.66ZM1395.91,317.72C1401.84,307.47 1416.31,305.23 1426.14,310.86C1432.1,314.75 1434.52,322.15 1434.55,328.98C1434.68,344.85 1434.56,360.72 1434.6,376.59C1430.28,376.6 1425.97,376.65 1421.67,376.51C1421.73,361.65 1421.73,346.79 1421.67,331.93C1421.55,327.42 1420.96,321.89 1416.54,319.5C1411.07,316.85 1403.45,317.44 1399.46,322.41C1396.53,325.9 1395.96,330.65 1395.91,335.05C1395.86,348.9 1395.96,362.76 1395.86,376.62C1391.48,376.58 1387.1,376.66 1382.72,376.52C1382.77,354.19 1382.81,331.86 1382.7,309.53C1387.08,309.29 1391.48,309.43 1395.88,309.38L1395.91,317.72ZM1459.39,311.36C1468.49,306.24 1481.87,307.2 1488.53,315.85C1488.64,313.47 1489.01,310.43 1491.72,309.65C1494.9,309.1 1498.16,309.47 1501.39,309.45C1501.28,317.31 1501.52,325.17 1501.28,333.03C1501.05,339.72 1498.1,346.58 1492.41,350.39C1486.49,354.55 1478.98,355.22 1471.96,355.06C1468.44,355.2 1464.55,354.68 1461.44,356.64C1459.62,357.89 1459.85,361.08 1461.96,361.93C1466.33,363.98 1471.35,363.17 1476.03,363.35C1483.61,363.39 1491.96,364.03 1498.03,369.09C1505.37,375.63 1504.25,388.71 1496.49,394.49C1489.31,400 1479.73,400.68 1471.01,400.22C1463.32,399.63 1454.62,397.66 1449.9,391.01C1445.48,384.51 1448.1,375.14 1454.48,370.93C1452.08,369.71 1449.44,368.36 1448.44,365.69C1447.01,361.67 1447.44,356.62 1450.56,353.47C1452.77,350.99 1456.11,350.18 1459.11,349.04C1455.62,345.67 1452.02,342.06 1450.95,337.12C1448.81,328.02 1450.74,316.48 1459.39,311.36ZM1469.42,318.61C1461.83,321.87 1461.52,332.2 1464.1,338.9C1467.6,348.4 1483.01,347.97 1486.81,338.96C1488.92,333.7 1488.86,327.18 1485.54,322.42C1481.89,317.59 1474.83,316.75 1469.42,318.61ZM1459.62,381.97C1459.52,385.26 1462.07,387.93 1464.93,389.18C1469.64,391.31 1475.06,391.57 1480.12,390.72C1483.63,390.02 1487.44,388.49 1489.23,385.17C1490.87,381.63 1489.16,377.06 1485.57,375.51C1478.8,372.43 1471.13,373.81 1463.94,373.42C1461.68,375.74 1459.53,378.56 1459.62,381.97ZM1524.59,311.65C1533.68,306.16 1547.19,307.13 1554.14,315.67C1554.27,313.32 1554.83,310.26 1557.55,309.61C1560.65,309.18 1563.81,309.45 1566.95,309.37C1567.03,317.6 1567.22,325.85 1566.86,334.08C1566.49,342.44 1561.02,350.35 1553,353.04C1545.26,356.29 1536.72,354.06 1528.77,355.81C1525.5,356.24 1524.77,361.23 1528.11,362.17C1534.51,364.39 1541.45,362.76 1548.08,363.59C1554.3,364.17 1561.1,365.78 1565.32,370.77C1570.43,377.33 1569.51,387.74 1563.42,393.39C1559.02,397.57 1552.92,399.36 1547.03,400.01C1540.15,400.73 1533.06,400.41 1526.43,398.37C1522.32,397.03 1518.28,394.85 1515.74,391.26C1512.48,386.72 1512.73,380.26 1515.64,375.61C1516.73,373.77 1518.66,372.6 1519.83,370.81C1513.08,368.62 1511.43,359.72 1515.43,354.41C1517.68,351.29 1521.47,350.05 1525.04,349.13C1521.21,345.87 1517.67,341.94 1516.55,336.89C1514.55,327.99 1516.38,316.91 1524.59,311.65ZM1535.31,318.53C1527.5,321.68 1527.09,332.27 1529.83,339.05C1533.49,348.57 1549.15,347.87 1552.64,338.59C1554.68,333.07 1554.47,326.12 1550.46,321.51C1546.67,317.5 1540.33,316.97 1535.31,318.53ZM1529.21,373.91C1526.03,376.69 1523.93,381.75 1526.34,385.65C1528.87,389.41 1533.69,390.6 1537.95,391.04C1543.21,391.46 1549.13,390.91 1553.28,387.3C1556.57,384.53 1556.08,378.77 1552.61,376.36C1548.97,373.81 1544.32,373.61 1540.05,373.48C1536.45,373.66 1532.65,372.91 1529.21,373.91ZM1585.76,311.91C1592.39,307.96 1600.45,307.21 1608,307.93C1614.54,308.55 1621.42,311.11 1625.28,316.73C1628.75,321.36 1629.02,327.39 1629.02,332.95C1628.96,347.51 1629.13,362.08 1628.92,376.65C1625.54,376.5 1622.1,376.92 1618.8,376.15C1615.73,374.72 1617.02,370.65 1616.76,367.98C1609.95,377.89 1594.96,380.53 1584.97,374.14C1573.82,366.02 1575,346.73 1586.84,339.78C1595.46,334.47 1606.08,333.96 1615.89,335.09C1616.11,329.6 1616.35,322.31 1610.45,319.58C1601.54,315.96 1590.63,317.75 1583.14,323.75C1584.06,319.83 1584.25,315.63 1585.76,311.91ZM1596.06,346.13C1588.52,350 1588.58,363.18 1596.7,366.33C1603.34,368.98 1612.38,366.19 1615.37,359.44C1616.39,354.43 1615.69,349.24 1615.85,344.16C1609.27,343.32 1602.09,342.92 1596.06,346.13ZM1665.84,308.89C1670.01,307.76 1674.79,308.07 1678.47,310.52C1680.14,314.39 1679.81,318.89 1680.84,322.98C1675.99,319.16 1668.73,317.68 1663.35,321.25C1658.79,324.13 1657.32,329.81 1657.18,334.89C1656.87,348.81 1657.38,362.75 1656.92,376.67C1652.62,376.56 1648.32,376.58 1644.03,376.63C1643.84,354.22 1644,331.81 1643.95,309.41C1648.32,309.4 1652.69,309.4 1657.07,309.41C1657.07,312.3 1657.1,315.2 1657.24,318.1C1659,314.25 1661.58,310.24 1665.84,308.89ZM1689.76,311.93C1697.7,307.58 1707.19,306.8 1715.99,308.49C1721.44,309.6 1726.79,312.37 1729.88,317.15C1732.92,321.46 1733.28,326.92 1733.32,332.02C1733.38,346.84 1733.26,361.67 1733.38,376.49C1729.92,376.54 1726.38,376.98 1723.01,376.11C1720.06,374.65 1721.38,370.65 1720.99,368.07C1714.22,377.83 1699.54,380.44 1689.56,374.34C1678.62,366.73 1679.06,348.35 1689.78,340.71C1698.51,334.52 1709.88,333.91 1720.19,335.09C1720.35,329.74 1720.72,322.75 1715.21,319.82C1706.21,315.79 1695.11,317.79 1687.38,323.68C1688.2,319.77 1688.96,315.85 1689.76,311.93ZM1700.22,346.22C1692.91,350.12 1692.93,362.85 1700.71,366.2C1707.33,369.04 1716.4,366.34 1719.6,359.68C1720.77,354.61 1719.97,349.31 1720.14,344.15C1713.52,343.33 1706.26,342.9 1700.22,346.22ZM1834.84,311.98C1842.8,307.55 1852.37,306.78 1861.21,308.52C1866.8,309.65 1872.25,312.62 1875.28,317.6C1878.09,321.84 1878.36,327.1 1878.43,332.04C1878.48,346.87 1878.39,361.7 1878.48,376.53C1874.96,376.5 1871.33,377.02 1867.93,376.04C1865.26,374.43 1866.47,370.74 1866.09,368.21C1859.17,377.78 1844.66,380.45 1834.68,374.35C1823.76,366.74 1824.15,348.47 1834.79,340.78C1843.54,334.52 1854.95,333.91 1865.3,335.08C1865.47,329.69 1865.81,322.61 1860.18,319.75C1851.21,315.81 1840.21,317.82 1832.5,323.65C1833.32,319.77 1834.09,315.87 1834.84,311.98ZM1845.94,345.87C1838.58,349.24 1837.78,361.18 1844.55,365.52C1851.2,369.44 1861.16,366.76 1864.65,359.81C1865.92,354.71 1865.05,349.37 1865.28,344.17C1858.85,343.32 1851.91,342.97 1845.94,345.87ZM1906.72,317.89C1911.95,307.81 1925.85,305.22 1935.28,310.67C1938.4,312.5 1940.37,315.68 1941.79,318.93C1947.39,308.18 1962.65,304.51 1972.58,311.35C1978.39,315.57 1980.07,323.25 1980.17,330.05C1980.34,345.52 1980.1,360.99 1980.29,376.47C1976,376.69 1971.72,376.58 1967.45,376.6C1967.43,362.4 1967.47,348.2 1967.43,334C1967.19,329.76 1967.33,324.97 1964.42,321.55C1961.45,317.91 1956.01,317.6 1951.82,318.9C1946.45,320.77 1943.61,326.61 1943.72,332.04C1943.48,346.89 1943.68,361.75 1943.62,376.6C1939.33,376.58 1935.05,376.7 1930.79,376.47C1930.91,362.64 1930.81,348.82 1930.85,334.99C1930.76,331.02 1930.83,326.77 1928.84,323.21C1925.45,317.16 1916.07,316.59 1911.38,321.35C1907.59,324.77 1906.82,330.17 1906.78,335.01C1906.72,348.87 1906.78,362.74 1906.75,376.6C1902.39,376.58 1898.03,376.69 1893.69,376.48C1893.81,354.12 1893.71,331.77 1893.74,309.41C1898.07,309.39 1902.41,309.4 1906.76,309.4C1906.74,312.22 1906.76,315.06 1906.72,317.89ZM2037.4,317.9C2043.31,307.4 2058.19,305.1 2068.06,311.09C2073.81,315.05 2076.09,322.31 2076.12,329.03C2076.31,344.84 2076.07,360.66 2076.24,376.47C2071.92,376.69 2067.59,376.58 2063.29,376.6C2063.24,361.73 2063.32,346.85 2063.25,331.98C2063.13,327.58 2062.6,322.17 2058.42,319.67C2052.59,316.56 2044.09,317.54 2040.31,323.37C2037.8,327.06 2037.47,331.67 2037.47,335.99C2037.5,349.51 2037.44,363.03 2037.51,376.55C2033.11,376.63 2028.73,376.6 2024.35,376.6C2024.34,354.2 2024.34,331.8 2024.35,309.4C2028.73,309.4 2033.11,309.38 2037.51,309.44C2037.48,312.26 2037.46,315.08 2037.4,317.9ZM2097.32,312.22C2102.42,308.66 2108.93,307.8 2115.02,307.67C2122.9,307.64 2131.77,309.56 2136.75,316.23C2140.31,320.64 2140.85,326.55 2140.85,332.02C2140.86,346.88 2140.87,361.75 2140.84,376.61C2137.29,376.43 2133.57,377.11 2130.17,375.94C2127.72,374.12 2128.81,370.62 2128.59,368C2121.78,377.86 2106.88,380.51 2096.88,374.2C2085.16,365.8 2087.05,345.34 2099.97,339.02C2108.39,334.4 2118.38,334.08 2127.74,335.03C2127.95,329.59 2128.18,322.39 2122.39,319.63C2113.44,315.92 2102.5,317.77 2094.95,323.74C2095.8,319.91 2096.26,316 2097.32,312.22ZM2108.01,346.06C2100.52,349.79 2100.34,362.71 2108.16,366.15C2114.88,369.14 2124.39,366.26 2127.28,359.22C2128.2,354.28 2127.52,349.19 2127.73,344.19C2121.18,343.29 2114.04,342.93 2108.01,346.06ZM2169.01,317.84C2172.38,312.26 2178.4,308.36 2184.95,308.01C2191.33,307.54 2198.7,308.76 2202.88,314.09C2206.85,318.75 2207.77,325.08 2207.75,331C2207.76,346.2 2207.75,361.4 2207.75,376.61C2203.5,376.59 2199.26,376.58 2195.03,376.65C2194.66,362.77 2194.96,348.88 2194.88,335C2194.76,329.78 2195.08,323.12 2190.22,319.81C2184.68,316.7 2176.58,317.34 2172.5,322.55C2169.9,325.74 2169.19,329.97 2169.1,333.97C2168.94,348.19 2169.24,362.42 2168.95,376.65C2164.65,376.57 2160.36,376.56 2156.08,376.67C2155.74,354.25 2155.93,331.81 2155.99,309.38C2160.29,309.41 2164.61,309.43 2168.94,309.35C2169.08,312.17 2169.05,315.01 2169.01,317.84ZM2341.45,308.64C2350.14,306.94 2360.05,308.06 2366.97,314.03C2373.21,319.48 2375.92,327.85 2376.74,335.87C2377.9,345.9 2376.82,356.65 2371.28,365.32C2367.15,372.07 2359.82,376.8 2351.89,377.38C2343.64,378.02 2334.56,376.52 2328.38,370.6C2322.07,364.51 2320.09,355.4 2319.66,346.96C2319.32,337.58 2320.29,327.62 2325.48,319.54C2329.02,313.92 2334.94,309.96 2341.45,308.64ZM2344.42,318.57C2337.26,320.48 2334.44,328.4 2333.9,335.06C2333.24,343.33 2332.78,352.15 2336.19,359.93C2339.72,368.47 2353.27,370.13 2358.61,362.53C2362.61,356.92 2363.22,349.71 2363.27,343.02C2363.13,336.2 2363.02,328.82 2359.13,322.92C2355.97,318.23 2349.58,317.12 2344.42,318.57ZM2477.89,311.96C2487.09,306.98 2498.46,306.39 2508.32,309.71C2516.08,312.24 2521.39,320.03 2521.33,328.15C2521.67,344.27 2521.33,360.41 2521.5,376.53C2517.98,376.49 2514.33,377.04 2510.94,376.02C2508.28,374.39 2509.5,370.67 2509.16,368.14C2502.27,377.8 2487.63,380.47 2477.64,374.3C2466.79,366.66 2467.22,348.44 2477.84,340.77C2486.58,334.52 2497.99,333.91 2508.34,335.08C2508.52,329.68 2508.83,322.58 2503.19,319.74C2494.21,315.82 2483.24,317.84 2475.53,323.65C2476.35,319.76 2477.12,315.86 2477.89,311.96ZM2488.36,346.22C2481.3,350.01 2481.03,362.06 2488.18,365.86C2494.81,369.24 2504.26,366.58 2507.67,359.84C2508.97,354.74 2508.07,349.37 2508.32,344.16C2501.68,343.32 2494.4,342.9 2488.36,346.22ZM1157.9,309.36C1162.22,309.41 1166.56,309.42 1170.9,309.37C1175.94,326.6 1180.76,343.9 1185.73,361.15C1190.95,343.99 1195.47,326.63 1200.43,309.4C1204.64,309.41 1208.86,309.4 1213.08,309.38C1205.89,333.66 1198.24,357.81 1190.85,382.04C1188.96,387.68 1186.94,394.21 1181.33,397.21C1175.7,399.93 1169,398.9 1163.36,396.75C1162.9,393.15 1162.46,389.54 1161.98,385.94C1165.8,387.4 1170.27,389.2 1174.25,387.25C1177.82,384.83 1178.57,379.97 1178.84,375.99C1172.14,353.7 1164.45,331.69 1157.9,309.36ZM1995.49,309.47C1999.83,309.36 2004.18,309.39 2008.54,309.41L2008.54,376.59C2004.18,376.6 1999.84,376.62 1995.5,376.55C1995.54,354.19 1995.56,331.83 1995.49,309.47ZM2389.83,317.99C2393.18,311.84 2400.36,308.84 2407.1,308.57C2413.38,308.36 2420.25,308.69 2425.58,312.43C2427.07,315.96 2426.94,319.96 2427.82,323.67C2422.21,319.4 2414.76,317.87 2407.89,319.15C2404.17,319.77 2401.04,323.09 2401.22,326.96C2400.97,330.37 2403.67,332.99 2406.35,334.64C2411.04,337.47 2416.42,338.93 2421.07,341.88C2425.41,344.4 2429.26,348.33 2430.43,353.36C2431.78,359.66 2430.25,366.93 2425.33,371.35C2419.87,376.36 2412.19,378.19 2404.95,377.76C2399.13,377.72 2393.38,376.31 2388.23,373.62C2387.55,369.39 2386.96,365.14 2386.35,360.9C2392.14,363.93 2398.33,366.77 2405.01,366.83C2408.43,366.84 2412.38,366.44 2414.86,363.76C2417.62,360.42 2417.5,354.76 2414.01,351.96C2407.42,346.51 2398.16,345.25 2392.2,338.88C2386.97,333.43 2386.37,324.52 2389.83,317.99ZM2443.5,309.45C2447.84,309.37 2452.18,309.39 2456.54,309.41L2456.54,376.59C2452.19,376.6 2447.84,376.62 2443.51,376.56C2443.54,354.19 2443.55,331.82 2443.5,309.45ZM249.93,345.84C262.93,335.37 277.21,325.05 294.12,322.51C286.91,340.3 290.68,361.78 303.59,375.99C278.1,391.26 248.47,398.84 218.92,400.22C198.73,400.94 178.23,398.94 158.95,392.72C176.43,393.78 193.13,386.59 207.8,377.76C222.95,368.65 236.37,357.08 249.93,345.84ZM1214.09,9.5C1223.54,9.66 1233.92,8.29 1242.3,13.66C1248.84,17.68 1251.83,25.56 1251.88,32.97C1252.05,55.66 1251.75,78.34 1252.03,101.03C1272.59,76.28 1293.15,51.53 1313.69,26.77C1318.62,21.12 1322.97,14.26 1330.2,11.34C1337.85,8.69 1346.12,9.69 1354.07,9.47C1336.48,32.15 1318.78,54.75 1301.14,77.38C1319.18,126.41 1337.27,175.43 1355.31,224.46C1346.18,224.3 1336.79,225.16 1327.94,222.46C1317.99,219.36 1310.15,211.05 1306.9,201.24C1296.34,170.55 1285.81,139.84 1275.31,109.13C1268.2,117.77 1261.32,126.6 1254.23,135.26C1253.17,136.68 1251.59,138.03 1251.84,140C1251.79,160.34 1251.91,180.69 1251.79,201.04C1251.76,208.68 1248.49,216.82 1241.58,220.7C1233.29,225.59 1223.29,224.36 1214.09,224.52C1214.09,152.85 1214.13,81.17 1214.09,9.5ZM1838.03,9.47C1847.35,9.65 1857.81,8.27 1865.82,14.14C1872.07,18.59 1874.18,26.68 1873.95,34C1873.97,45.51 1873.93,57.02 1873.97,68.52C1885.74,55.78 1902.85,48.54 1920.06,47.56C1930.4,46.94 1941.25,47.5 1950.72,52.12C1957.1,55.18 1962.28,60.55 1965.22,66.99C1969.14,75.4 1969.89,84.85 1969.85,94C1969.85,137.48 1969.83,180.97 1969.86,224.45C1960.77,224.26 1950.72,225.62 1942.75,220.25C1936.38,216.16 1933.78,208.24 1933.95,200.96C1933.9,168.98 1933.94,136.99 1933.93,105C1933.68,97.12 1934.9,88.8 1931.64,81.36C1929.87,77.21 1925.88,74.5 1921.68,73.24C1904.95,68.39 1885.17,73.3 1873.92,86.93C1873.98,124.98 1873.96,163.02 1873.93,201.06C1874.08,208.52 1871.27,216.61 1864.6,220.59C1856.67,225.57 1846.92,224.24 1838.03,224.46L1838.03,9.47ZM2159.51,9.47C2169.73,9.58 2181.91,8.12 2189.69,16.26C2197.65,24.64 2194.85,37 2195.48,47.43C2202.96,47.4 2210.44,47.35 2217.93,47.44C2221.75,47.65 2226.2,48.05 2228.73,51.33C2231.6,55.13 2231.43,60.18 2231.83,64.7C2219.62,64.93 2207.41,64.73 2195.21,64.81C2195.22,101.89 2195.18,138.98 2195.23,176.07C2195.33,184.43 2197.12,193.51 2203.31,199.58C2208.76,204.81 2216.77,205.82 2224,205.5C2230.21,205.43 2236.63,203.13 2242.7,205.42C2246.19,206.71 2248.27,209.99 2250.05,213.07C2242.18,218.91 2232.81,222.8 2223.04,223.84C2212.74,224.95 2202.12,225.25 2192.04,222.54C2182.92,220.14 2174.54,214.75 2168.89,207.16C2162.15,198.28 2159.68,186.91 2159.62,175.95C2159.58,138.94 2159.55,101.93 2159.63,64.93C2154.23,64.51 2148.33,65.43 2143.44,62.62C2138.61,59.25 2138.75,52.68 2138.46,47.42C2145.46,47.38 2152.47,47.4 2159.48,47.41C2159.53,34.76 2159.48,22.12 2159.51,9.47ZM211.07,41.26C224.23,31.14 240.15,23.91 256.93,23.37C272.81,22.68 288.27,28.04 302.08,35.5C295.61,44.02 291.13,54.22 290.61,65C289.97,73.24 291.79,81.44 294.74,89.09C288.43,88.2 282.2,86.41 276.63,83.25C260.47,74.39 249.38,58.83 233.56,49.46C226.73,45.2 219.01,42.5 211.07,41.26ZM333.53,26.64C343.69,24.45 354.64,26.17 363.59,31.48C374.79,38.03 382.61,50.04 383.91,62.97C385.32,75.11 381.02,87.73 372.51,96.49C364.04,105.48 351.39,110.25 339.09,109.22C327.4,108.38 316.26,102.26 309.17,92.95C301.13,82.65 298.49,68.47 302.16,55.95C306.21,41.41 318.76,29.72 333.53,26.64ZM2418.67,47.43C2427.68,47.41 2437.59,46.23 2445.58,51.36C2451.4,54.91 2453.98,61.76 2454.62,68.27C2464.86,57.87 2478.42,50.77 2492.86,48.47C2501.17,47.16 2509.7,46.92 2518.06,48.11C2526.05,49.28 2534.09,52.28 2539.83,58.15C2549.24,67.8 2550.7,82.12 2550.53,94.95C2550.5,138.13 2550.58,181.31 2550.49,224.49C2541.73,224.22 2532.19,225.55 2524.32,220.81C2517.7,217.07 2514.6,209.25 2514.66,201.92C2514.54,169.94 2514.65,137.96 2514.61,105.98C2514.51,100.32 2514.85,94.64 2514.31,89C2513.76,83.93 2511.95,78.44 2507.42,75.59C2501.99,72.15 2495.33,71.56 2489.07,71.46C2476.11,71.32 2462.95,76.92 2454.59,86.9C2454.71,123.28 2454.59,159.66 2454.65,196.04C2454.67,202 2454.77,208.34 2451.78,213.7C2448.9,219.19 2443.12,222.61 2437.15,223.72C2431.06,224.83 2424.85,224.34 2418.71,224.46C2418.68,165.45 2418.77,106.44 2418.67,47.43ZM1410.3,52.3C1424,46.26 1439.6,46.39 1454.08,49.15C1469.11,51.96 1483.03,61.03 1490.64,74.44C1501.26,92.84 1502.89,114.64 1504.1,135.4C1470.59,135.46 1437.08,135.28 1403.58,135.49C1403.17,153.21 1404.79,171.8 1413.54,187.58C1418.6,196.68 1427.5,203.83 1437.92,205.48C1446.14,206.69 1454.78,206.25 1462.66,203.46C1469.19,200.72 1474.78,195.77 1481.89,194.41C1486.67,193.35 1491.55,194.71 1495.89,196.71C1491.46,206.17 1483.51,213.76 1474.05,218.1C1460.41,224.43 1444.9,225.67 1430.09,224.28C1414.3,222.76 1398.77,215.86 1388.24,203.81C1375.58,189.63 1370.07,170.62 1367.88,152.1C1365.34,128.67 1368,104.05 1378.99,82.93C1385.84,69.8 1396.46,58.14 1410.3,52.3ZM1424.61,69.65C1416.28,74.25 1410.5,82.53 1407.6,91.46C1404.68,100.67 1403.86,110.39 1403.49,120C1425.61,119.99 1447.74,120.02 1469.86,119.99C1469.03,110.04 1468.13,100.02 1465.41,90.38C1462.81,81.6 1457.5,73.05 1449.11,68.82C1441.49,64.85 1432,65.44 1424.61,69.65ZM1548.99,58.98C1559.92,50.96 1573.68,47.83 1587.03,47.41C1598.52,47.03 1610.2,48.72 1620.84,53.18C1629.01,56.6 1635.59,63.41 1639.01,71.57C1634.75,74.07 1629.97,76.31 1624.9,75.61C1616.13,74.47 1608.88,68.47 1600.13,67.27C1591.78,66.01 1582.95,66.66 1575.17,70.08C1568.95,72.78 1563.76,78.31 1562.52,85.11C1561.27,92.15 1562.22,100.24 1567.35,105.61C1574.41,112.75 1584,116.36 1593.25,119.7C1606.62,124.2 1620.72,128.12 1631.82,137.24C1638.87,143.08 1644.83,150.81 1646.73,159.93C1649.66,173.56 1648.42,188.72 1640.48,200.51C1631.66,214.39 1615.68,221.95 1599.86,224.38C1582.41,226.76 1563.77,225.25 1548.01,216.89C1538.16,211.73 1530.52,202.95 1526.06,192.84C1530.78,189.91 1536.38,187.6 1542.03,188.87C1548.03,189.82 1552.31,194.43 1556.98,197.88C1566.03,204.69 1577.95,206.46 1588.97,205.14C1595.55,204.39 1602.23,201.67 1606.33,196.26C1610.91,190.63 1611.99,182.95 1610.99,175.94C1609.89,166.47 1603.18,158.3 1594.73,154.23C1585.82,149.89 1576.25,147.11 1567.31,142.84C1555.17,137.22 1542.97,129.73 1536.13,117.83C1530.74,108.79 1530.24,97.77 1531.72,87.6C1533.42,76.29 1539.7,65.7 1548.99,58.98ZM1713.77,52.8C1727.03,46.56 1742.27,46.38 1756.49,48.73C1771.91,51.16 1786.55,59.85 1794.61,73.43C1805.81,91.98 1807.44,114.29 1808.68,135.4C1775.19,135.39 1741.7,135.41 1708.22,135.39C1707.68,152.73 1709.33,170.83 1717.49,186.44C1722.33,195.73 1731.02,203.3 1741.48,205.29C1749.59,206.75 1758.13,206.31 1766.03,203.9C1772.36,201.74 1777.48,197.01 1783.94,195.09C1789.37,193.11 1795.45,194.14 1800.46,196.83C1796.1,205.87 1788.64,213.3 1779.59,217.64C1765.68,224.4 1749.69,225.72 1734.47,224.25C1718.82,222.72 1703.47,215.86 1692.98,203.97C1680.73,190.39 1675.16,172.21 1672.74,154.41C1669.86,131.14 1672.07,106.67 1682.35,85.36C1689.01,71.58 1699.61,59.16 1713.77,52.8ZM1730.11,69.17C1721.39,73.61 1715.28,82.07 1712.26,91.24C1709.28,100.51 1708.47,110.31 1708.06,119.99C1730.19,120.01 1752.31,119.99 1774.44,120C1773.61,109.91 1772.7,99.71 1769.85,89.96C1767.2,81.23 1761.82,72.78 1753.42,68.68C1746.16,65.02 1737.25,65.43 1730.11,69.17ZM2034.92,51.15C2048.82,46.61 2063.7,46.81 2078.09,48.27C2086.65,49.17 2095.33,50.89 2102.92,55.16C2111.33,59.62 2117.56,67.71 2120.27,76.78C2122.04,82.68 2122.52,88.89 2122.53,95.02C2122.54,138.19 2122.53,181.36 2122.54,224.53C2114.15,224.33 2104.69,225.76 2097.53,220.38C2091.49,215.78 2090.28,207.69 2089.94,200.61C2081.54,215.94 2063.96,224.03 2046.98,224.52C2035.68,224.93 2023.85,223.75 2013.81,218.16C2004.5,213.04 1998.03,203.64 1995.42,193.45C1992.82,183.22 1992.96,172.39 1994.87,162.05C1996.6,152.45 2001.51,143.36 2009.25,137.31C2022.25,126.89 2038.98,122.89 2055.12,120.42C2063.92,118.82 2072.93,117.6 2081.3,114.26C2085.12,112.93 2087.04,108.93 2086.86,105.06C2086.83,95.44 2088.01,84.94 2082.77,76.34C2079.58,70.8 2073.16,68.36 2067.13,67.51C2056.4,66.06 2044.87,66.74 2035.26,72.16C2030.24,74.83 2025.46,78.2 2019.86,79.53C2014.03,80.85 2008.27,78.63 2003,76.37C2009.38,63.85 2021.57,55.03 2034.92,51.15ZM2059.09,134.75C2049.79,137.18 2040.24,141.41 2034.62,149.56C2028.55,158.38 2027.81,169.65 2028.88,179.99C2029.65,187.07 2031.95,194.67 2037.9,199.13C2044.21,203.79 2052.53,204.43 2060.11,203.75C2071,202.77 2081.23,196.23 2086.5,186.62C2087.65,184.62 2087.1,182.2 2087.25,180C2087.2,162.18 2087.24,144.36 2087.23,126.54C2078.34,130.82 2068.46,131.98 2059.09,134.75ZM2291.61,56.62C2303.86,49.82 2318.08,47.09 2332.02,47.36C2341.54,47.54 2351.13,48.19 2360.42,50.45C2369.92,52.87 2379.22,57.88 2384.74,66.25C2390.84,74.84 2392.17,85.73 2392.07,96.01C2391.97,138.87 2392.23,181.73 2391.93,224.58C2383.71,224.28 2374.51,225.73 2367.38,220.63C2361.17,216.16 2359.74,207.96 2359.53,200.82C2356.85,204.64 2354.2,208.56 2350.65,211.63C2341.22,220.1 2328.49,224.12 2315.98,224.54C2305.45,224.86 2294.53,223.8 2284.98,219.04C2276.96,215.1 2270.63,208.07 2267.16,199.88C2263.24,190.82 2262.56,180.72 2263.21,170.98C2263.86,161.72 2266.07,152.2 2271.7,144.63C2279.09,134.81 2290.55,129.07 2302.02,125.42C2317.76,120.15 2334.81,120.26 2350.41,114.45C2354.04,113.25 2356.45,109.73 2356.32,105.9C2356.37,95.9 2357.66,84.89 2352.06,76C2348.72,70.5 2342.17,68.24 2336.11,67.43C2326.34,66.22 2315.99,66.7 2306.99,71.01C2301.17,73.82 2295.9,77.9 2289.56,79.49C2283.63,80.86 2277.68,78.72 2272.39,76.2C2277.02,68.2 2283.52,61.19 2291.61,56.62ZM2316.97,138.99C2310.72,141.98 2305.16,146.72 2302.08,153C2297.55,162.06 2297.36,172.61 2298.73,182.45C2299.8,189.8 2303.27,197.52 2310.28,200.93C2326.6,208.57 2349.35,202 2356.66,184.93C2356.88,165.49 2356.66,146.04 2356.76,126.59C2344.05,132.43 2329.55,132.8 2316.97,138.99ZM322.49,115.76C340.28,122.96 361.76,119.22 375.96,106.31C392.77,134.39 400.38,167.41 400.38,199.97C400.2,217.21 398,234.56 392.74,251.03C393.88,230.81 384.38,211.94 373.57,195.49C364.04,180.96 352.21,168.16 341.53,154.5C332.74,143.05 324.68,130.3 322.49,115.76ZM222.79,107.32C233.36,117.64 243.88,128.02 254.24,138.54C243.77,148.78 233.46,159.18 222.97,169.39C222.87,164.58 222.94,159.77 222.89,154.96C212.35,155.01 201.8,154.7 191.27,155.17C190.29,155.04 188.32,154.79 187.34,154.66C186.66,165.35 187.75,176.18 186.83,186.79L186.39,186.96C179.73,179.21 171.79,172.65 164.62,165.37C161.27,161.76 156.96,158.91 154.44,154.63C153.74,150.14 154.2,145.54 154.13,141.01C154.09,133.57 158.88,126.45 165.7,123.56C169.84,121.6 174.53,121.93 178.98,121.92C193.58,121.93 208.18,121.95 222.77,121.92C222.76,117.05 222.74,112.19 222.79,107.32ZM251.45,157.42C252.98,155.92 254.64,154.09 256.98,154.17C261.7,154.01 266.45,153.9 271.16,154.28C280.34,155.28 287.92,163.72 287.92,172.96C288.07,189.56 287.82,206.17 288.04,222.77C292.89,222.72 297.75,222.72 302.6,222.76C292.38,233.35 281.83,243.63 271.6,254.21C264.57,247.64 258.01,240.57 251.18,233.8C247.6,230.07 243.73,226.61 240.43,222.63C245.12,222.56 249.8,222.58 254.49,222.57C254.5,210.82 254.5,199.06 254.5,187.31C243.88,187.28 233.26,187.31 222.65,187.29C232.23,177.31 241.87,167.39 251.45,157.42ZM107.32,187.1C117.71,176.6 127.99,165.97 138.58,155.66C148.76,166.09 159.04,176.43 169.36,186.72L168.33,187.22C164.01,187.37 159.69,187.28 155.38,187.3C155.37,199.06 155.36,210.82 155.38,222.57C166,222.6 176.63,222.54 187.25,222.61C177.85,232.45 168.33,242.17 158.92,252C157.09,253.92 154.95,256.09 152.05,255.78C145.5,255.56 138.42,256.87 132.39,253.63C125.89,250.36 121.71,243.2 121.94,235.94C121.93,219.67 121.95,203.4 121.93,187.13C117.06,187.13 112.19,187.16 107.32,187.1ZM9.57,215.96C9.02,196.96 11.47,177.9 16.71,159.62C17.17,164.8 17.23,170.04 18.39,175.12C21.27,188.69 27.76,201.17 35.24,212.73C44.01,226.31 54.67,238.5 64.9,250.98C75.08,263.67 84.85,277.69 87.43,294.12C69.64,286.92 48.13,290.64 33.94,303.59C18.14,277.25 10.52,246.51 9.57,215.96ZM222.57,254.5C222.61,243.88 222.55,233.25 222.61,222.63C232.61,232.19 242.49,241.88 252.48,251.46C254.29,253.14 256.08,255.25 255.78,257.92C255.58,264.25 256.8,271.02 253.91,276.94C250.92,283.37 244.15,287.82 237.05,287.9C220.41,287.99 203.77,287.89 187.13,287.94C187.12,292.82 187.15,297.71 187.1,302.59C176.62,292.16 165.96,281.92 155.66,271.32C166.34,261.16 176.42,250.36 187.26,240.39C187.32,245.09 187.31,249.8 187.31,254.5C199.07,254.5 210.82,254.51 222.57,254.5ZM57.53,301.75C69.16,298.86 82.01,301.24 91.75,308.26C101.14,314.88 107.57,325.53 108.98,336.94C110.63,348.95 106.67,361.57 98.47,370.49C89.91,380.05 76.75,385.18 63.98,384.01C52.13,383.08 40.88,376.72 33.86,367.15C26.46,357.25 23.91,343.97 27.01,332.02C30.6,317.33 42.83,305.25 57.53,301.75ZM115.03,320.8C121.9,321.66 128.64,323.78 134.59,327.36C148.06,335.14 157.97,347.51 170.51,356.53C178.85,362.72 188.57,367.16 198.91,368.64C185.68,378.68 169.82,386.03 153,386.51C137.13,387.21 121.7,381.84 107.88,374.43C112.59,367.76 116.68,360.5 118.25,352.39C120.54,341.85 119.25,330.7 115.03,320.8Z" style="fill:rgb(62,62,62);"/>
            </g>
        </g>
    </g>
</svg>
