<?xml version="1.0" encoding="UTF-8" standalone="no"?>
<!DOCTYPE svg PUBLIC "-//W3C//DTD SVG 1.1//EN" "http://www.w3.org/Graphics/SVG/1.1/DTD/svg11.dtd">
<svg width="100%" height="100%" viewBox="0 0 1081 297" version="1.1" xmlns="http://www.w3.org/2000/svg" xmlns:xlink="http://www.w3.org/1999/xlink" xml:space="preserve" xmlns:serif="http://www.serif.com/" style="fill-rule:evenodd;clip-rule:evenodd;stroke-linejoin:round;stroke-miterlimit:2;">
    <g transform="matrix(1,0,0,1,3452,-375)">
        <g transform="matrix(2.24397,0,0,2.24397,-4048.65,-39.4128)">
            <path d="M706.98,218.41C702.9,218.35 698.82,218.27 694.75,218.47C693.49,224.91 692.57,231.44 690.7,237.75C685.64,231.32 682.75,223.08 683.48,214.86C684.07,203.14 691.9,192.18 702.73,187.7C715.44,182.07 732.07,185.76 740.34,197.17C737.69,197.2 735.05,197.19 732.42,197.31C732.34,197.8 732.17,198.78 732.08,199.26C731.38,202.74 731.63,206.31 731.65,209.83C727.85,209.1 723.87,207.91 720.05,209.21C715.27,210.48 711.14,213.84 709.1,218.36C707.63,223.46 707.71,229.46 711.04,233.84C714.95,239.18 722.31,241.64 728.64,239.59C731.7,238.51 734.88,239.25 738,239.6C737.62,240.01 736.88,240.83 736.51,241.25C730.64,246.48 722.8,249.37 714.94,249.17C710.37,249.28 706.05,247.72 701.72,246.5L701.76,245.74C703.04,236.56 705.26,227.52 706.98,218.41ZM696.44,204.74C696.35,206.99 696.35,209.24 696.42,211.49C697.52,212.49 698.63,213.48 699.74,214.48C701.68,214.51 703.62,214.53 705.58,214.55C707.29,212.7 709.79,210.81 709.43,207.97C709.47,205.18 707.16,203.28 705.36,201.49C703.8,201.49 702.25,201.49 700.7,201.48C699.29,202.58 697.86,203.66 696.44,204.74ZM740.44,197.76L740.44,196.9C749.64,208.16 750.06,226.01 740.36,237.08C740.61,223.98 740.36,210.87 740.44,197.76ZM717.88,220.07C718.94,218.89 719.99,217.71 721.04,216.51C723.13,216.42 725.23,216.36 727.33,216.31C729.53,218.37 732.09,220.7 731.63,224.04C732.39,228.84 727.98,233.76 723.02,232.65C718.11,232.6 716.88,226.91 716.51,223.03C716.97,222.05 717.42,221.06 717.88,220.07ZM374.25,231.37C379.04,228.34 386.28,232.24 385.96,238.01C386.62,243.88 379.56,248.11 374.54,245.34C368.98,243.01 368.76,233.91 374.25,231.37ZM600.4,231.53C605.56,227.97 613.61,232.67 612.44,239.02C612.25,244.6 605.48,248.01 600.73,245.24C595.52,242.68 595.4,234.41 600.4,231.53ZM389.88,231.67C394.42,231.6 398.96,231.62 403.51,231.67C403.48,237.72 403.49,243.77 403.49,249.82C408.02,249.85 412.56,249.88 417.09,249.77C420.91,259.61 424.68,269.46 428.64,279.24C432.54,269.47 436.4,259.68 440.12,249.85C444.56,249.82 449.01,249.8 453.45,249.83C454.35,243.74 458.56,238.52 464.28,236.29C475.84,231.59 489.5,234.73 499.2,242.16C496.92,245.67 494.46,249.05 492.14,252.52C486.38,248.61 479.28,245.17 472.16,246.89C468.13,247.65 466.2,253.57 469.7,256.11C476.62,260.34 485.37,260.04 492.19,264.56C502.43,270.01 502.99,286.14 494.17,293.15C487.84,298.53 478.88,299.24 470.98,297.97C463.35,296.76 456.56,292.69 450.76,287.74C453.36,284.11 456.21,280.68 459.11,277.29C463.78,281.03 468.81,284.91 474.9,285.83C478.41,286.54 482.71,286.1 485.02,283.03C486.86,280.16 485.34,275.95 482.08,274.91C474.29,271.59 465.11,271.21 458.4,265.55C454.57,262.59 453.73,257.52 453.22,253.02C446.48,270.81 439.37,288.47 432.38,306.16C430.19,312.5 423.65,316.83 416.99,316.61C412.18,316.51 407.17,314.53 403.96,310.91C405.3,307.33 407.84,304.35 409.73,301.05C411.89,302.68 414.26,304.35 417.12,304.24C420.28,303.47 422.07,299.5 420.61,296.59C415.34,281.55 409.26,266.82 403.5,251.97C403.4,267.23 403.58,282.49 403.45,297.76C398.93,297.72 394.41,297.76 389.9,297.7C389.82,275.69 389.93,253.68 389.88,231.67ZM662.08,231.68C666.55,231.59 671.03,231.62 675.5,231.67C675.44,253.69 675.45,275.72 675.5,297.74C671.01,297.77 666.52,297.8 662.04,297.68C662.14,275.68 662.03,253.68 662.08,231.68ZM266.24,297.78C266.24,277.03 266.11,256.28 266.31,235.53C277.17,235.95 288.14,234.66 298.9,236.52C307.78,238.13 316.24,243.68 319.89,252.15C323.07,259.31 323.22,267.5 321.76,275.1C319.86,284.89 312.22,293.24 302.56,295.83C297.2,297.19 290.68,299.02 285.93,295.12C282.77,292.93 281.58,289.07 281.39,285.4C287.89,285.25 294.92,286.09 300.77,282.61C306.25,279.56 308.57,272.98 308.52,267C308.69,260.99 306.67,254.3 301.29,251C295.06,247 287.35,247.73 280.31,247.9C280.07,261.25 280.28,274.61 280.23,287.97C280.25,290.95 279.3,294.12 276.8,295.96C273.8,298.34 269.8,297.7 266.24,297.78ZM325.21,255.8C333.19,250.21 343.34,247.84 352.94,249.61C357.54,250.69 362.25,253.1 364.54,257.42C366.5,260.92 366.68,265.04 366.71,268.96C366.71,278.55 366.74,288.15 366.69,297.75C364.06,297.69 361.37,297.98 358.79,297.37C356.44,296.54 354.98,294.43 353.79,292.37C347.13,301.38 331.96,300.09 325.85,291.15C323.13,287.37 322.91,282.36 323.83,277.95C324.82,273.87 328.28,270.87 332.1,269.43C338.81,266.79 346.16,267.78 353.2,267.59C353.17,264.56 351.96,261.28 348.78,260.35C342.59,258.63 336.31,261.52 331.09,264.66C329.12,261.71 327.19,258.74 325.21,255.8ZM339.91,277.97C336.64,278.76 335.64,283.64 338.34,285.65C342.53,288.91 349.48,287.62 352.3,283.13C352.97,281.31 353.04,279.34 353.34,277.45C348.88,277.4 344.25,276.73 339.91,277.97ZM502.04,264C505.11,256.93 511.56,251.3 519.16,249.69C526.68,248.2 535.1,249.16 541.26,254.07C546.49,257.91 549.77,263.9 550.8,270.26C551.76,263.71 555.25,257.52 560.82,253.82C571.19,246.17 586.76,248.05 595.63,257.16C594.19,260.73 591.2,263.52 588.84,266.54C584.19,261.39 576,259.05 569.79,262.73C564.11,265.8 562.55,273.53 564.86,279.2C567.24,284.8 574.05,287.76 579.83,286.04C583.42,285.12 586.05,282.4 588.62,279.92C591.16,282.98 593.87,285.9 596.54,288.85C590.56,295.13 582.03,299.68 573.14,298.35C562.17,297.54 552.22,288.88 550.82,277.8C549.56,284.56 545.69,290.8 539.87,294.53C534.38,298.22 527.44,299.1 521,298.19C511.88,296.97 503.8,290.03 501.23,281.2C499.65,275.58 499.86,269.43 502.04,264ZM520.45,261.7C511.54,266.17 511.49,281.12 520.25,285.8C524.16,287.56 529.23,287.47 532.6,284.6C538.24,280.08 538.83,270.96 534.79,265.22C531.7,260.72 525.28,259.3 520.45,261.7ZM616.02,255.98C622.67,250.62 631.62,248.54 640.06,249.19C645.55,249.39 651.16,251.78 654.54,256.23C656.77,259.71 657.35,263.98 657.28,268.04C657.25,277.96 657.33,287.88 657.24,297.8C654.86,297.72 652.46,297.91 650.11,297.56C647.42,297.01 645.71,294.71 644.33,292.54C637.95,300.88 624.18,300.17 617.55,292.54C613.61,288.15 613.02,281.39 615.2,276.05C616.76,272.15 620.73,270.01 624.53,268.79C630.87,267.02 637.52,267.69 644.02,267.61C643.68,264.86 642.88,261.53 639.94,260.52C633.69,258.5 627.14,261.33 621.85,264.58C619.91,261.71 617.74,258.99 616.02,255.98ZM630.84,277.85C627.38,278.75 626.32,283.67 629.17,285.85C632.86,288.39 638.5,287.85 641.64,284.61C643.75,282.78 643.71,279.86 643.86,277.32C639.53,277.4 635.08,276.83 630.84,277.85ZM371.46,297.74C371.4,281.75 371.4,265.77 371.47,249.78C375.89,249.88 380.31,249.89 384.73,249.8C385.02,265.76 384.79,281.74 384.85,297.71C380.39,297.77 375.92,297.81 371.46,297.74ZM597.78,249.86C602.31,249.82 606.83,249.83 611.36,249.81C611.45,265.78 611.31,281.74 611.4,297.7C606.83,297.78 602.27,297.78 597.71,297.74C597.81,281.78 597.71,265.82 597.78,249.86Z" style="fill:rgb(84,84,84);"/>
        </g>
    </g>
</svg>
