<?xml version="1.0" encoding="UTF-8" standalone="no"?>
<!DOCTYPE svg PUBLIC "-//W3C//DTD SVG 1.1//EN" "http://www.w3.org/Graphics/SVG/1.1/DTD/svg11.dtd">
<svg width="100%" height="100%" viewBox="0 0 1081 265" version="1.1" xmlns="http://www.w3.org/2000/svg" xmlns:xlink="http://www.w3.org/1999/xlink" xml:space="preserve" xmlns:serif="http://www.serif.com/" style="fill-rule:evenodd;clip-rule:evenodd;stroke-linejoin:round;stroke-miterlimit:2;">
    <g transform="matrix(1,0,0,1,4649,-391)">
        <g transform="matrix(1.67368,0,0,1.67368,-4707.91,343.738)">
            <path d="M94.69,106.9C93.81,105.59 92.97,103.37 90.96,103.9C89.28,103.73 88.52,105.57 87.74,106.71C80.35,119.66 72.9,132.58 65.52,145.53C64.35,147.59 62.6,149.87 59.99,149.91C54.29,150.05 48.59,149.95 42.88,149.96C39.05,150.27 35.72,146.71 35.76,142.97C35.51,136.65 35.76,130.31 35.66,123.99C35.73,120.41 35.21,116.49 37.27,113.32C44.06,101.45 50.91,89.61 57.66,77.71C59.39,74.76 57.36,71.71 55.39,69.54C52.54,65.92 49.69,62.29 46.91,58.62C63.61,58.5 80.32,58.57 97.02,58.58C100.63,58.27 103.91,61.19 104.31,64.73C104.93,70.74 104.17,76.81 104.69,82.83C105.11,83.33 105.93,84.34 106.34,84.85C107.63,84.38 108.93,83.8 109.45,82.42C116.13,70.77 122.79,59.12 129.47,47.47C130.74,45.12 133,42.94 135.86,43.08C144.27,43.03 152.68,43.01 161.08,43.08C164.72,43.04 167.61,46.48 167.83,49.95C167.91,52.75 168.17,55.63 167.53,58.38C165.74,62.79 162.71,66.57 160.94,71C161.61,73.6 163.83,75.13 166.53,74.27C174.88,60.29 182.73,46.02 190.94,31.97C192.12,29.75 194.43,28.16 197,28.29C205.35,28.25 213.7,28.22 222.04,28.31C225.67,28.25 228.51,31.7 228.57,35.17C228.72,42.81 228.59,50.46 228.62,58.1C228.87,61.76 226.56,64.77 224.88,67.79C210.03,93.66 195.2,119.55 180.37,145.43C179.15,147.82 176.89,149.92 174.05,149.81C166.01,149.93 157.97,149.86 149.94,149.85C146.11,150.16 142.74,146.77 142.71,143C142.69,138.68 142.23,134.26 143.09,130.01C146.55,122.76 151.22,116.12 154.77,108.92C156.21,105.84 153.03,102.87 149.97,103.79C141.88,117.8 133.86,131.85 125.82,145.89C124.69,148.03 122.69,150.06 120.09,149.94C112.38,150.01 104.67,149.99 96.96,149.95C92.87,150.11 89.85,145.87 90.09,142.03C90.08,134.34 90.08,126.64 90.09,118.95C89.88,114.4 93.85,111.2 94.69,106.9ZM511.62,101.14C516.61,101.13 521.61,101.14 526.61,101.13C526.59,110.9 526.66,120.68 526.57,130.45C528.13,127 529.95,123.5 533.03,121.16C537.72,117.4 544.24,116.94 549.95,118.07C555.06,119.08 559.3,122.8 561.59,127.39C565.13,134.33 565.5,142.32 565.47,149.96C565.45,161.42 565.47,172.87 565.46,184.33C560.46,184.34 555.47,184.33 550.47,184.33C550.43,171.56 550.5,158.78 550.45,146C550.42,142.41 549.66,138.58 547.11,135.89C542.65,130.9 533.69,131.45 529.74,136.82C527.19,139.93 526.58,144.08 526.61,147.97C526.6,160.09 526.63,172.21 526.6,184.33C521.6,184.33 516.61,184.34 511.62,184.33C511.61,156.6 511.61,128.87 511.62,101.14ZM648.82,101.14C653.51,101.07 658.21,101.16 662.91,101.38C662.89,107.43 662.88,113.48 662.88,119.52C668.89,119.55 674.91,119.53 680.93,119.54C680.93,123.6 680.93,127.67 680.92,131.74C674.9,131.73 668.88,131.73 662.86,131.74C662.88,141.83 662.7,151.93 662.87,162.02C662.82,165.82 665.12,169.92 669.1,170.63C673,171.22 676.98,170.84 680.92,170.93C680.93,175.66 680.93,180.39 680.92,185.13C672.79,185.01 663.81,186.05 656.65,181.35C650.49,177.06 649.02,168.97 648.83,161.96C648.69,151.89 648.86,141.81 648.81,131.74C645.7,131.73 642.6,131.73 639.5,131.74C639.49,127.67 639.49,123.6 639.5,119.54C642.6,119.53 645.7,119.53 648.8,119.53C648.82,113.4 648.8,107.27 648.82,101.14ZM451.08,124.13C462.21,114.13 481.7,115.07 491.24,126.84C495.13,131.41 496.9,137.36 497.41,143.26C492.58,143.27 487.75,143.28 482.93,143.25C482.11,139.34 480.39,135.29 476.74,133.26C471.45,130.42 464.04,131.16 460.02,135.84C456.42,139.98 455.35,145.65 455.2,150.97C455.12,156.47 455.85,162.33 459.06,166.95C463.89,174.08 476.13,174.14 480.9,166.92C482.31,164.92 482.83,162.5 483.48,160.2C488.3,160.2 493.13,160.19 497.95,160.21C497.46,167.36 494.68,174.49 489.28,179.36C481.99,186.29 470.95,187.99 461.44,185.47C454.37,183.52 448.4,178.41 444.88,172.03C440.29,163.89 439.48,154.16 440.59,145.03C441.61,137.16 445.05,129.42 451.08,124.13ZM320.49,119.44C329.01,118.75 337.65,118.07 346.17,119.15C352.52,119.99 359.03,122.94 362.36,128.68C365.31,133.54 365.9,139.37 365.92,144.94C365.93,158.07 365.92,171.2 365.92,184.33C361.97,184.33 358.01,184.34 354.06,184.33C354.06,180.27 354.03,176.2 354.09,172.14C352.34,177.4 348.94,182.48 343.56,184.49C336.95,186.91 329.16,186.44 323.03,182.91C310.72,175.72 310.53,154.15 323.71,147.74C332.32,143.22 342.34,144.57 351.7,144.32C351.68,139.78 350.14,134.04 344.96,133.1C336.85,132.12 328.63,133.22 320.5,133.51C320.49,128.82 320.5,124.13 320.49,119.44ZM335.04,154.92C328.23,156.9 326.64,166.77 331.52,171.47C336.69,176.01 346.29,174.89 349.59,168.57C351.98,164.21 351.54,159.07 351.58,154.27C346.08,154.52 340.44,153.62 335.04,154.92ZM584.76,119.47C592.82,118.73 600.97,118.21 609.05,118.96C615.55,119.63 622.4,122.18 626.12,127.88C630.31,134.04 630.27,141.81 630.22,148.96C630.2,160.75 630.22,172.54 630.21,184.33C626.25,184.34 622.3,184.33 618.35,184.33C618.34,180.21 618.3,176.09 618.4,171.98C616.7,177.39 613.17,182.59 607.64,184.57C599.73,187.33 589.94,186.19 583.79,180.18C578.3,174.72 577.25,166.16 578.95,158.9C580.28,153.13 584.97,148.66 590.41,146.63C598.55,143.45 607.45,144.55 615.98,144.32C616.01,139.68 614.3,133.82 608.96,133.03C600.93,132.2 592.82,133.2 584.78,133.5C584.77,128.82 584.79,124.14 584.76,119.47ZM599.11,154.99C591.76,157.32 590.82,168.87 597.37,172.67C602.5,175.42 610.08,174.55 613.38,169.36C616.33,164.92 615.82,159.34 615.86,154.27C610.29,154.55 604.56,153.56 599.11,154.99ZM376.83,119.54C382.25,119.53 387.68,119.53 393.1,119.54C396.45,126.01 399.83,132.47 403.11,138.99C403.84,140.45 404.69,141.94 406.09,142.88C410.17,135.21 413.74,127.29 417.65,119.53C422.74,119.54 427.84,119.53 432.94,119.54C427.54,129.96 422.11,140.37 416.7,150.8C423.25,161.98 429.84,173.14 436.39,184.33C430.96,184.34 425.54,184.33 420.11,184.33C415.94,177.01 411.75,169.7 407.62,162.35C407.01,161.12 406,160.2 405,159.31C400.25,167.54 395.96,176.02 391.37,184.34C386.27,184.33 381.17,184.34 376.07,184.33C382.11,173.33 388.22,162.37 394.25,151.36C388.43,140.76 382.62,130.16 376.83,119.54ZM221.97,130.93C222.85,126.85 225.44,123.36 227.04,119.54C236.1,119.53 245.17,119.54 254.24,119.53C256.13,123.17 258.01,126.83 259.9,130.47C260.6,130.47 261.99,130.46 262.69,130.46C264.46,126.82 266.24,123.17 268.03,119.53C274.33,119.65 280.64,119.28 286.93,119.71C294.78,120.59 300.21,128.43 300.17,135.99C300.26,152.1 300.19,168.22 300.2,184.33C295.24,184.34 290.28,184.3 285.32,184.38C285.12,170.23 285.33,156.08 285.22,141.93C285.43,139.38 283.77,136.44 281,136.29C276.34,136.02 271.66,136.28 267,136.2C266.97,146.73 267,157.27 266.98,167.8L255.09,167.8C255.05,159.18 255.14,150.55 255.07,141.93C255.26,139.41 253.66,136.49 250.93,136.3C246.24,136.02 241.53,136.28 236.83,136.2C236.82,152.24 236.83,168.29 236.83,184.33C231.86,184.34 226.89,184.34 221.92,184.33C221.95,166.53 221.85,148.72 221.97,130.93Z" style="fill:rgb(84,84,84);"/>
        </g>
    </g>
</svg>
