<?xml version="1.0" encoding="UTF-8" standalone="no"?>
<!DOCTYPE svg PUBLIC "-//W3C//DTD SVG 1.1//EN" "http://www.w3.org/Graphics/SVG/1.1/DTD/svg11.dtd">
<svg width="100%" height="100%" viewBox="0 0 1081 371" version="1.1" xmlns="http://www.w3.org/2000/svg" xmlns:xlink="http://www.w3.org/1999/xlink" xml:space="preserve" xmlns:serif="http://www.serif.com/" style="fill-rule:evenodd;clip-rule:evenodd;stroke-linejoin:round;stroke-miterlimit:2;">
    <g transform="matrix(1,0,0,1,5826,-344)">
        <g transform="matrix(1.19663,0,0,1.19663,-6024.81,-172.377)">
            <path d="M666.42,433.54C672.34,431.03 680.12,432.64 683.75,438.21C687.27,443.35 686.81,450.94 682.66,455.62C677.13,461.63 666.14,461.33 661.28,454.63C656.19,447.99 658.42,436.8 666.42,433.54ZM705.24,433.37C710.81,431.31 718.07,432.22 721.88,437.16C725.16,441.42 725.39,447.57 723.35,452.41C719.5,461.12 705.92,462.14 700.21,454.84C694.92,448.23 696.97,436.56 705.24,433.37ZM642.14,451.29C644.3,447.41 650.05,447.55 652.72,450.79C651.07,456.38 649.99,462.24 650.6,468.08C651.29,472.25 653.95,475.7 655.33,479.64C656.68,484.18 660.98,486.75 663.36,490.67C668.86,498.96 673.23,508.68 681.9,514.22C685.43,516.36 689.71,518.41 693.9,517.07C702.3,514.79 708.18,507.66 712.61,500.57C716.12,495.43 718.74,489.57 723.4,485.31C725.85,483.12 726.65,479.84 728.04,476.99C729.52,473.72 731.5,470.53 731.81,466.88C732,461.19 730.66,455.62 729.78,450.04C732.28,448.18 735.87,447.78 738.64,449.3C740.32,451.1 740.77,453.63 741.04,456C741.52,460.32 741.74,464.7 741.39,469.04C740.1,477.01 734.81,483.81 734.15,491.94C734.02,494.99 733.14,497.95 731.64,500.6C725.75,511.45 718.35,522.2 707.3,528.3C704.47,529.77 701.79,532.59 701.99,535.99C701.96,541.91 702.02,547.84 702,553.76C701.55,554.2 700.65,555.07 700.2,555.51C693.7,555.4 687.2,555.74 680.72,555.28C680.22,548.14 680.65,540.98 680.45,533.84C678.92,531.97 677.57,529.81 675.38,528.65C666.15,523.56 659.17,515.24 653.81,506.32C651.41,502.19 648.49,498.05 648.16,493.14C647.85,483.16 640.16,475.07 640.46,464.98C640.7,460.4 640.85,455.71 642.14,451.29ZM678.28,561.19C685.82,560.72 693.42,561.13 700.98,560.99C708.02,560.56 714.43,566.97 714.01,574.02C713.98,608.38 714.02,642.74 713.99,677.1C714.19,683.55 708.49,689.49 702.04,689.51C694.69,689.49 687.33,689.55 679.98,689.48C675.72,689.47 672.05,686.59 669.83,683.16C667.7,679.48 667.95,675.09 667.98,671.01C668.04,638.67 667.95,606.33 668.03,574C668.01,567.99 672.38,562.44 678.28,561.19ZM610.41,695.01C617.74,695 625.07,694.98 632.4,695.02C631.82,709.52 646.8,722.12 660.94,718.9C671.9,716.74 680.4,706.19 680.12,695L702.07,695C701.61,698.67 701.56,702.4 700.76,706.04C698.15,718.46 689.92,729.46 678.94,735.76C665.71,743.12 648.88,743.32 635.39,736.49C624.05,730.89 615.46,720.19 612.21,707.99C611.03,703.76 610.82,699.35 610.41,695.01ZM886.18,497.25C894.38,496.11 903.22,498.95 908.87,505.1C918.54,515.14 917.89,533.19 907.37,542.41C897.04,552.09 878.95,550.93 869.87,540.1C864.09,533.61 862.81,524.26 864.65,516.01C867.06,506.08 876.07,498.38 886.18,497.25ZM598.01,520.51C613.5,520.49 629,520.49 644.5,520.51C644.51,576.84 644.51,633.16 644.5,689.49C640.2,689.5 635.91,689.51 631.62,689.5C631.6,674.68 631.68,659.85 631.59,645.04C631.47,635.56 627.1,626.25 619.84,620.16C612.86,614.04 603.31,611.5 594.15,612.32C590.95,605.99 585.85,600.5 579.24,597.71C568.34,592.79 554.57,595.58 546.51,604.43C537.22,614.03 536.14,630.2 544.08,640.95C551.12,651.21 565.14,655.65 576.86,651.58C585.8,648.71 592.69,641.13 595.51,632.27C600.34,632.12 605.6,633.37 608.62,637.46C611.88,641.2 611.46,646.4 611.4,651.02C611.35,663.84 611.39,676.67 611.38,689.5C606.92,689.51 602.46,689.5 598.01,689.49C598,684.55 598,679.61 598.01,674.68C591.68,683.44 581.61,689.03 571,690.59C559.37,691.86 547.02,691.12 536.65,685.18C519.84,676.2 510.19,657.76 507.65,639.38C505.95,624.71 506.36,609.42 511.59,595.45C516.58,581.36 527.22,568.99 541.18,563.25C550.21,559.41 560.23,558.82 569.9,559.83C580.82,561.31 591.33,566.85 598,575.75C598.01,557.34 598,538.92 598.01,520.51ZM166.52,687C166.49,634.84 166.48,582.67 166.52,530.5C181.4,530.5 196.28,530.49 211.16,530.5C227.76,557.62 244.22,584.83 260.96,611.87C277.05,584.73 293.32,557.71 309.28,530.5C324.18,530.5 339.09,530.49 353.99,530.51C354,560.67 354,590.82 354,620.98C354.05,627.98 353.74,635 354.47,641.98C354.57,656.97 354.46,671.96 354.52,686.95C338.01,687.06 321.51,686.97 305,687C304.93,664.38 305.14,641.77 304.89,619.15C293.78,636.87 283.48,655.09 272.68,673C264.48,672.89 256.27,673.2 248.09,672.88C246.54,671.68 245.88,669.7 244.81,668.13C235.25,652.66 225.61,637.25 216.1,621.75C215.87,643.5 216.07,665.25 216,687C199.51,687.01 183.01,686.99 166.52,687ZM379.77,582.81C389.23,570.03 404.42,562.26 420,560.16C435.13,558.33 451.05,559.41 464.9,566.24C478.31,572.81 488.91,584.92 493.59,599.11C497.48,610.59 498.1,622.91 496.86,634.9C468.74,635.13 440.62,634.93 412.5,634.99C413.22,639.97 414.65,645.08 418.12,648.88C421.78,653.05 427.7,654.51 433.06,653.94C438.61,653.16 443.37,649.17 445.69,644.15C462.01,643.8 478.35,644.08 494.68,644.02C491.27,666.19 472.44,683.93 451.02,689.03C442.53,691.41 433.67,691.13 424.96,690.93C409.39,689.78 393.79,683.44 383.23,671.68C373.06,660.73 368.04,645.82 367.19,631.07C366.08,614.27 369.37,596.42 379.77,582.81ZM421.19,599.25C416.57,601.94 414.42,607.14 412.87,612C425.48,611.99 438.08,612.03 450.69,611.97C450.02,608.82 449.29,605.52 447.15,603C441.21,595.29 429.12,593.8 421.19,599.25ZM744.05,577.05C752.43,566.47 765.95,561.37 779.03,559.89C793.68,558.64 809.25,559.29 822.37,566.67C836.75,574.05 845.19,589.74 846.59,605.48C832.67,605.54 818.75,605.5 804.83,605.5C803.9,602.11 802.69,598.54 799.87,596.25C794.77,592.29 787.3,591.25 781.57,594.45C778.91,595.91 777.44,599.94 779.65,602.4C782.73,606.14 787.66,607.38 792.13,608.62C805.46,612 819.72,613.75 831.45,621.46C838.81,626.01 844.14,633.71 845.69,642.24C847.94,653.46 846.14,666.32 837.93,674.82C827.13,687.14 809.83,691.38 794.01,691.01C780.21,691.53 766.03,688.84 754.05,681.78C741.27,674.27 731.73,660.63 731.37,645.52C746.19,645.49 761.02,645.47 775.85,645.53C777.58,656.23 791.04,661.2 800.06,656.25C802.6,655 804.12,651.9 803.36,649.15C801.11,644.47 795.58,643.2 791.05,641.81C777.43,638.32 762.8,636.93 750.66,629.26C742.82,624.54 737.49,616.04 736.56,606.94C735,596.52 737.35,585.34 744.05,577.05ZM1011.77,560.38C1024.27,559.03 1037.83,560.03 1048.42,567.47C1059.38,574.74 1065.89,587.24 1068,599.99C1069.46,606.56 1068.91,613.31 1069,619.99C1069,643.15 1069.01,666.32 1068.99,689.49C1053.83,689.5 1038.67,689.51 1023.51,689.49C1023.49,668 1023.5,646.51 1023.51,625.01C1023.29,617.84 1022.85,609.88 1017.67,604.35C1010.19,595.64 995.09,596.09 987.76,604.76C983.69,609.49 982.58,615.97 982.49,622.03C982.51,644.51 982.5,667 982.49,689.49C967.16,689.51 951.83,689.51 936.5,689.49C936.49,646.66 936.49,603.83 936.5,561C951.83,561 967.16,560.99 982.49,561.01C982.48,566.36 982.59,571.72 982.37,577.07C989.7,568.13 1000.3,562 1011.77,560.38ZM877.18,561.18C884.78,560.76 892.43,561.09 900.05,561.01C906.51,560.82 912.6,566.44 912.51,573C912.51,607.67 912.47,642.35 912.53,677.02C913.01,683.79 906.59,689.79 899.95,689.53C892.98,689.47 886,689.52 879.02,689.51C872.85,689.57 867.27,684.22 867.02,678.07C866.96,643.36 867.05,608.64 866.97,573.93C866.52,567.91 871.3,562.18 877.18,561.18ZM565.44,611.53C572.19,610.17 579.32,615.23 580.29,622.04C581.68,629.03 576.17,636.37 569.06,636.94C562.4,637.89 555.71,632.69 554.93,626.03C553.77,619.39 558.77,612.5 565.44,611.53Z" style="fill:rgb(84,84,84);"/>
        </g>
    </g>
</svg>
