<?xml version="1.0" encoding="UTF-8" standalone="no"?>
<!DOCTYPE svg PUBLIC "-//W3C//DTD SVG 1.1//EN" "http://www.w3.org/Graphics/SVG/1.1/DTD/svg11.dtd">
<svg width="100%" height="100%" viewBox="0 0 1081 327" version="1.1" xmlns="http://www.w3.org/2000/svg" xmlns:xlink="http://www.w3.org/1999/xlink" xml:space="preserve" xmlns:serif="http://www.serif.com/" style="fill-rule:evenodd;clip-rule:evenodd;stroke-linejoin:round;stroke-miterlimit:2;">
    <g transform="matrix(1,0,0,1,8555,-334)">
        <g transform="matrix(1.20635,0,0,1.20635,-8568.87,330.523)">
            <path d="M703.24,31.25C699.98,28.34 696.48,25.64 693.72,22.24C692.59,21.31 693.57,20.01 694.04,19.05C697.27,13.25 701.29,7.9 705.81,3.04C709.25,5.53 712.48,8.29 715.67,11.1C717.86,13.31 720.48,15.24 721.97,18.04C719.23,24.52 714.2,29.64 710.04,35.21C709.84,35.63 709.46,36.46 709.26,36.87C711.65,38.29 713.92,39.96 715.57,42.25C718.35,44.83 721.61,47 723.81,50.15C724.31,51.44 723.09,52.55 722.66,53.67C719.42,59.23 715.79,64.62 710.98,68.95C708.31,66.6 705.72,64.18 703.09,61.8C700.38,59.47 697.64,57.19 694.95,54.85C697.87,47.3 703.63,41.42 708.37,35.01C706.45,34.06 704.88,32.59 703.24,31.25ZM780.47,117.59L779.28,118.02C771.15,120.84 764.01,125.95 757.6,131.59C753.81,135.13 749.71,138.62 747.42,143.38C744.68,149.01 743.81,155.29 743.05,161.43C742.62,163.37 741.9,165.22 741.28,167.09C740.85,160.74 741.44,154.35 742.65,148.11C743.76,142.79 745.5,137.33 749.22,133.23C756.34,125.5 764.7,118.78 774.24,114.28C791.94,105.92 812.29,106.19 830.06,97.99C828.01,100.53 825.99,103.11 824.26,105.88C819.42,107.46 814.51,108.77 809.57,109.97C799.62,111.03 789.72,113.16 780.66,117.52L780.57,117.56L780.47,117.59ZM25.79,147.69C25.53,147.67 25,147.62 24.74,147.6C24.16,145.37 23.46,143.17 22.71,140.99C22.28,135.91 22.27,130.76 23.68,125.83C24.81,123.25 26.16,120.78 27.7,118.42L29.82,118.3C29.17,123.21 29.09,128.18 29.6,133.12C31.58,138.29 34.96,142.94 39.67,145.93L39.54,146.17C46.12,148.57 53.93,148.79 60.11,145.14C60.87,144.09 62.06,143.51 63.16,142.91C64.71,140.38 66.85,138.1 67.41,135.08C67.95,131.38 67.62,127.62 67.38,123.91C66.94,122.93 66.49,121.95 66.05,120.97C65.71,120.09 65.42,119.2 65.19,118.29C61.04,112.79 56.72,107.43 51.82,102.57L51.21,102.6C49.08,101.1 46.77,99.51 44.06,99.5C41.25,99.14 38.83,100.85 36.41,101.96C36.39,100.94 36.39,99.93 36.39,98.92L37.33,97.91C37.65,94.2 38.28,90.13 36.21,86.77C32.92,81.11 28.88,75.36 28.43,68.62C26.56,65.04 27.37,60.81 27.33,56.93C27.76,53.09 27.94,48.79 30.45,45.66L30.59,44.86C33.05,40.55 36.26,36.37 40.83,34.18C42.19,32.45 44.33,31.85 46.34,31.26C57.45,27.81 69.31,30.5 80.05,33.98C83.33,38.17 82.48,44.13 81.93,49.08C81.05,52.04 81.61,57.13 77.29,56.9C77.08,55.54 76.89,54.18 76.72,52.82C74.45,46.99 70.16,41.63 64.05,39.61C60.43,39.01 56.71,39.07 53.07,39.43C48.42,40.2 44.73,43.69 42.44,47.66C41.36,52.38 41.42,57.16 42.66,61.84C46.03,65.99 48.89,70.61 53.06,74.07C58.8,79.16 64.54,86.73 73.22,85.35L73.73,84.7C74.44,84.31 75.86,83.52 76.57,83.12C76.7,84.59 76.7,86.15 75.6,87.28C74.86,91.61 75.18,96.02 76.8,100.12C80.8,105.2 83.01,112.08 82.7,118.61C82.76,122.09 82.65,125.58 82.31,129.04C81.58,131.06 80.86,133.09 80.3,135.17C78.54,139.74 75.47,143.58 72.81,147.63L71.6,147.16C71.55,147.79 71.44,149.07 71.39,149.71L70.31,149.28C69.4,150.17 68.44,151.02 67.42,151.78C64.39,154.21 60.63,155.25 56.99,156.34C48.73,157.18 39.82,156.68 32.93,151.53L32.01,151.54C30.07,150.52 27.99,149.83 25.94,149.09L26.76,149.06L25.79,147.69ZM582.86,68.78C582.24,71.9 581.08,74.88 580.55,78.02C580.11,82.08 580.32,86.17 580.31,90.25C578.54,91.74 576.71,93.23 574.49,93.97C574.18,93.24 573.57,91.77 573.26,91.04C569.72,90.86 570.91,94.29 570.52,96.58C568.67,98.19 566.54,99.44 564.58,100.88C564.07,99.72 563.57,98.56 563.06,97.41C559.86,97.56 560.58,100.69 560.52,103.01C559.45,103.79 558.4,104.57 557.35,105.37C556.8,105.44 555.68,105.6 555.12,105.68C557.99,97.7 561.56,90 564.36,81.99C565.94,77.86 567.22,73.57 569.38,69.69C570.52,65.13 572.35,60.68 574.4,56.43C577.09,47.7 581.06,39.36 583.76,30.61C584.14,30.6 584.91,30.57 585.3,30.55C587.87,39.58 592.5,47.98 594.63,57.09L594.95,56.24C596.45,60.84 598.58,65.23 599.81,69.91C605.23,81.86 609.01,94.51 614.52,106.45L612.64,106.21C611.28,105.24 609.91,104.27 608.55,103.31C608.04,101.6 609.85,97.85 606.77,98.21C606.35,98.79 605.5,99.95 605.08,100.53C604.72,100.49 604,100.42 603.64,100.39C601.96,99.1 600.16,97.98 598.58,96.58C598.41,94.9 598.49,93.2 598.4,91.51C595.74,90.64 595.22,92.5 595.11,94.66C593.13,93.43 591.21,92.13 589.38,90.71C589.8,84.82 589.17,78.98 588.09,73.2L588.1,74.03C587.46,71.58 586.95,68.98 585.2,67.04C584.61,67.47 583.44,68.34 582.86,68.78ZM127.42,97.12C125.44,98.22 123.58,99.51 121.73,100.8C121.41,100.15 120.76,98.84 120.44,98.18C119.52,98.31 118.6,98.44 117.69,98.59C117.74,99.96 117.73,101.34 117.66,102.71C116.74,103.75 115.61,104.58 114.56,105.48C113.96,105.53 112.77,105.62 112.18,105.67C114.35,100.35 116.66,95.09 118.65,89.7L119.11,89.36C120.6,83.05 123.67,77.26 125.7,71.12C127.2,67.23 128.36,63.19 130.39,59.52C130.82,56.65 132.31,54.08 133.58,51.51C135.31,44.57 138.88,38.21 140.72,31.28C141.52,31.37 142.32,31.46 143.13,31.55C144.77,38.67 147.95,45.34 150.58,52.13L150.42,52.7C151.89,55.18 153.05,57.92 153.49,60.77C155.79,64.95 156.98,69.59 158.85,73.95C160.47,78.43 162.58,82.74 163.76,87.36C165.73,92.11 167.72,96.85 169.54,101.65C171.02,103.04 171.66,104.93 171.84,106.91C169.79,106.71 168.06,105.7 166.94,103.96C166.58,103.8 165.86,103.46 165.5,103.29C165.58,101.66 165.65,100.04 165.7,98.41C165.13,98.38 163.98,98.32 163.4,98.3C163.14,98.89 162.62,100.06 162.36,100.65C161.96,100.58 161.14,100.43 160.73,100.35C158.88,98.91 156.99,97.54 155.09,96.17L155.61,95.16L155.61,91.5C155.03,91.48 153.87,91.43 153.29,91.41C153.03,92.06 152.52,93.38 152.26,94.04C150.07,92.99 146.24,92.1 146.48,89.06C146.62,81.58 146.71,73.13 142.06,66.87C136.7,73.37 137.33,82.53 137.45,90.47C135.74,91.85 133.92,93.11 131.87,93.93C131.46,92.11 130.36,91.19 128.57,91.18C128.18,93.15 128.69,95.41 127.42,97.12ZM231.73,150.06C234.52,152.4 238.17,153.1 241.35,154.68L241.72,156.55C230.6,156.47 219.48,156.39 208.36,156.71L208.31,154.54C209.55,154.38 210.8,154.22 212.05,154.06C214.63,152.83 216.62,150.75 218.35,148.52C220.28,144.95 220.44,140.91 221.21,137.02C221.3,135.98 221.39,134.94 221.49,133.91C221.88,128.24 223.14,122.67 223.57,117C224.51,112.8 224.11,108.52 224.23,104.26C223.95,104.28 223.37,104.31 223.09,104.32C224.2,100.39 219.84,97.38 216.66,95.93C216.58,95.23 216.51,94.52 216.44,93.82C222.02,93.46 226.41,89.04 228.06,83.92C229.56,71.82 231.08,59.73 232.55,47.63C232.93,44.65 232.95,41.52 234.2,38.73C234.28,36.28 234.42,33.82 234.52,31.37C235.37,31.45 236.23,31.53 237.08,31.6C238.88,36.92 240.98,42.15 243.62,47.11L243.44,47.7C245.67,50.85 246.75,54.6 248.34,58.08C253.39,70.16 259.04,81.98 263.96,94.1C265.42,97.08 267.2,100 267.69,103.33L268.21,103.29C269.54,106.98 271.39,110.46 272.65,114.17C274.57,117.35 275.97,120.85 276.95,124.44L279.23,124.65C279.69,123.06 280.24,121.47 281.13,120.06C282.91,114.51 285.23,109.04 288,103.95C289.47,98.81 291.67,93.87 294.07,89.1C297.51,79.39 302.07,70.11 305.82,60.52C307.42,56.92 308.47,53.04 310.61,49.71L310.45,49.1C313.39,43.46 315.51,37.42 317.78,31.48L320.3,31.42C321.2,34.97 321.7,38.6 321.72,42.27L322.42,42.3C324.04,56.1 326.24,69.85 327.6,83.68C328.7,86.3 329.8,89.08 332.03,90.97C334.02,92.96 336.96,93.28 339.57,93.91C338.87,97.3 334.45,98.02 332.73,100.93L332.01,103.94L331.67,103.55C332.14,107.99 331.32,112.54 331.99,116.99C332.61,121.82 333.63,126.61 333.61,131.5C333.79,131.58 334.15,131.73 334.33,131.81C334.42,134.4 334.54,136.99 334.6,139.58C334.75,139.62 335.06,139.69 335.21,139.73C335.74,144.73 338.78,149.06 342.44,152.35C344.41,153.35 346.46,154.25 348.66,154.66L348.72,156.7C336.58,156.41 324.44,156.6 312.31,156.58C312.46,155.76 312.62,154.93 312.78,154.11C314.36,153.22 315.9,152.24 317.22,150.98C318.63,145.38 316.98,139.72 316.5,134.12C314.58,115.39 311.82,96.75 310.17,77.99C309.6,78.17 308.44,78.55 307.87,78.74C306.69,83.07 304.9,87.2 302.96,91.23C301.06,95.26 299.85,99.59 297.61,103.45C296.15,108.18 294.18,112.84 291.76,117.18C290.49,121.88 287.96,126.11 286.33,130.68L285.56,130.68C285.5,133.03 284,135 283.27,137.16C281.8,140.09 280.5,143.1 279.19,146.11C278.95,146.64 278.47,147.69 278.23,148.22C277.38,150.04 276.53,151.88 275.78,153.75C275.03,154.92 274.85,157.45 272.76,156.62C272,155.16 271.41,153.63 270.78,152.11C269.81,149.78 268.79,147.46 267.77,145.15C266.51,141.61 264.56,138.36 263.3,134.84C262.39,132.83 261.53,130.8 260.45,128.88L260.61,128.29C258.75,125.78 258.07,122.64 256.48,119.98L256.51,119.2C252.57,112.09 250.18,104.23 246.46,97.01L246.55,96.66C244.26,92.2 242.12,87.63 240.43,82.92L240.57,82.14C240.07,81.74 239.07,80.93 238.57,80.53C238.44,80.09 238.2,79.23 238.07,78.8C237.08,83.21 237.77,87.84 236.38,92.2C236.07,98.83 235.14,105.45 234.4,112.06C234.37,117.73 233.21,123.33 232.75,128.97C232.31,136 230.52,143.02 231.73,150.06ZM446.81,148.1C448.99,151.66 452.92,153.5 456.75,154.74C456.63,155.68 456.53,156.62 456.43,157.57C455.57,157.36 453.86,156.93 453,156.72C443.33,156.72 433.64,156.57 423.98,156.77C421.9,156.96 418.18,158.35 418.31,154.85C422.83,153.88 426.84,151.22 429.33,147.3C429.25,134.54 429.65,121.78 429.67,109.03C429.75,105.22 427.79,101.49 424.87,99.12C423.13,97.61 419.6,97.96 419.5,95.09C424.12,94.08 428.23,90.78 429.32,86.05C429.92,72.35 429.67,58.62 429.41,44.9C427.21,40.76 422.9,38.67 418.62,37.35C418.55,36.85 418.42,35.84 418.35,35.33C434.57,35.67 450.8,35.12 467.02,35.64C475.73,36 484.39,40.76 488.64,48.43C490.09,50.87 491.7,53.46 491.66,56.41C493.03,59.54 492.69,63 492.55,66.31C492.99,72.02 492.17,77.84 490,83.15C488.92,85.72 486.98,87.85 486.16,90.54C488.53,92.59 491.17,94.34 494.31,94.95C494.28,95.64 494.26,96.33 494.24,97.02C490.77,97.63 487.65,99.52 485.66,102.44C484.8,104.31 486.39,106.13 486.71,107.95C488.9,111.41 490.3,115.3 491.73,119.12C492.87,121.33 494.25,123.49 494.76,125.96C497.69,131.15 500.86,136.19 503.96,141.27C509.18,146.74 513.95,155.09 522.7,154.65C522.59,155.58 522.48,156.52 522.36,157.45C514.24,155.85 505.76,157.76 497.81,155.3C493.12,152.46 488.28,148.74 486.33,143.45L485.79,143.64C483.2,139.27 480.39,135 478.24,130.39C477.38,129.06 476.47,127.73 476.04,126.2C472.37,121.25 470.22,115.34 467.11,110.03C465.61,106.89 463.64,103.46 459.92,102.75C455.47,102.32 450.99,102.61 446.54,102.65C447.01,117.79 446.59,132.95 446.81,148.1ZM451.61,48.71C451.65,62.05 451.56,75.39 451.66,88.73C454.21,88.74 456.74,88.39 459.29,88.23C462.11,87.23 464.96,86.18 467.47,84.5C469.56,82.6 470.35,79.77 470.69,77.06C472.01,69.55 470.35,61.74 466.81,55.06C463.37,50.26 457.4,48.09 451.61,48.71ZM373.45,44.68C371.33,40.81 367.23,39.11 363.46,37.33L363.07,35.38C375.66,35.64 388.25,35.51 400.84,35.45C400.77,38.05 397.81,38.14 396.1,39.11C393.96,39.79 392.4,41.5 391.31,43.39C391.4,57.81 391.3,72.24 391.15,86.66C392.9,90.65 396.04,94.01 400.45,94.91L400.45,97.28C399.3,97.46 398.16,97.64 397.02,97.82C394.19,100.31 391.32,103.19 390.67,107.07C390.06,112.89 391.07,118.76 390.32,124.58C390.9,127.24 390.62,129.99 390.55,132.69C390.69,134.6 390.73,136.51 390.71,138.43C390.54,141.34 391.77,144.3 391.21,147.16C393.64,151.35 397.96,153.87 402.66,154.73C402.56,155.63 402.47,156.54 402.38,157.45C396.33,156.18 390.13,156.83 384,156.69C377.17,156.74 370.3,156.34 363.53,157.5C363.44,156.54 363.35,155.59 363.27,154.64C367.42,154.81 371,152.19 372.75,148.54C374.39,135.16 373.25,121.63 373.88,108.21C372.88,104.89 371.62,101.5 368.69,99.41L368.87,99.05C366.91,98.15 364.65,97.66 363.14,96C365.09,93.82 368.42,93.66 370.36,91.44C372.8,88.59 373.84,84.73 373.71,81.02C373.6,68.91 373.75,56.79 373.45,44.68ZM676.99,87.67C673.89,84.51 670.39,81.66 667.91,77.97C669.99,70.21 674.81,63.37 679.91,57.24C683.42,60.53 686.91,63.86 690.45,67.13C693.56,69.99 696.56,72.96 699.75,75.74C702.63,77.85 705.01,80.53 707.37,83.19C708.48,84.1 709.57,85.04 710.8,85.81C721.91,74.78 732.01,62.68 741.21,50C741.65,49.7 742.55,49.09 743,48.79C741.44,54.66 738.09,59.81 734.81,64.84C728.86,73.66 722.25,82.06 714.77,89.63C715.19,93.63 718,96.77 719.36,100.47C721.68,106.7 722.48,113.52 721.25,120.08C720.31,127.63 716.43,134.35 713,141C708.06,150.05 701.51,159.91 690.83,162.44L690.69,162.69C686.87,163.43 682.86,163.84 679.16,162.35L678.99,162.61C676.1,160.9 673.58,158.62 671.94,155.66C669.16,149.1 669.53,141.62 671.89,135C675.19,125.25 681.65,117.03 688.28,109.32C690.2,107.19 692.08,105 693.5,102.5C690.95,100.63 688.59,98.52 686.29,96.36C683.16,93.49 680.01,90.65 676.99,87.67ZM701.14,111.15C700.36,110.17 699.58,109.2 698.8,108.24C694.12,112.36 689.5,116.62 685.57,121.45C682.11,125.76 681.95,132.04 685.09,136.56C687.22,138.51 689.71,140.05 692.38,141.14C695.17,141.54 697.99,141.53 700.81,141.52C703.63,140.77 706.38,139.77 709.15,138.81C709.23,135.84 709.27,132.86 709.02,129.9C708.49,126.31 707.56,122.77 706.18,119.41C704.79,116.49 703.11,113.71 701.14,111.15ZM698.45,111C701.91,115.11 704.68,119.87 705.94,125.14C704.43,121.83 702.34,118.84 700.17,115.95C696.63,119.44 692.96,122.82 689.68,126.55C687.61,128.83 686.5,131.8 686.41,134.86C684.12,131.22 684.33,126.47 686.91,123.03C690.27,118.6 694.58,114.99 698.45,111ZM655.84,238.51C647.37,232.68 646.26,221.21 647.13,211.8C647.66,205.31 649.38,198.96 651.92,192.98C655.29,184.97 658.97,177.04 663.71,169.74C664.9,167.81 666.43,166.11 668.24,164.74C667.32,169.95 663.49,173.95 661.98,178.95C660.03,184.32 659.58,190.03 659.02,195.66C659.37,204.04 661.95,212.95 669.17,217.98C673.52,220.22 678.31,221.51 683.22,221.55C690.67,220.69 697.84,218.11 704.23,214.19C708.76,211.74 712.56,208.21 717.01,205.63C719.7,201.88 724.37,199.75 726.33,195.39C726.79,193.76 726.82,192.04 727.16,190.38C725.25,178.78 728.26,166.95 732.15,156.06C738.87,138.95 748.82,122.9 762.11,110.13C765.69,106.44 770.31,104.06 774.02,100.53C772.23,99.45 770.45,98.38 768.64,97.35C765.92,95.9 763.47,94.02 761.2,91.95L761.35,91.75C758.77,89.13 756.82,86.01 755.21,82.73C752.76,76.96 752.49,70.35 754.6,64.43C757.85,55.05 764.71,47.54 771.65,40.68C777.04,35.56 782.74,30.54 789.46,27.23L789.51,26.93C794.35,24.3 799.51,22.07 805.03,21.39L805.18,21.13C808.5,20.77 811.84,20.7 815.19,20.85C820.54,21.85 825.73,23.93 829.79,27.64C833.09,31.12 836.43,36.7 833.22,41.27C828.74,46.8 823.75,52.03 817.78,55.96C816.72,53.83 815.87,51.6 815.27,49.31C813.18,44.81 809.05,41.92 804.64,40C801.41,39.31 798.17,38.73 794.9,38.33C790.78,38.44 786.69,38.99 782.66,39.83C779.31,41.18 775.34,41.92 773.02,44.94C770.1,49.01 770.77,54.24 770.69,58.95C771.72,62.84 773.18,66.61 775.26,70.06C777.23,72.49 779.29,74.84 781.51,77.05C785.83,80.29 790.61,82.86 795.77,84.52C803.06,86.63 810.68,87.07 818.23,86.75C825.34,86.18 832.19,84.26 839.05,82.42L839.15,82.16C842.82,80.58 846.52,79.02 849.92,76.9C853.26,74.89 856.09,72.13 859.6,70.39C857.87,75 853.99,78.26 850.49,81.51C845.16,86.03 839.63,90.41 833.42,93.66L833.32,93.96C825.73,98.24 817.27,100.93 808.71,102.41L808.57,102.71C799.09,104.75 789.53,106.51 780.3,109.47C767.03,114.48 755.06,122.97 746.09,133.95C738.76,145.28 739.06,159.46 739.17,172.45C739.47,174.64 739.85,176.84 740.37,179C743.43,162.24 751.03,146.22 762.4,133.5C772.02,122.48 785.98,115.7 800.32,113.53L800.43,113.29C806.59,112.17 812.84,111.68 819.1,111.73C820.75,111.81 822.4,111.88 824.06,111.95C826.59,103.79 832.8,97 840.05,92.69C836.97,98.35 831.84,104.83 835.4,111.49L835.3,111.62C837.35,114.08 839.45,116.49 841.66,118.81C844.42,117.01 847.34,115.44 850.52,114.48L850.51,114.33C857.22,112.89 864.24,112.44 870.97,114.04L870.85,114.21C875.94,115.16 880.73,117.27 885.1,120.04L884.99,120.19C887.9,122.29 890.47,124.82 892.83,127.52C895.91,131.43 898.35,135.81 900.08,140.48C901.96,146.01 903.07,151.78 903.3,157.62C903.87,174.2 898.56,190.39 891.07,204.99C886.04,214.93 879.7,224.11 873.3,233.19C864.88,244.79 853.49,254.54 840,259.67L839.91,259.88C829.71,263.93 818.78,265.84 807.85,266.25C804.95,266.18 802.05,266.09 799.16,265.93C795.82,265.57 792.49,265.05 789.18,264.49L789.25,264.36C786.2,263.77 783.2,262.94 780.23,262.04C777.04,260.83 773.88,259.53 770.79,258.1C767.96,256.61 765.21,255.01 762.51,253.32C756.22,249.13 750.63,243.98 745.77,238.21C740.7,232.24 736.71,225.43 733.52,218.31C731.22,213.55 729.88,208.45 728.28,203.44C727.17,203.02 726.55,204.29 725.83,204.84C719.13,211.63 714.1,220.28 705.86,225.41C704.56,227.56 702.16,228.73 700.25,230.25C691.28,236.74 681.12,242.66 669.74,242.87C664.79,242.63 660.03,241.13 655.84,238.51ZM790.68,130.54C780.82,134.64 771.23,140.04 763.89,147.91C754.77,158.18 748.04,170.42 743.3,183.27C740.77,189.14 744.73,195.02 746.91,200.34C750.28,206.93 754.37,213.2 759.52,218.55C764.99,224.35 771.25,229.39 778.05,233.55C780.32,234.93 782.65,236.21 785.05,237.37C787.77,238.65 790.57,239.8 793.42,240.79C796.48,241.81 799.6,242.66 802.76,243.34C805.93,243.97 809.14,244.42 812.37,244.7C815.62,244.93 818.89,244.98 822.17,244.88C832.4,244.44 842.48,242.08 852.05,238.51C859.81,235.35 866.81,230.58 873.18,225.19C877.39,221.66 879.71,216.51 881.68,211.5C885.38,201.54 887.27,190.95 887.72,180.35C887.84,173.95 887.51,167.52 886.16,161.25C885.03,156.23 883.29,151.32 880.58,146.94C878.44,143.62 875.67,140.78 872.73,138.19C869.27,135.1 865.31,132.54 860.89,131.08C857.63,130.03 854.25,129.41 850.88,128.86C852.24,129.93 853.64,130.97 854.97,132.1C859.73,137.09 863.13,143.87 862.62,150.9C862.44,153.99 860.02,156.66 857,157.24C851.14,158.34 845.36,155.71 840.76,152.29C837.96,150.22 835.29,147.99 832.56,145.84C829.59,143.33 826.27,140.74 824.96,136.94C823.81,133.4 826.19,130.15 827.75,127.17C827.24,127.1 826.24,126.97 825.73,126.9C820.51,126.13 815.21,125.86 809.94,126.27C803.37,126.84 796.88,128.31 790.68,130.54ZM840.66,134.95C840.14,135.03 839.12,135.2 838.6,135.28C839.75,139.24 842.5,142.38 845.78,144.76C847.84,146.28 850.09,147.53 852.38,148.7C851.04,146.1 849.56,143.57 847.72,141.3C845.63,138.91 843.26,136.76 840.66,134.95ZM870.19,158.48C870.49,157 870.81,155.53 871.12,154.06C871.36,156.32 871.6,158.58 871.93,160.84C874.26,161.7 876.85,162.62 878.22,164.86C879.21,166.68 879.61,168.75 880.22,170.72C879.29,177.54 879.39,184.61 880.17,191.45C877.57,199.56 864.41,199.36 861.57,191.46C862.52,188.38 862.17,185.13 862.22,181.96C862.15,178.24 862.51,174.48 861.7,170.82C862.49,168.38 862.79,165.58 864.7,163.69C866.04,162.22 868.01,161.65 869.78,160.85C869.75,160.03 869.97,159.25 870.19,158.48ZM875.79,171.94C875.79,178.14 875.78,184.33 875.8,190.53C876.5,190.44 877.9,190.27 878.61,190.18C878.85,184.1 878.63,178.01 878.7,171.93C877.97,171.93 876.52,171.94 875.79,171.94ZM867.3,171.94C867.3,178.08 867.29,184.23 867.31,190.38L874.82,190.38C874.83,184.23 874.82,178.08 874.82,171.94C872.31,171.93 869.8,171.93 867.3,171.94ZM863.42,171.93C863.42,178.09 863.41,184.24 863.43,190.39C864.09,190.38 865.43,190.38 866.09,190.37L866.09,171.94C865.43,171.94 864.09,171.94 863.42,171.93ZM767.78,146.79C782.92,133.37 803.93,125.55 824.19,128.82C823.76,130.32 823.19,131.77 822.66,133.23C806.52,131.89 790.24,136.76 776.97,145.88C765.51,153.22 758.06,165.13 751.96,176.97C749.53,182.1 747,187.27 745.84,192.85C745.01,190.31 743.64,187.52 744.87,184.87C749.94,170.89 757.26,157.42 767.78,146.79ZM858.03,132.2C869.66,135.81 879.79,145.38 882.92,157.31C878.66,148.47 870.87,141.33 861.71,137.83C860.47,135.96 859.24,134.08 858.03,132.2ZM823.9,140.01C826.31,142.93 828.97,145.65 832.01,147.94C837.8,152.48 843.5,158.02 851.08,159.19C855.22,160.06 860.17,159.33 862.87,155.76C865.26,152.6 864.66,148.41 864.3,144.73C865.84,149.37 867.38,154.62 865.35,159.35C863.25,163.87 857.59,165.2 853.06,164.24C845.94,163.26 840.38,158.33 835,154C830.25,150.33 825.16,146.22 823.9,140.01ZM774.34,194.02C774.8,188.04 774.71,181.17 779.79,176.98C778.03,181.71 777.89,186.76 777.97,191.75C778.35,194.27 778.88,196.76 779.56,199.22C779.65,197.09 779.69,194.96 779.86,192.84C781.64,196.15 781.55,200.19 783.61,203.44C784.91,206.94 788.37,208.63 790.83,211.18C791.17,211.16 791.84,211.12 792.17,211.1L792.66,211.12C795.79,211.73 798.52,213.5 801.2,215.15C801.81,215.22 803.04,215.35 803.66,215.41C803.66,214.97 803.67,214.09 803.68,213.65C804.64,207.55 808.13,202.2 812.25,197.73L812.41,199.17C812.41,198.69 812.42,197.71 812.42,197.22C812.95,197.35 814,197.62 814.53,197.76L814.2,196.44C816.05,196.85 816.8,196.17 816.44,194.41C818.05,194.48 820.23,194.95 819.44,192.5C820.91,192.55 822.29,192.04 823.62,191.43L823.27,190.56L825.59,190L823.16,189.52C825.36,188.52 827.65,187.44 830.09,187.09C829.36,185.2 828.5,183.37 827.47,181.64C827.38,183.58 826.84,185.73 824.9,186.61C822.16,186.21 819.85,184.29 817.97,182.36C816.24,179.2 815.05,175.33 816.62,171.85C814.73,171.43 812.84,171.03 810.96,170.64C811.69,170.1 812.43,169.57 813.17,169.03C807.65,167.86 802.12,168.81 796.69,169.88C800.86,166.74 806.01,165.24 811.09,164.36C808.05,164.21 805.01,164.27 801.98,164.3C804.67,161.91 808.67,162.34 812,161.53C801.57,158.73 791.04,163.5 783.6,170.68C782.97,170.73 781.7,170.82 781.07,170.87C782.37,166.97 785.05,163.74 788.29,161.29C791.96,158.56 795.81,155.86 800.27,154.62C799.99,154.18 799.43,153.3 799.15,152.85C799.42,153.01 799.97,153.33 800.24,153.49C809.14,150.47 818.62,152.57 827.17,155.74C831.63,157.19 835,160.62 838.64,163.42C840.74,161.22 841.34,165.39 841.73,166.93C850.84,175.65 854.17,188.94 852.64,201.21L852.36,200.56C851.44,206.18 850.94,212.31 847.14,216.88C844.11,223.8 837.8,229.08 830.66,231.41C821.52,237.07 810.14,237.3 799.84,235.37C802.29,235.33 804.81,235.36 807.08,234.27C803.39,234.06 799.84,232.99 796.39,231.72L795.98,231.99C795.08,231.58 794.19,231.18 793.3,230.8C792.96,230.18 792.27,228.94 791.92,228.33C788.5,227.86 785.76,225.12 783.45,222.72C785.43,223.39 787.44,224.01 789.44,224.68L788.06,223.57C787.06,222.31 786.04,221.07 785.06,219.8C783.19,218.21 781.62,216.25 780.6,214.01C780.34,211.79 779,209.94 777.99,208.02C775.6,203.74 774.85,198.81 774.34,194.02ZM799.16,177.59C802.81,177.88 805.65,180.37 808.6,182.29C812.48,184.9 813.81,189.69 814.34,194.09C811.48,193.84 808.57,193.9 805.75,193.33C802.67,191.97 800.26,189.1 799.25,185.92C798.95,183.15 799.14,180.36 799.16,177.59ZM790.14,231.74C793.4,232.74 797.36,232.86 799.85,235.43C796.42,234.87 792.76,234.23 790.14,231.74ZM786.06,196.77C788.01,193.86 792.8,195.39 795.96,195.38C800.93,195.54 804.34,200.36 804.39,205.04C801.59,206.09 798.55,207.76 795.52,206.56C791.08,205.16 786.99,201.4 786.06,196.77ZM594.55,123.39C592.36,120.23 590.62,116.73 589.51,113.06C589.19,110.13 589.4,107.18 589.46,104.24C597.87,107.05 606.42,109.42 614.87,112.13C616.91,112.73 617.62,115 617.82,116.89C619.49,120 620.72,123.31 621.71,126.69L622.06,126.93C622.98,129.45 623.88,131.98 624.62,134.57C624.74,134.58 624.99,134.6 625.11,134.62C625.64,137.25 626.68,139.73 627.78,142.18C629.49,146.77 631.68,151.2 632.93,155.95C623.89,151.97 615.45,146.44 607.94,140.01C602.03,136.02 598.2,129.81 594.36,123.97L594.55,123.39ZM151.03,122.49C147.92,117.11 144.42,110.35 147.5,104.27C155.37,107.64 163.84,109.36 171.95,112.06C174.15,112.69 174.52,115.3 175.56,117.01L175.22,117.69C175.98,119.03 176.66,120.41 177.27,121.83C177.85,123.53 178.49,125.22 179.18,126.9C180.7,131.08 182.6,135.14 183.7,139.47L184.26,139.41C186,144.93 188.56,150.21 189.78,155.89C185.19,153.18 180,151.28 175.96,147.77C175.66,147.7 175.05,147.57 174.75,147.5C165.31,140.85 155.98,133.22 151.03,122.49ZM562.15,138.91C554.44,145.85 545.57,151.64 536.12,155.88C537.71,150.77 540.09,145.94 541.75,140.85C542.54,139.26 543.22,137.59 543.76,135.9C544.02,135.39 544.52,134.37 544.78,133.85L544.54,132.84C545.1,132.08 545.67,131.31 546.23,130.54C546.75,127.66 547.4,124.64 549.11,122.21C549.95,119.1 551.01,116.02 552.49,113.15C553.07,111.76 554.76,111.59 556,111.12C563.87,108.87 571.8,106.8 579.59,104.29C579.52,107.98 580.29,111.91 578.69,115.38C576.98,119.23 575.29,123.13 572.73,126.51C571.46,129.46 569.19,131.84 567.22,134.33C565.7,136.02 564.32,138.04 562.15,138.91ZM104.59,149.61C101.37,151.95 97.85,153.93 94.02,155.09C94.52,152.87 95.15,150.7 95.75,148.51C95.9,148.51 96.18,148.49 96.33,148.49C97.02,145.61 98.02,142.82 99.17,140.1C99.84,138.43 100.49,136.74 101.2,135.09C101.68,133.67 102.3,132.3 102.78,130.89C103.84,128.25 104.84,125.59 105.89,122.95C106.26,121.7 106.62,120.44 106.96,119.18L108.04,119.68C106.86,117.42 109.27,114.91 109.73,112.6C112.35,111.36 115.16,110.64 117.93,109.82C119.95,109.3 121.97,108.73 123.99,108.19C128.16,106.87 132.35,105.58 136.71,104.98C137.09,110.33 136.76,115.89 133.42,120.36L133.55,120.84C131.21,124.48 129.22,128.35 126.57,131.78C122.64,137.18 117.17,141.15 111.89,145.12C109.51,146.69 107.26,148.58 104.59,149.61ZM274.09,175.86C274.73,171.95 277.78,167.98 282.02,167.87C288.38,167.68 294.21,173.6 293.8,179.98C293.67,184.32 291.1,188.01 288.59,191.35C290.7,194.52 292.98,197.56 295.34,200.55C297.05,198.03 297.33,193.86 300.83,193.13C302.95,192.39 305.71,193.63 305.8,196.08C305.68,200.39 303.13,203.99 301.29,207.69C303.3,210.28 305.63,212.64 307.4,215.42C309.29,218.48 305.02,222.83 301.96,220.82C299.18,218.91 296.92,216.35 294.6,213.94C289.06,217.57 283.01,221.84 276.07,221.33C270.13,220.75 266.73,214.49 267.12,208.99C267.2,201.57 272.45,195.75 277.5,190.92C275.32,186.24 273.29,181.12 274.09,175.86ZM273.25,206.88C272.69,210.11 274.29,214.57 278.14,214.58C283.42,214.07 287.64,210.56 291.78,207.59C288.27,203.26 284.82,198.89 281.69,194.28C278.15,197.86 273.91,201.59 273.25,206.88ZM285.45,177.63C285.32,177.23 285.07,176.43 284.94,176.02L284.46,176.5C281.94,178.14 283.48,181.09 284.34,183.25C284.41,182.17 284.56,180.01 284.63,178.93C284.83,178.61 285.25,177.95 285.45,177.63ZM711.92,36.04C716.13,30.7 720.62,25.49 723.71,19.38C724.45,20.57 725.26,21.72 725.87,22.99C723.47,28.93 719.26,33.9 715.26,38.81C714.22,37.8 713.05,36.94 711.92,36.04ZM692.9,24.46C696.77,28.53 701.14,32.08 705.43,35.68C704.84,36.42 704.25,37.15 703.68,37.89C700.01,34.37 695.48,31.45 692.95,26.95C692.94,26.33 692.92,25.08 692.9,24.46ZM836.11,34.11C837.37,38.14 839.55,42.89 836.9,46.85C831.87,53.4 825.9,59.36 818.84,63.74C815.56,59.27 815.38,52.77 810.45,49.55C803.02,44.63 793.33,44.69 784.99,46.86C781.54,47.93 777.26,48.79 775.53,52.36C773.82,56.36 774.1,60.87 774.85,65.06C772.5,59.88 771.87,53.84 773.48,48.36C774.57,44.56 778.68,43.26 782.06,42.23C790.7,39.69 800.82,39.43 808.65,44.45C813.75,47.64 813.94,54.25 817.26,58.78C823.36,54.88 828.63,49.86 833.32,44.37C836.09,41.73 837.19,37.8 836.11,34.11ZM744.38,51.48C744.99,51.31 746.21,50.96 746.82,50.79C746.67,55.13 745.19,59.27 743.03,63C736.47,74.67 727.99,85.14 719.03,95.04C718.25,93.65 717.49,92.27 716.72,90.9C727.22,78.78 738.12,66.43 744.38,51.48ZM710.91,71.42C717.44,66.42 721.93,59.33 725.69,52.13C726.49,53.07 727.26,54.04 727.98,55.05C727.44,57.76 725.8,60.06 724.39,62.38C721.39,67.19 718.17,72.12 713.53,75.52C712.12,76.79 710.85,74.97 709.79,74.19C705.39,69.89 700.68,65.95 696,61.98C694.38,61.01 694.72,59.23 695.16,57.69C700.61,62.04 705.53,66.99 710.91,71.42ZM860.63,73.22C861.95,72.64 863.28,72.07 864.62,71.5C863.02,81.07 854.58,86.89 847.75,92.8C843.86,98.58 839.18,104.19 837.62,111.14C834.08,106.06 837.88,100.16 840.71,95.74C843.08,92.47 844.77,88.56 848.08,86.08C852.76,82.33 857.37,78.31 860.63,73.22ZM667.68,81.13C674.77,88.83 682.72,95.67 690.35,102.81C691.31,103.56 689.47,104.46 689.24,105.22C683.03,99.62 676.86,93.97 671.05,87.95C669.34,86.03 666.99,84.03 667.68,81.13ZM753.13,82.95C756.46,90.92 762.9,97.19 770.66,100.87C769.56,101.63 768.48,102.39 767.41,103.16C760.34,98.5 755.27,91.12 753.13,82.95ZM723.15,105.85C727.37,116.7 725.53,129.09 720.34,139.28C715.48,149.08 710.31,159.49 701.04,165.86C695.09,169.73 687.35,171.68 680.45,169.4C675,167.5 671.45,162.26 670.25,156.79C672.27,160.12 675.1,163.18 678.89,164.43C684.72,166.41 691.19,165.11 696.62,162.49C704.56,158.4 709.86,150.79 714.11,143.18C717.87,136.13 721.85,128.97 723.2,121C724.14,116 723.91,110.86 723.15,105.85ZM904.08,146.75C907.97,157.69 907.57,169.74 905.37,181C901.28,200.95 891,218.96 879.34,235.4C870.44,249.01 857.84,260.45 842.64,266.53C826.09,273.11 807.56,275.01 790.1,271.29C771.43,267.37 754.42,256.37 743.13,241.01C739.56,235.83 735.65,230.58 733.98,224.44C741.81,238.51 753.01,250.96 767.38,258.53C788.01,269.84 813.27,270.77 835.42,263.58C850.55,258.81 863.84,248.98 873.41,236.38C883.51,222.59 893,208.12 899.04,192.03C904.53,177.71 907.05,161.95 904.08,146.75ZM669.77,167.54C670.46,167.16 671.83,166.4 672.52,166.02C672.59,174.08 666.21,179.91 664.64,187.51C662.87,194.24 662.28,201.36 663.69,208.21C660.13,199.92 660.87,190.45 663.15,181.92C664.4,176.72 667.58,172.35 669.77,167.54ZM718.93,215.87C721.55,212.7 724.16,209.5 727.06,206.57C727.6,208.22 728.13,209.88 728.68,211.54C725.86,214.42 723.32,217.56 720.75,220.66C713.94,228.92 705.42,235.6 696.45,241.36C688.25,246.45 678.77,250.57 668.92,249.63C659.47,248.76 649.88,242.48 647.98,232.7C652.44,240.79 662,245.1 671.02,244.77C679.98,244.47 688.34,240.49 695.78,235.75C704.31,230.17 712.4,223.75 718.93,215.87ZM418.17,163.34C419.34,162.67 422.08,162.27 422.67,163.67C421.49,164.33 418.73,164.75 418.17,163.34ZM58.31,178.16C58.51,176.05 63.24,174.79 62.02,177.95C59.66,189.68 56.8,201.31 54.68,213.09C57.7,209.32 59.13,204.09 63.4,201.46C65.54,199.88 69.09,201.21 69.16,203.99C69.62,209.89 67.56,215.72 64.8,220.85C64.18,222.49 62.35,222 61,222.17C61.93,216.53 65.46,211.63 65.89,205.87C65.55,205.21 65.19,204.57 64.8,203.94C58.58,209.91 55.77,218.34 51.69,225.74C51.21,227.45 49.27,227.31 47.86,227.42C48.29,221.54 49.74,215.8 51.1,210.09C53.73,199.5 55.77,188.77 58.31,178.16ZM241.05,177.01C242.15,176.56 243.26,176.13 244.37,175.7C244.53,177.12 244.46,178.51 244.14,179.9C241.8,191 239.16,202.05 237.19,213.23C240.17,209.26 241.69,203.87 246.22,201.28C248.42,199.88 251.61,201.39 251.64,204.05C252.01,209.78 250.19,215.52 247.45,220.51C246.81,222.12 245.02,222.22 243.55,222.32C243.77,219.31 245.34,216.71 246.19,213.88C246.32,213.47 246.58,212.63 246.7,212.22C247.42,209.85 248.9,207.28 248.08,204.78C246.67,203.16 245.6,205.79 244.72,206.58C240.52,212.41 237.65,219.02 234.39,225.38C233.92,227.18 232.1,227.48 230.49,227.45C230.72,220.81 232.62,214.4 234.12,207.97C236.61,197.69 238.61,187.3 241.05,177.01ZM94.83,181.04C94.86,179.41 96.1,178.39 97.19,177.37C97.6,177.8 98.41,178.64 98.82,179.07C97.83,189.17 95.03,198.99 93.12,208.94C95.12,205.46 97.6,201.21 102.02,200.78C104.99,200.31 106.05,203.67 106.01,206C105.81,210.34 104.74,215.3 100.96,217.95C98.29,219.76 95.13,218.12 93.13,216.13C91.59,219.02 90.46,222.11 88.99,225.04C88.18,225.16 86.57,225.4 85.76,225.52C85.81,223.5 85.71,221.44 86.35,219.5C90.25,206.94 92.1,193.88 94.83,181.04ZM97.85,214.21C98.5,215.62 100.11,214.33 100.25,213.29C101.57,210.54 101.98,207.47 102.08,204.46C98.07,205.34 94.68,210.69 97.85,214.21ZM439.09,178.07L440.03,177.48C440.53,177.59 441.52,177.81 442.02,177.93C441.65,183.3 440.34,188.55 439.38,193.84C437.31,205.22 435.21,216.59 433.05,227.95C435.69,225.75 438.38,223.16 441.94,222.7C442.29,224.27 442.04,225.84 440.42,226.49C436.71,228.62 434.02,231.96 430.89,234.78C427.8,235.93 428.54,232.86 428.92,230.96C431.04,219.34 433.36,207.76 435.19,196.09C436.28,190.05 436.98,183.86 439.09,178.07ZM614.33,180.08C614.82,178.52 616.51,177.68 618.1,177.93C618.22,179.31 617.91,180.67 617.64,182.02C615.24,193.35 612.62,204.63 610.53,216.02C609.55,220.34 608.87,224.81 607.07,228.88C606.27,229 604.68,229.22 603.89,229.34C604.4,225.76 604.45,222.15 603.98,218.57C601.67,220.2 598.91,221.96 595.96,220.98C591.95,218.64 592.17,213.1 593.12,209.16C593.98,205.27 597.41,201.23 601.77,202.07C605.5,203.96 606.04,208.53 606.97,212.15C609.99,201.6 611.7,190.73 614.33,180.08ZM597.7,207.43C596.81,209.15 596.98,211.15 596.96,213.02C597,214.47 596.93,216.8 598.9,216.97C601.63,216 603.98,212.55 602.29,209.79C601.78,207.85 599.39,204.57 597.7,207.43ZM407.74,182.86C407.74,180.66 410.08,180.47 411.74,180.22C411.05,187.6 408.78,194.72 408.03,202.09C411.9,194.93 417.44,188.6 424.3,184.17C425.73,182.56 426.67,184.61 427.23,185.71C419.1,192.04 411.59,199.96 408.57,210.05C407.46,214.08 407.69,219.75 412,221.81C414.81,222.36 413.15,225.82 410.95,225.7C407.09,226.15 405.69,221.84 404.24,219.13C403.37,224.55 402.5,229.98 400.93,235.25C400.03,235.36 398.23,235.58 397.32,235.69C397.5,230.13 399.21,224.81 400.3,219.4C402.74,207.21 405.18,195.02 407.74,182.86ZM29.25,183.13C31.8,182.01 35.6,182.11 36.93,184.98C38.04,188.43 36.12,192.58 33.07,194.3C30.17,192.29 35.5,189.11 33.48,186.43C31.57,185.75 29.28,186.28 28.11,188C24.92,191.51 24.99,196.67 25.94,201.03C27.32,207.94 30.68,214.73 29.44,221.92C28.5,226.95 24.84,231.59 19.92,233.21C16.36,234.37 12.4,231.62 11.89,228C11.22,223.71 13.14,218.62 17.19,216.68C20.34,217.27 17.61,220.43 17,222.08C15.51,224.37 15.83,228.61 19.07,229.06C23.1,228.81 25.17,224.69 25.67,221.15C26.77,211.83 20.35,203.36 21.84,194.01C22.68,189.65 24.99,185.02 29.25,183.13ZM129.09,190.81C130.03,187.58 129.62,182.14 134.4,182.48C134.11,185.28 133.55,188.04 132.96,190.79C136.72,190.81 140.48,190.75 144.24,190.89C144.1,192.11 143.91,193.85 142.22,193.61C138.91,193.96 135.59,194.04 132.27,194.02C129.08,206.55 127.48,219.45 123.95,231.89C123.8,233.85 121.04,234.98 120.06,233C121.98,219.83 125.89,207.06 128.39,194C124.52,193.99 120.66,194.01 116.79,194.01C116.76,192.48 117.42,191.24 119.04,191.14C122.38,190.84 125.74,191.09 129.09,190.81ZM333.65,186.13C333.68,184.11 335.64,183.6 337.13,182.9C337.25,183.38 337.48,184.35 337.59,184.84C336.7,190.82 335.22,196.69 334.16,202.65C338.25,202.62 342.31,202.06 346.38,201.68C347.38,196.48 348.36,191.27 349.58,186.12C349.61,184.08 351.73,183.64 353.17,182.91C353.59,189.06 351.27,195.02 350.4,201.07C351.15,201.29 352.64,201.74 353.39,201.97C352.8,203.85 351.28,204.8 349.47,205.26C348.33,211.16 347.47,217.14 345.86,222.93C345.5,225 343.36,224.65 341.84,224.33C342.69,217.88 344.38,211.58 345.64,205.2C341.55,205.45 337.47,205.82 333.4,206.29C331.08,216.84 329.63,227.58 326.92,238.04C325.81,238.42 324.7,238.8 323.59,239.17C323.03,234.65 324.52,230.24 325.44,225.88C326.77,219.54 328.18,213.21 329.29,206.83C327.65,206.59 326.01,206.31 324.39,206.03C325.17,203.41 328.22,203.5 330.34,202.68C331.29,197.14 332.41,191.62 333.65,186.13ZM567.36,185.27C567.98,183.88 569.65,184.65 570.76,184.64C570.29,190.48 569.47,196.28 568.95,202.11C571.09,201.13 573.03,199.11 575.54,199.37C577.54,203.99 570.36,203.51 568.49,206.34C567.6,212.07 567.58,217.93 566.32,223.6C565.99,225.21 564.11,225.28 562.84,225.52C562.51,219.76 563.91,214.11 564.3,208.39C561.45,210.41 557.53,211.54 556.04,214.99C554.35,217.79 553.1,220.86 552.9,224.16L549.78,224.32C549.53,221.48 550.48,218.82 551.66,216.3C550.23,217.01 546.99,220.63 546.69,217.1C548.88,214.5 552.37,213.35 554.42,210.65C558.72,202.19 562.96,193.68 567.36,185.27ZM565.74,195.87C563.89,199.83 561.76,203.64 559.91,207.58C561.5,206.61 563.09,205.63 564.71,204.7C565.09,201.76 565.51,198.83 565.74,195.87ZM174.39,185.58C175.03,185.42 176.32,185.09 176.96,184.93C177.75,186.56 177.02,188.35 176.89,190.04C175.94,197.01 175.11,204.02 173.41,210.86C172.15,215.48 170.45,220.46 166.49,223.47C162.47,226.5 155.82,224.97 153.76,220.31C151.12,214.9 151.96,208.68 153.01,202.98C154.21,197.36 156.03,191.83 158.62,186.7C159.46,184.99 162.65,185.69 161.17,187.91C158.22,197.05 153.93,206.77 156.74,216.49C157.61,220.22 162.78,223.25 165.54,219.55C169.91,212.52 170.84,203.99 172.11,195.98C172.79,192.55 171.65,188.24 174.39,185.58ZM374.18,193.69C374.51,192.99 375.02,192.48 375.71,192.14C376.83,193.43 379.57,193.83 378.99,195.99C378.16,197.46 376.54,197.36 375.11,197.25C375.4,195.86 375.09,194.67 374.18,193.69ZM381.28,196.86C381.1,195 383.16,194.64 384.51,194.31C384.76,194.7 385.27,195.47 385.53,195.86C385.38,196.42 385.09,197.55 384.94,198.12C383.62,198.54 381.05,199.13 381.28,196.86ZM45.68,202.97C46.64,201.71 47.91,200.84 49.53,200.67C49.36,207.56 47.42,214.31 45.79,220.98C45.61,223.15 43.38,223.03 41.74,223.18C41.95,220.33 42.55,217.54 43.11,214.75C41.23,216.37 39.66,218.76 37.03,219.16C35.57,219.42 34.33,218.45 33.02,218.02C28.99,210.4 37.88,201.37 45.68,202.97ZM36.77,210.75C35.76,211.95 35.29,215.42 37.69,214.82C40.59,212.72 42.36,209.46 44.1,206.42C41.14,206.69 38.12,207.92 36.77,210.75ZM83.02,202.92C84.06,201.74 85.15,200.37 86.91,201.18C86.43,207.86 84.67,214.42 83.09,220.92C82.95,222.92 80.78,223.66 79.17,222.76C78.91,219.9 80.01,217.12 80.59,214.36C78.47,216.46 76.4,219.6 72.98,219.2C69.84,218.51 68.71,215.03 69.41,212.18C70.89,206.37 76.95,201.86 83.02,202.92ZM73.34,212.05C72.95,213.21 73.05,215.24 74.78,214.85C77.84,212.99 79.45,209.5 81.34,206.57C77.78,206.45 74.57,208.76 73.34,212.05ZM119.45,203C120.39,201.66 121.64,200.7 123.37,200.75C122.92,207.8 121.21,214.76 119.33,221.55C119.05,223.31 116.84,222.77 115.62,223.26C115.6,220.35 116.22,217.49 117.04,214.72C114.81,216.7 112.47,219.91 109.06,219.07C105.72,218.12 105.16,214.05 106.12,211.19C108.2,206.04 113.68,201.82 119.45,203ZM110.85,215.43C113.8,212.96 116.08,209.83 117.88,206.45C113.58,206.23 107.45,211.22 110.85,215.43ZM195.45,202.51C196.5,200.89 198.38,200.74 200.14,200.73C200.29,203.16 200.07,205.61 199.24,207.91C196.69,215.91 195.49,224.24 194.2,232.51C193.9,234.58 191.39,234.35 189.86,234.32C190.8,225.76 192.79,217.38 194.96,209.06C190.8,214.22 188.87,221.67 182.7,224.85C181.33,221.6 182.85,218.25 183.32,214.99C180.54,218.29 180.22,223.66 176.06,225.65C173.42,225.9 174.4,222.55 174.56,221.01C175.86,216.08 176.16,210.86 177.94,206.09L179.23,205.56L180.6,205.95C180.79,209.04 180.14,212.11 179.51,215.11C181.35,212.72 182.8,209.36 186.3,209.31C187.16,211.39 186.86,213.6 186.48,215.76C189.33,211.26 192.18,206.72 195.45,202.51ZM364.45,203.01C365.37,201.65 366.62,200.7 368.36,200.73C367.94,207.79 366.2,214.77 364.32,221.58C364,223.29 361.84,222.79 360.64,223.28C360.57,220.37 361.22,217.53 362.03,214.76C360.15,216.36 358.55,218.58 356,219.13C353.79,219.7 351.57,217.97 350.92,215.93C349.5,208.64 357.31,201.57 364.45,203.01ZM356.03,209.92C354.93,211.28 353.59,214.3 356.01,214.98C359.21,213.07 360.98,209.54 362.9,206.46C360.3,206.81 357.45,207.48 356.03,209.92ZM425.47,201.51C427.72,200.85 430.63,201.61 431.45,204.04C431.01,209.97 425.08,213.07 420.43,215.57C418.86,216.18 420.49,219.57 421.97,218.67C423.68,218.44 425.33,217.37 427.09,217.84C427.72,223.24 417.37,224.47 416.29,219.09C414.69,212.19 418.73,203.98 425.47,201.51ZM419.99,212.38C422.62,211.01 425.15,209.29 426.93,206.87C427.52,206.26 427.35,204.4 426.02,204.94C422.76,206.05 421.25,209.46 419.99,212.38ZM470.02,202.92C471.04,201.76 472.1,200.4 473.85,201.13C473.53,207.8 471.64,214.36 470.11,220.85C469.98,222.87 467.85,223.63 466.21,222.82C465.86,219.94 467.02,217.13 467.61,214.35C465.88,216.02 464.41,218.22 462.04,219.01C459.51,219.93 456.53,217.82 456.35,215.19C455.52,208.04 463.09,201.69 470.02,202.92ZM460.85,210.96C459.97,212.19 459.54,215.16 461.8,214.87C464.82,212.93 466.49,209.52 468.33,206.54C465.21,206.56 462.3,208.17 460.85,210.96ZM528.2,202.95C529.22,201.66 530.51,200.74 532.23,200.75C531.61,207.67 530.02,214.5 528.2,221.2C528,223.13 525.83,222.96 524.44,223.32C524.29,220.39 525.01,217.54 525.78,214.75C524.15,216.18 522.67,217.83 520.76,218.9C518.31,220.01 515.34,218.4 514.7,215.87C513.27,208.53 521.07,201.65 528.2,202.95ZM518.48,212.44C517.96,213.77 519.12,215.69 520.62,214.6C523.18,212.36 524.91,209.37 526.67,206.51C522.92,206.43 519.58,208.89 518.48,212.44ZM586.6,202.63C588.04,201.51 590.21,200.64 591.74,202.13C593.15,204.9 591.97,207.96 591.37,210.77C589.86,216.49 589.06,222.42 587.06,228C585.53,229.83 582.84,227.9 584.22,225.86C585.89,218.85 588.51,211.97 588.85,204.71C583.5,207.81 580.45,213.54 577.8,218.91C577.2,220.51 575.33,220.66 573.93,220.19C574.7,214.52 576.04,208.91 577.68,203.43C577.97,201.73 580.05,202.19 581.25,201.73C580.91,204.45 580.36,207.14 580.12,209.88C582.02,207.26 583.95,204.57 586.6,202.63ZM626.47,203.02C626.97,201.64 630.32,199.42 630.34,202.06C629.58,208.66 628.15,215.26 626.3,221.66C625.9,223.27 623.82,222.82 622.65,223.28C622.56,220.39 623.21,217.56 624.02,214.8C622.13,216.37 620.54,218.57 618.03,219.12C615.83,219.72 613.66,218 612.93,216.02C611.44,208.7 619.3,201.54 626.47,203.02ZM617.97,210C616.85,211.36 615.63,214.44 618.09,214.99C621.2,212.96 623.01,209.55 624.9,206.46C622.26,206.8 619.39,207.51 617.97,210ZM204.28,202.31C204.88,202.09 206.07,201.67 206.66,201.45C206.63,203.69 206.36,205.91 206.09,208.13C208.1,205.3 210.17,201.72 213.96,201.25C219.84,201.51 218.33,212.15 212.51,210.37C212.35,208.57 215.16,205.05 212.17,204.76C209.05,207.24 207.49,211.05 205.47,214.38C203.61,217.32 203.21,220.86 202.91,224.25C201.76,225.84 200.12,226.86 198.1,226.18C200.64,218.35 201.57,210.08 204.28,202.31ZM223.52,203.6C225.35,202.06 227.82,202.25 229.97,202.86C233.07,208.86 230.93,216.59 226.04,220.96C223.68,223.4 218.98,222.81 217.7,219.54C215.95,213.7 218.89,207.25 223.52,203.6ZM220.66,215.05C220.79,216.65 221.36,219.7 223.66,218.65C227.83,215.88 229.12,209.26 226.42,205.05C223.11,207.29 220.94,211.06 220.66,215.05ZM372.89,203.15C374.01,201.97 375.58,201.74 377.14,201.74C374.21,215.31 370.17,228.6 366.15,241.88C365.44,243.75 364.56,246.83 361.91,246.09C360.43,240.59 360.45,234.67 357.64,229.57C358.29,229.03 358.95,228.5 359.63,227.97C361.46,230.86 362.39,234.16 363.39,237.4C367.02,227.63 369.49,217.48 372.34,207.46C371.42,207.74 369.58,208.28 368.66,208.55C368.48,205.82 371.16,204.68 372.89,203.15ZM380.02,204.07C380.15,202.22 381.97,201.73 383.52,201.58C382.75,209.04 381.38,216.57 378.84,223.63L375.76,224.31C376.55,217.45 378.48,210.79 380.02,204.07ZM478.1,202.17C478.7,202.02 479.91,201.72 480.51,201.57C480.42,203.68 480.14,205.77 479.67,207.82C479.82,207.72 480.13,207.53 480.29,207.43C481.87,205.18 483.54,202.77 486.15,201.63C488.45,200.45 491.53,202.49 491.43,205.06C491.8,208.01 489.55,211.74 486.21,210.03C486.71,208.16 487.24,206.27 487.23,204.32C485.73,205.07 484.29,206.02 483.37,207.46C480.24,212.25 477.04,217.27 476.66,223.15C476.68,225.65 473.97,226.81 471.81,226.35C474.37,218.41 475.3,210.01 478.1,202.17ZM493.75,207.87C496.04,204.18 500.61,201.04 505.07,202.73C508.66,203.81 508.35,210.81 504.1,210.39C504.11,209.52 504.12,207.79 504.12,206.92C503.06,205.68 500.84,206.03 499.53,206.73C496.3,209 494.82,213.07 494.43,216.87C494.6,219.18 497.09,217.61 498.26,217.2C503.71,214.25 507.77,209.4 512,204.98C512.78,203.83 514.16,204.65 515.22,204.77C509.88,218.08 506.29,231.99 502.9,245.9C502.74,247.93 498.62,248.55 499.36,245.84C501.54,234.37 505.46,223.34 509.05,212.25C505.33,215.71 501.56,219.28 496.97,221.56C495.14,222.5 492.5,222.7 491.23,220.78C489.74,216.41 491.44,211.63 493.75,207.87ZM443.23,205.47C444.05,204.03 445.3,202.14 447.28,202.92C447.62,207.34 443.6,210.92 443.94,215.5C449.12,213.2 450.91,207.17 454.25,202.99C454.8,202.78 455.89,202.37 456.44,202.17C455.77,209.58 453.54,216.72 451.77,223.92C451.43,225.32 449.2,226.5 448.29,224.88C448.96,220.81 450.23,216.86 451.02,212.81C449.17,214.84 447.8,217.63 445,218.5C442.81,219.2 440.52,217.16 440.58,214.97C440.47,211.62 441.69,208.38 443.23,205.47Z" style="fill:rgb(84,84,84);"/>
        </g>
    </g>
</svg>
